<svg xmlns="http://www.w3.org/2000/svg" viewBox="0 0 2099 139"><defs><style>.cls-1,.cls-3{fill:#fff;}.cls-1{opacity:0.5;}.cls-2{opacity:0.75;}</style></defs><title>Asset 3</title><g id="Layer_2" data-name="Layer 2"><g id="Layer_2-2" data-name="Layer 2"><path class="cls-1" d="M2101,139H0V0L17.57,4.53a347.1,347.1,0,0,0,131,8.19l54.54-7a346.79,346.79,0,0,1,89,.08l80.55,10.49a345.91,345.91,0,0,0,76,1.49L613.24,2.87A347.16,347.16,0,0,1,676.66,3L843.46,18.5a346,346,0,0,0,58.47.49L1119.55,2.43a346.26,346.26,0,0,1,63.82,1l121.8,13.25a346.55,346.55,0,0,0,82.56-.9l78.84-10.33a346.68,346.68,0,0,1,83.94-.75L1658,16.88a346.5,346.5,0,0,0,77,.09L1843.15,5a346.42,346.42,0,0,1,90.46,1.88l18.49,2.82A347.25,347.25,0,0,0,2101,0h0Z"/><g class="cls-2"><path class="cls-3" d="M2101,139H0V14l14.62,2.62a647.68,647.68,0,0,0,195.72,4.75h0A649.85,649.85,0,0,1,325.85,17L621.31,32a652.6,652.6,0,0,0,82.86-1.07L874.52,17.8a653.3,653.3,0,0,1,99-.05l157,11.91a651.38,651.38,0,0,0,115.59-1.53l81.74-8.41a651.67,651.67,0,0,1,111.59-1.83l182.8,12.72A650.89,650.89,0,0,0,1721,30l131.9-10.89a650.73,650.73,0,0,1,122.87,1.5L2101,34.05Z"/></g><g class="cls-2"><path class="cls-3" d="M2101,139H0V14H0A712.45,712.45,0,0,0,301.41,26.7L327,22.28a218.27,218.27,0,0,1,94.71,4.52L488,44.91A218.28,218.28,0,0,0,625.33,37.5h0A218.33,218.33,0,0,1,748.15,26.66h0a996.54,996.54,0,0,0,372.43,3.83l46.79-8.4A218.3,218.3,0,0,1,1257,24.7l43.32,10.41A543.2,543.2,0,0,0,1541.39,38h0a543.1,543.1,0,0,1,223.32-1.08l12.4,2.55A543.17,543.17,0,0,0,2015.36,35L2101,14Z"/></g><path class="cls-3" d="M0,47l45.38,7.63A516.91,516.91,0,0,0,193.11,58l22.68-2.75A516.38,516.38,0,0,1,352,56.85h0A516.32,516.32,0,0,0,492.15,58l25.91-3.34A516.34,516.34,0,0,1,636.13,53l79.19,8a516.43,516.43,0,0,0,118.47-1.68L870,54.62a516.28,516.28,0,0,1,117.54-1.77l83.48,8.29a516.55,516.55,0,0,0,117.7-1.79l34.35-4.47a516.63,516.63,0,0,1,121.32-1.41l74.77,8a517.14,517.14,0,0,0,104.67.48l107-10.41a516.83,516.83,0,0,1,92.67-.65l145.25,12a516,516,0,0,0,98.87-1.29L2101,47v92H0Z"/></g></g></svg>