<svg xmlns="http://www.w3.org/2000/svg" viewBox="0 0 364.05 23.82"><defs><style>.cls-1{fill:#fff;}</style></defs><title>Asset 1</title><g id="Layer_2" data-name="Layer 2"><g id="Division"><path class="cls-1" d="M9.18,22.36C3.6,22.36,0,16.9,0,11.26S3.69.15,9.18.15a10.89,10.89,0,0,1,5.46,1.28V5.86l-3-3a3.19,3.19,0,0,0-2.5-1C5.06,1.86,4,7.05,4,11.26s1.25,9.39,5.21,9.39a3.16,3.16,0,0,0,2.5-1l3-3v4.46A9.55,9.55,0,0,1,9.18,22.36Z"/><path class="cls-1" d="M26.87,22.51c-5.7,0-9.27-5.61-9.27-11.25S21.17,0,26.87,0s9.27,5.61,9.27,11.26S32.57,22.51,26.87,22.51Zm0-20.74c-4.12,0-5.31,5.21-5.31,9.49s1.19,9.48,5.31,9.48,5.31-5.21,5.31-9.48S31,1.77,26.87,1.77Z"/><path class="cls-1" d="M38.49,22.05l1.86-1.86V2.32L38.49.46h7L43.65,2.32v18H48.8l2.47-2.47v4.24Z"/><path class="cls-1" d="M53.37,22.05l1.86-1.86V2.32L53.37.46h7L58.53,2.32v18h5.15l2.47-2.47v4.24Z"/><path class="cls-1" d="M68.26,22.05l1.86-1.86V2.32L68.26.46H81.8V4.7L79.33,2.23H73.41V9.61h4.24l1.86-1.86v5.49l-1.86-1.86H73.41v8.9h5.92l2.47-2.47v4.24Z"/><path class="cls-1" d="M101.69,12.23v8.54c-1.5.89-2.93,1.59-6.5,1.59-5.86,0-10.43-5.1-10.43-11.1S89.49.15,95.34.15a11.31,11.31,0,0,1,5.43,1.25V5.86l-3-3a3.23,3.23,0,0,0-2.47-1c-4.15,0-6.59,4.91-6.59,9.4s2.44,9.39,6.59,9.39a4.48,4.48,0,0,0,3-1.07V12.23l-1.86-1.86h7Z"/><path class="cls-1" d="M105.47,22.05l1.86-1.86V2.32L105.47.46H119V4.7l-2.47-2.47h-5.92V9.61h4.24l1.86-1.86v5.49l-1.86-1.86h-4.24v8.9h5.92L119,17.81v4.24Z"/><path class="cls-1" d="M139.2,22.51c-5.7,0-9.27-5.61-9.27-11.25S133.5,0,139.2,0s9.27,5.61,9.27,11.26S144.91,22.51,139.2,22.51Zm0-20.74c-4.12,0-5.31,5.21-5.31,9.49s1.19,9.48,5.31,9.48,5.31-5.21,5.31-9.48S143.32,1.77,139.2,1.77Z"/><path class="cls-1" d="M161.89,2.23H156V9.61h4.24l1.86-1.86v5.49l-1.86-1.86H156v8.81l1.86,1.86h-7l1.86-1.86V2.32L150.82.46h13.54V4.7Z"/><path class="cls-1" d="M174.43,22.05l1.86-1.86V2.32L174.43.46H188V4.7L185.5,2.23h-5.92V9.61h4.24l1.86-1.86v5.49l-1.86-1.86h-4.24v8.9h5.92L188,17.81v4.24Z"/><path class="cls-1" d="M207.09,2.32v21.5L194.59,4.39v15.8l1.86,1.86h-5.8l1.86-1.86V2.32L190.65.46h5.4l9,14.06V2.32L203.16.46H209Z"/><path class="cls-1" d="M228.08,12.23v8.54c-1.5.89-2.93,1.59-6.5,1.59-5.85,0-10.43-5.1-10.43-11.1S215.88.15,221.73.15a11.28,11.28,0,0,1,5.43,1.25V5.86l-3-3a3.23,3.23,0,0,0-2.47-1c-4.14,0-6.58,4.91-6.58,9.4s2.44,9.39,6.58,9.39a4.44,4.44,0,0,0,3.05-1.07V12.23l-1.86-1.86h7Z"/><path class="cls-1" d="M232.16,22.05,234,20.19V2.32L232.16.46h7l-1.86,1.86V20.19l1.86,1.86Z"/><path class="cls-1" d="M258.61,2.32v21.5L246.1,4.39v15.8L248,22.05h-5.79L244,20.19V2.32L242.17.46h5.4l9,14.06V2.32L254.67.46h5.8Z"/><path class="cls-1" d="M263,22.05l1.86-1.86V2.32L263,.46h13.54V4.7l-2.47-2.47h-5.92V9.61h4.24l1.86-1.86v5.49l-1.86-1.86h-4.24v8.9h5.92l2.47-2.47v4.24Z"/><path class="cls-1" d="M279.22,22.05l1.87-1.86V2.32L279.22.46h13.55V4.7L290.3,2.23h-5.92V9.61h4.24l1.86-1.86v5.49l-1.86-1.86h-4.24v8.9h5.92l2.47-2.47v4.24Z"/><path class="cls-1" d="M308.63,22.05l-5.16-9.91h-2.86v8.05l1.86,1.86h-7l1.86-1.86V2.32L295.45.46h7.78c3.66,0,7.44,1.89,7.44,5.92a5.59,5.59,0,0,1-4,5.12l4.78,8.69,1.86,1.86Zm-5.4-19.82h-2.62v8.14h2.62a3.71,3.71,0,0,0,3.69-4C306.92,3.9,305.36,2.23,303.23,2.23Z"/><path class="cls-1" d="M314.76,22.05l1.86-1.86V2.32L314.76.46h7l-1.86,1.86V20.19l1.86,1.86Z"/><path class="cls-1" d="M341.2,2.32v21.5L328.7,4.39v15.8l1.86,1.86h-5.8l1.86-1.86V2.32L324.76.46h5.4l9,14.06V2.32L337.27.46h5.79Z"/><path class="cls-1" d="M362.19,12.23v8.54c-1.5.89-2.93,1.59-6.5,1.59-5.86,0-10.43-5.1-10.43-11.1S350,.15,355.84.15a11.31,11.31,0,0,1,5.43,1.25V5.86l-3-3a3.23,3.23,0,0,0-2.47-1c-4.15,0-6.59,4.91-6.59,9.4s2.44,9.39,6.59,9.39a4.48,4.48,0,0,0,3.05-1.07V12.23L357,10.37h7Z"/></g></g></svg>