<svg xmlns="http://www.w3.org/2000/svg" viewBox="0 0 443.78 22.65"><defs><style>.cls-1{fill:#fff;}</style></defs><title>Asset 3</title><g id="Layer_2" data-name="Layer 2"><g id="Division"><path class="cls-1" d="M8.73,21.26C3.42,21.26,0,16.07,0,10.7S3.51.14,8.73.14a10.36,10.36,0,0,1,5.19,1.22V5.57L11.11,2.76a3,3,0,0,0-2.38-1c-3.92,0-5,4.93-5,8.93s1.19,8.94,5,8.94a3,3,0,0,0,2.38-1l2.81-2.81v4.23A9,9,0,0,1,8.73,21.26Z"/><path class="cls-1" d="M26.48,21.41c-5.43,0-8.82-5.34-8.82-10.71S21.05,0,26.48,0,35.3,5.34,35.3,10.7,31.9,21.41,26.48,21.41Zm0-19.73c-3.92,0-5.05,5-5.05,9s1.13,9,5.05,9,5.05-5,5.05-9S30.39,1.68,26.48,1.68Z"/><path class="cls-1" d="M39,21,40.8,19.2V2.2L39,.44h6.68L43.94,2.2V19.29h4.9l2.35-2.35v4Z"/><path class="cls-1" d="M54.11,21l1.77-1.77V2.2L54.11.44h6.68L59,2.2V19.29h4.9l2.35-2.35v4Z"/><path class="cls-1" d="M69.19,21,71,19.2V2.2L69.19.44H82.07v4L79.72,2.12H74.1v7h4L79.9,7.37v5.22l-1.77-1.77h-4v8.47h5.62l2.35-2.35v4Z"/><path class="cls-1" d="M101.91,11.63v8.12c-1.42.85-2.79,1.51-6.18,1.51-5.57,0-9.92-4.84-9.92-10.56S90.31.14,95.88.14A10.87,10.87,0,0,1,101,1.33V5.57L98.22,2.76a3,3,0,0,0-2.34-1c-3.95,0-6.27,4.67-6.27,8.93s2.32,8.94,6.27,8.94a4.29,4.29,0,0,0,2.9-1v-7L97,9.86h6.67Z"/><path class="cls-1" d="M106.43,21l1.77-1.77V2.2L106.43.44h12.88v4L117,2.12h-5.63v7h4l1.77-1.77v5.22l-1.77-1.77h-4v8.47H117l2.35-2.35v4Z"/><path class="cls-1" d="M140.36,21.41c-5.42,0-8.82-5.34-8.82-10.71S134.94,0,140.36,0s8.82,5.34,8.82,10.7S145.78,21.41,140.36,21.41Zm0-19.73c-3.92,0-5.05,5-5.05,9s1.13,9,5.05,9,5-5,5-9S144.28,1.68,140.36,1.68Z"/><path class="cls-1" d="M163.44,2.12h-5.62v7h4l1.77-1.77v5.22l-1.77-1.77h-4V19.2L159.59,21h-6.67l1.76-1.77V2.2L152.92.44h12.87v4Z"/><path class="cls-1" d="M189.17,2.12h-3.45V19.2L187.49,21h-6.68l1.77-1.77V2.12h-3.45l-2.35,2.35v-4h14.74v4Z"/><path class="cls-1" d="M205.44,21l1.77-1.77V10.82h-7.75V19.2L201.23,21h-6.67l1.77-1.77V2.2L194.56.44h6.67L199.46,2.2V9.14h7.75V2.2L205.44.44h6.67L210.34,2.2v17L212.11,21Z"/><path class="cls-1" d="M215.58,21l1.77-1.77V2.2L215.58.44h12.88v4l-2.35-2.35h-5.62v7h4l1.77-1.77v5.22l-1.77-1.77h-4v8.47h5.62l2.35-2.35v4Z"/><path class="cls-1" d="M240.44,21l1.77-1.77V2.2L240.44.44h12.87v4L251,2.12h-5.63v7h4l1.77-1.77v5.22l-1.77-1.77h-4v8.47H251l2.34-2.35v4Z"/><path class="cls-1" d="M272.43,2.2V22.65L260.53,4.18v15L262.3,21h-5.51l1.77-1.77V2.2L256.79.44h5.14l8.52,13.37V2.2L268.68.44h5.52Z"/><path class="cls-1" d="M291.51,2.23,285.56,21h-1.91l-5.8-18.74L276.05.44h6.87l-1.74,1.74,4.12,13.74,4.24-13.74L287.8.44h5.51Z"/><path class="cls-1" d="M295.65,21l1.77-1.77V2.2L295.65.44h6.67L300.55,2.2v17L302.32,21Z"/><path class="cls-1" d="M318.62,21l-4.9-9.43H311V19.2L312.76,21h-6.67l1.77-1.77V2.2L306.09.44h7.4c3.48,0,7.07,1.79,7.07,5.62a5.32,5.32,0,0,1-3.82,4.88l4.55,8.26L323.06,21ZM313.49,2.12H311V9.86h2.5A3.53,3.53,0,0,0,317,6.06C317,3.71,315.52,2.12,313.49,2.12Z"/><path class="cls-1" d="M334.17,21.41c-5.43,0-8.82-5.34-8.82-10.71S328.74,0,334.17,0,343,5.34,343,10.7,339.59,21.41,334.17,21.41Zm0-19.73c-3.92,0-5.05,5-5.05,9s1.13,9,5.05,9,5-5,5-9S338.08,1.68,334.17,1.68Z"/><path class="cls-1" d="M362.35,2.2V22.65L350.46,4.18v15L352.23,21h-5.51l1.77-1.77V2.2L346.72.44h5.13l8.53,13.37V2.2L358.61.44h5.51Z"/><path class="cls-1" d="M382.25,21,384,19.2V3.86l-6.41,11.4L371.2,3.86V19.2L373,21h-5.52l1.77-1.77V2.2L367.45.44h5.46l5.6,10,5.56-10h4.85L387.15,2.2v17L388.92,21Z"/><path class="cls-1" d="M392.39,21l1.77-1.77V2.2L392.39.44h12.88v4l-2.35-2.35H397.3v7h4l1.77-1.77v5.22l-1.77-1.77h-4v8.47h5.62l2.35-2.35v4Z"/><path class="cls-1" d="M424.39,2.2V22.65L412.49,4.18v15L414.26,21h-5.51l1.77-1.77V2.2L408.75.44h5.13l8.53,13.37V2.2L420.64.44h5.51Z"/><path class="cls-1" d="M441.44,2.12H438V19.2L439.75,21h-6.67l1.77-1.77V2.12H431.4l-2.35,2.35v-4h14.73v4Z"/></g></g></svg>