<?xml version="1.0" encoding="utf-8"?>
<!-- Generator: Adobe Illustrator 23.0.3, SVG Export Plug-In . SVG Version: 6.00 Build 0)  -->
<svg version="1.1" id="Layer_1" xmlns="http://www.w3.org/2000/svg" xmlns:xlink="http://www.w3.org/1999/xlink" x="0px" y="0px"
	 viewBox="0 0 491 27" style="enable-background:new 0 0 491 27;" xml:space="preserve">
<style type="text/css">
	.st0{fill:#FFFFFF;}
</style>
<title>Asset 3</title>
<g>
	<g id="Division">
		<path class="st0" d="M10.2,24.5c-5.9,0-9.6-5.7-9.6-11.7S4.4,1.2,10.2,1.2c2-0.1,4,0.4,5.7,1.3v4.6L12.8,4
			c-0.7-0.7-1.6-1.2-2.6-1.1c-4.3,0-5.5,5.4-5.5,9.9s1.3,9.9,5.5,9.9c1,0,2-0.4,2.6-1.1l3.1-3.1v4.7C14.2,24.1,12.2,24.6,10.2,24.5z
			"/>
		<path class="st0" d="M29.8,24.6c-6,0-9.7-5.9-9.7-11.8S23.8,1,29.8,1s9.7,5.9,9.7,11.8S35.8,24.6,29.8,24.6z M29.8,2.9
			c-4.3,0-5.6,5.5-5.6,9.9s1.2,9.9,5.6,9.9s5.6-5.5,5.6-9.9S34.1,2.9,29.8,2.9z"/>
		<path class="st0" d="M43.6,24.2l2-2V3.4l-2-1.9H51l-1.9,1.9v18.9h5.4l2.6-2.6v4.4L43.6,24.2z"/>
		<path class="st0" d="M60.3,24.2l2-2V3.4l-2-1.9h7.4l-2,1.9v18.9h5.4l2.6-2.6v4.4L60.3,24.2z"/>
		<path class="st0" d="M76.9,24.2l2-2V3.4l-2-1.9h14.2v4.4l-2.6-2.6h-6.2v7.7h4.4l2-1.9v5.8l-2-2h-4.4v9.3h6.2l2.6-2.6v4.4
			L76.9,24.2z"/>
		<path class="st0" d="M113,13.8v9c-1.6,0.9-3.1,1.7-6.8,1.7c-6.1,0-10.9-5.3-10.9-11.7s5-11.7,11.1-11.7c2,0,3.9,0.4,5.7,1.3v4.7
			L109,4c-0.7-0.7-1.6-1.1-2.6-1.1c-4.4,0-6.9,5.2-6.9,9.9s2.6,9.9,6.9,9.9c1.2,0,2.3-0.4,3.2-1.1v-7.7l-2-2h7.4L113,13.8z"/>
		<path class="st0" d="M118,24.2l2-2V3.4l-2-1.9h14.2v4.4l-2.5-2.6h-6.2v7.7h4.4l2-2v5.8l-2-2h-4.4v9.3h6.2l2.6-2.6v4.4L118,24.2z"
			/>
		<path class="st0" d="M155.5,24.6c-6,0-9.7-5.9-9.7-11.8S149.5,1,155.5,1c6,0,9.7,5.9,9.7,11.8S161.5,24.6,155.5,24.6z M155.5,2.9
			c-4.3,0-5.6,5.5-5.6,9.9s1.2,9.9,5.6,9.9c4.3,0,5.5-5.5,5.5-9.9S159.8,2.9,155.5,2.9z"/>
		<path class="st0" d="M181,3.3h-6.2v7.7h4.4l2-2v5.8l-2-2h-4.4v9.3l2,2h-7.4l1.9-2V3.4l-1.9-1.9h14.2v4.4L181,3.3z"/>
		<path class="st0" d="M209.4,3.3h-3.8v18.9l2,2h-7.4l2-2V3.3h-3.8l-2.6,2.6V1.5H212v4.4L209.4,3.3z"/>
		<path class="st0" d="M227.3,24.2l2-2v-9.3h-8.6v9.2l2,2h-7.4l2-2V3.4l-2-1.9h7.4l-2,1.9v7.7h8.6V3.4l-2-1.9h7.4l-2,1.9v18.8l2,2
			H227.3z"/>
		<path class="st0" d="M238.5,24.2l2-2V3.4l-2-1.9h14.2v4.4l-2.6-2.6h-6.2V11h4.4l2-2v5.8l-2-2h-4.4v9.3h6.2l2.6-2.6v4.4L238.5,24.2
			z"/>
		<path class="st0" d="M266,24.2l2-2V3.4l-2-1.9h14.2v4.4l-2.5-2.6h-6.2v7.7h4.4l2-2v5.8l-2-2h-4.4v9.3h6.2l2.6-2.6v4.4L266,24.2z"
			/>
		<path class="st0" d="M301.3,3.4V26L288.1,5.6v16.6l2,2H284l2-2V3.4l-2-1.9h5.7l9.4,14.8V3.4l-2-1.9h6.1L301.3,3.4z"/>
		<path class="st0" d="M322.3,3.5l-6.6,20.7h-2.1l-6.4-20.7l-2-2h7.6l-1.9,1.9l4.5,15.2l4.7-15.2l-1.9-1.9h6.1L322.3,3.5z"/>
		<path class="st0" d="M326.9,24.2l2-2V3.4l-2-1.9h7.4l-2,1.9v18.8l2,2H326.9z"/>
		<path class="st0" d="M352.2,24.2l-5.4-10.4h-3v8.4l1.9,2h-7.4l2-2V3.4l-2-1.9h8.2c3.8,0,7.8,2,7.8,6.2c-0.1,2.5-1.8,4.7-4.2,5.4
			l5,9.1l2,2H352.2z M346.6,3.3h-2.7v8.5h2.8c2.2,0,3.9-1.8,3.9-3.9c0-0.1,0-0.2,0-0.3C350.5,5.1,348.8,3.3,346.6,3.3z"/>
		<path class="st0" d="M369.4,24.6c-6,0-9.7-5.9-9.7-11.8S363.4,1,369.4,1c6,0,9.7,5.9,9.7,11.8S375.4,24.6,369.4,24.6z M369.4,2.9
			c-4.3,0-5.6,5.5-5.6,9.9s1.2,9.9,5.6,9.9s5.5-5.5,5.5-9.9S373.7,2.9,369.4,2.9z"/>
		<path class="st0" d="M400.5,3.4V26L387.4,5.6v16.6l2,2h-6.1l2-2V3.4l-2-1.9h5.7l9.4,14.8V3.4l-2-1.9h6.1L400.5,3.4z"/>
		<path class="st0" d="M422.5,24.2l1.9-2V5.3l-7.1,12.6l-7.1-12.6v16.9l2,2h-6.1l2-2V3.4l-2-1.9h6l6.2,11l6.1-11h5.4l-2,1.9v18.8
			l2,2H422.5z"/>
		<path class="st0" d="M433.7,24.2l2-2V3.4l-2-1.9h14.2v4.4l-2.6-2.6h-6.2V11h4.4l2-2v5.8l-2-2h-4.4v9.3h6.2l2.6-2.6v4.4L433.7,24.2
			z"/>
		<path class="st0" d="M469,3.4V26L455.9,5.6v16.6l2,2h-6.1l2-2V3.4l-2-1.9h5.7l9.4,14.8V3.4l-2-1.9h6.1L469,3.4z"/>
		<path class="st0" d="M487.8,3.3H484v18.9l1.9,2h-7.4l2-2V3.3h-3.8l-2.6,2.6V1.5h16.3v4.4L487.8,3.3z"/>
	</g>
</g>
</svg>
