<?xml version="1.0" encoding="utf-8"?>
<!-- Generator: Adobe Illustrator 23.0.3, SVG Export Plug-In . SVG Version: 6.00 Build 0)  -->
<svg version="1.1" id="Layer_1" xmlns="http://www.w3.org/2000/svg" xmlns:xlink="http://www.w3.org/1999/xlink" x="0px" y="0px"
	 viewBox="0 0 382.1 27" style="enable-background:new 0 0 382.1 27;" xml:space="preserve">
<style type="text/css">
	.st0{fill:#FFFFFF;}
</style>
<title>Asset 1</title>
<g>
	<g id="Division">
		<path class="st0" d="M9.6,24.4C3.8,24.4,0,18.7,0,12.8S3.9,1.1,9.6,1.1c2-0.1,4,0.4,5.7,1.3v4.6L12.2,4c-0.7-0.7-1.6-1.1-2.6-1
			c-4.3,0-5.4,5.4-5.4,9.9s1.3,9.9,5.5,9.9c1,0.1,1.9-0.3,2.6-1l3.1-3.1v4.7C13.7,24.1,11.7,24.6,9.6,24.4z"/>
		<path class="st0" d="M28.2,24.6c-6,0-9.7-5.9-9.7-11.8S22.2,1,28.2,1s9.7,5.9,9.7,11.8S34.2,24.6,28.2,24.6z M28.2,2.8
			c-4.3,0-5.6,5.5-5.6,10s1.2,9.9,5.6,9.9s5.6-5.5,5.6-9.9S32.5,2.8,28.2,2.8z"/>
		<path class="st0" d="M40.4,24.1l2-2V3.4l-2-2h7.3l-1.9,2v18.9h5.4l2.6-2.6v4.5L40.4,24.1z"/>
		<path class="st0" d="M56,24.1l2-2V3.4l-2-2h7.3l-1.9,2v18.9h5.4l2.6-2.6v4.5L56,24.1z"/>
		<path class="st0" d="M71.6,24.1l2-2V3.4l-2-2h14.2v4.5l-2.6-2.6H77V11h4.5l2-2v5.8l-2-2H77v9.3h6.2l2.6-2.6v4.5H71.6z"/>
		<path class="st0" d="M106.7,13.8v9c-1.6,0.9-3.1,1.7-6.8,1.7c-6.2,0-10.9-5.4-10.9-11.6s5-11.7,11.1-11.7c2,0,3.9,0.4,5.7,1.3v4.7
			L102.6,4c-0.7-0.7-1.6-1.1-2.6-1c-4.4,0-6.9,5.2-6.9,9.9s2.6,9.9,6.9,9.9c1.2,0,2.3-0.4,3.1-1.1v-7.7l-2-2h7.3L106.7,13.8z"/>
		<path class="st0" d="M110.7,24.1l2-2V3.4l-2-2h14.2v4.5l-2.6-2.6h-6.2V11h4.5l2-2v5.8l-2-2h-4.5v9.3h6.2l2.6-2.6v4.5H110.7z"/>
		<path class="st0" d="M146.1,24.6c-6,0-9.7-5.9-9.7-11.8S140.1,1,146.1,1s9.7,5.9,9.7,11.8S152.1,24.6,146.1,24.6z M146.1,2.8
			c-4.3,0-5.6,5.5-5.6,10s1.2,9.9,5.6,9.9s5.6-5.5,5.6-9.9S150.4,2.8,146.1,2.8z"/>
		<path class="st0" d="M169.9,3.3h-6.2V11h4.5l2-2v5.8l-2-2h-4.5v9.2l2,2h-7.3l2-2V3.4l-2-2h14.2v4.5L169.9,3.3z"/>
		<path class="st0" d="M183.1,24.1l2-2V3.4l-2-2h14.2v4.5l-2.6-2.6h-6.2V11h4.5l2-2v5.8l-2-2h-4.5v9.3h6.2l2.6-2.6v4.5H183.1z"/>
		<path class="st0" d="M217.3,3.4V26L204.2,5.6v16.6l2,2h-6.1l2-2V3.4l-2-2h5.7l9.4,14.8V3.4l-2-2h6.1L217.3,3.4z"/>
		<path class="st0" d="M239.4,13.8v9c-1.6,0.9-3.1,1.7-6.8,1.7c-6.1,0-10.9-5.4-10.9-11.6s5-11.7,11.1-11.7c2,0,3.9,0.4,5.7,1.3v4.7
			L235.3,4c-0.7-0.7-1.6-1.1-2.6-1c-4.3,0-6.9,5.2-6.9,9.9s2.6,9.9,6.9,9.9c1.2,0,2.3-0.4,3.2-1.1v-7.7l-2-2h7.3L239.4,13.8z"/>
		<path class="st0" d="M243.7,24.1l1.9-2V3.4l-1.9-2h7.3l-2,2v18.8l2,2L243.7,24.1z"/>
		<path class="st0" d="M271.4,3.4V26L258.3,5.6v16.6l2,2h-6.1l1.9-2V3.4l-1.9-2h5.7l9.4,14.8V3.4l-2-2h6.1L271.4,3.4z"/>
		<path class="st0" d="M276,24.1l2-2V3.4l-2-2h14.2v4.5l-2.6-2.6h-6.2V11h4.5l2-2v5.8l-2-2h-4.5v9.3h6.2l2.6-2.6v4.5H276z"/>
		<path class="st0" d="M293.1,24.1l2-2V3.4l-2-2h14.2v4.5l-2.6-2.6h-6.2V11h4.5l2-2v5.8l-2-2h-4.5v9.3h6.2l2.6-2.6v4.5H293.1z"/>
		<path class="st0" d="M323.9,24.1l-5.4-10.4h-3v8.4l2,2h-7.3l2-2V3.4l-2-2h8.2c3.8,0,7.8,2,7.8,6.2c-0.1,2.5-1.8,4.7-4.2,5.4l5,9.1
			l2,2H323.9z M318.3,3.3h-2.7v8.5h2.7c2.2,0,3.9-1.8,3.9-3.9c0-0.1,0-0.2,0-0.3C322.1,5.1,320.5,3.3,318.3,3.3z"/>
		<path class="st0" d="M330.4,24.1l2-2V3.4l-2-2h7.3l-2,2v18.8l2,2L330.4,24.1z"/>
		<path class="st0" d="M358.1,3.4V26L345,5.6v16.6l2,2h-6.1l2-2V3.4l-2-2h5.7l9.4,14.8V3.4l-2-2h6.1L358.1,3.4z"/>
		<path class="st0" d="M380.1,13.8v9c-1.6,0.9-3.1,1.7-6.8,1.7c-6.2,0-10.9-5.4-10.9-11.6s5-11.7,11.1-11.7c2,0,3.9,0.4,5.7,1.3v4.7
			L376,4c-0.7-0.7-1.6-1.1-2.6-1c-4.4,0-6.9,5.2-6.9,9.9s2.6,9.9,6.9,9.9c1.2,0,2.3-0.4,3.2-1.1v-7.7l-1.9-2h7.3L380.1,13.8z"/>
	</g>
</g>
</svg>
