<?xml version="1.0" encoding="utf-8"?>
<!-- Generator: Adobe Illustrator 23.0.3, SVG Export Plug-In . SVG Version: 6.00 Build 0)  -->
<svg version="1.1" id="Layer_1" xmlns="http://www.w3.org/2000/svg" xmlns:xlink="http://www.w3.org/1999/xlink" x="0px" y="0px"
	 viewBox="0 0 417.1 27" style="enable-background:new 0 0 417.1 27;" xml:space="preserve">
<style type="text/css">
	.st0{fill:#FFFFFF;}
</style>
<title>Asset 2</title>
<g>
	<g id="Division">
		<path class="st0" d="M7.1,25.8c-0.7,0-1.4-0.1-2.1-0.2l-5-0.9l2.4-4.4L5,23.6c0.7,0.3,1.5,0.5,2.3,0.5c2.2,0,4.1-1.8,4.1-4
			c0-0.1,0-0.1,0-0.2c-0.1-1.5-0.9-2.8-2.2-3.5l-4.9-3.1c-2-1.1-3.2-3.3-3.3-5.5c0-4.4,3.6-6.4,6.8-6.4c1,0,2,0.2,3,0.4l3.7,0.7
			l-2.5,4.1l-2.1-2.6C9.6,3.2,8.9,3,8.2,3C6.3,2.9,4.7,4.4,4.6,6.3c0,0,0,0,0,0c0,1.3,0.6,2.5,2.5,3.8l4.2,2.8
			c1.9,1.2,3.5,2.8,3.5,5.4C14.8,22.2,12.5,25.8,7.1,25.8z"/>
		<path class="st0" d="M28.4,25.8c-6.2,0-10.2-6.1-10.2-12.3S22.3,1.2,28.4,1.2c2.1-0.1,4.2,0.4,6.1,1.4v4.9l-3.3-3.3
			c-0.7-0.8-1.7-1.2-2.8-1.1c-4.6,0-5.8,5.8-5.8,10.4s1.4,10.4,5.8,10.4c1,0.1,2.1-0.3,2.8-1.1l3.3-3.3v4.9
			C32.6,25.5,30.5,26,28.4,25.8z"/>
		<path class="st0" d="M50.1,25.5l2.1-2.1v-9.8h-9v9.8l2.1,2.1h-7.8l2.1-2.1V3.6l-2.1-2.1h7.8l-2,2.1v8.1h9V3.6l-2.1-2.1h7.8l-2,2.1
			v19.8l2.1,2.1L50.1,25.5z"/>
		<path class="st0" d="M70.8,26c-6.3,0-10.3-6.2-10.3-12.5S64.5,1,70.8,1s10.3,6.2,10.3,12.5S77.2,26,70.8,26z M70.8,3
			c-4.6,0-5.9,5.8-5.9,10.5S66.3,24,70.8,24s5.9-5.8,5.9-10.5S75.4,3,70.8,3z"/>
		<path class="st0" d="M95,26c-6.3,0-10.3-6.2-10.3-12.5S88.7,1,95,1s10.3,6.2,10.3,12.5S101.3,26,95,26z M95,3
			c-4.6,0-5.9,5.8-5.9,10.5S90.4,24,95,24s5.9-5.8,5.9-10.5S99.6,3,95,3z"/>
		<path class="st0" d="M107.9,25.5l2.1-2.1V3.6l-2.1-2.1h7.8l-2.1,2.1v20h5.7l2.8-2.8v4.7H107.9z"/>
		<path class="st0" d="M143.8,26c-6.3,0-10.3-6.2-10.3-12.5S137.5,1,143.8,1c6.3,0,10.3,6.2,10.3,12.5S150.2,26,143.8,26z M143.8,3
			c-4.6,0-5.9,5.8-5.9,10.5s1.3,10.5,5.9,10.5c4.6,0,5.9-5.8,5.9-10.5S148.4,3,143.8,3z"/>
		<path class="st0" d="M169,3.5h-6.6v8.2h4.7l2.1-2.1v6.1l-2.1-2.1h-4.7v9.8l2.1,2.1h-7.8l2.1-2.1V3.6l-2.1-2.1h15v4.7L169,3.5z"/>
		<path class="st0" d="M191.5,15.3h-2.9v8.1l2.1,2.1h-7.8l2.1-2.1V3.6l-2.1-2.1h8.6c4.4,0,9.1,2.1,9.1,6.9S196,15.3,191.5,15.3z
			 M191.5,3.5h-2.9v9.9h2.9c2.6,0.1,4.8-1.9,4.9-4.5c0-0.2,0-0.3,0-0.5c0.1-2.6-1.9-4.8-4.5-4.9C191.8,3.5,191.7,3.5,191.5,3.5z"/>
		<path class="st0" d="M220.4,3.6v15.2c0,4.7-3.8,7.2-7.9,7.2s-7.9-2.6-7.9-7.2V3.6l-2.1-2.1h7.8l-2.1,2.1v15.2
			c0,2.7,2.2,4.9,4.9,4.9c2.7,0,4.9-2.2,4.9-4.9c0,0,0,0,0,0V3.6l-2-2.1h6.4L220.4,3.6z"/>
		<path class="st0" d="M234.2,25.5h-9l2.1-2.1V3.6l-2.1-2.1h8.1c4.7,0,7.9,2.3,7.9,5.9c-0.1,2.6-1.8,4.8-4.2,5.7
			c2.9,0.8,5.4,3.2,5.4,6C242.5,24,238.2,25.5,234.2,25.5z M233.4,3.5H231v9h2.4c2.3,0,4.1-1.6,4.1-4.4S235.7,3.5,233.4,3.5z
			 M234.2,14.5H231v9h3.3c2.3,0.2,4.3-1.6,4.4-3.9c0-0.2,0-0.4,0-0.6c0.2-2.4-1.6-4.4-4-4.6C234.5,14.5,234.4,14.5,234.2,14.5z"/>
		<path class="st0" d="M245.2,25.5l2.1-2.1V3.6l-2.1-2.1h7.8l-2.1,2.1v20h5.7l2.7-2.7v4.7L245.2,25.5z"/>
		<path class="st0" d="M262,25.5l2-2.1V3.6l-2-2.1h7.8l-2.1,2.1v19.8l2.1,2.1L262,25.5z"/>
		<path class="st0" d="M282.9,25.8c-6.2,0-10.2-6.1-10.2-12.3s4.1-12.3,10.2-12.3c2.1-0.1,4.2,0.4,6.1,1.4v4.9l-3.3-3.3
			c-0.7-0.8-1.7-1.2-2.8-1.1c-4.6,0-5.8,5.8-5.8,10.4s1.4,10.4,5.8,10.4c1,0.1,2.1-0.3,2.8-1.1l3.3-3.3v4.9
			C287.2,25.5,285.1,26,282.9,25.8z"/>
		<path class="st0" d="M313.5,25.5l2.1-2.1v-9.8h-9v9.8l2.1,2.1h-7.8l2.1-2.1V3.6l-2.1-2.1h7.8l-2.1,2.1v8.1h9V3.6l-2-2.1h7.8
			l-2.1,2.1v19.8l2.1,2.1L313.5,25.5z"/>
		<path class="st0" d="M324.3,25.5l2.1-2.1V3.6l-2.1-2.1h15v4.7l-2.7-2.7H330v8.2h4.7l2.1-2.1v6.1l-2.1-2.1H330v9.9h6.6l2.7-2.7v4.7
			H324.3z"/>
		<path class="st0" d="M353.8,25.5l2-2l-1.5-4.7h-7.9l-1.6,4.7l2,2h-6.4l2.1-2.1l7.6-21.9h2.2l7.4,21.9l2.1,2.1H353.8z M350.5,7
			l-3.3,9.7h6.5L350.5,7z"/>
		<path class="st0" d="M363.4,25.5l2.1-2.1V3.6l-2.1-2.1h7.8l-2.1,2.1v20h5.7l2.7-2.7v4.7L363.4,25.5z"/>
		<path class="st0" d="M391.5,3.5h-4v20l2,2h-7.8l2.1-2.1v-20h-4L377,6.2V1.5h17.2v4.7L391.5,3.5z"/>
		<path class="st0" d="M409.4,25.5l2.1-2.1v-9.8h-9v9.8l2.1,2.1h-7.8l2.1-2.1V3.6l-2.1-2.1h7.8l-2.1,2.1v8.1h9V3.6l-2.1-2.1h7.8
			l-2.1,2.1v19.8l2.1,2.1L409.4,25.5z"/>
	</g>
</g>
</svg>
