<svg xmlns="http://www.w3.org/2000/svg" viewBox="0 0 375.94 22.51"><defs><style>.cls-1{fill:#fff;}</style></defs><title>Asset 2</title><g id="Layer_2" data-name="Layer 2"><g id="Division"><path class="cls-1" d="M6.38,22.3a11,11,0,0,1-1.9-.16L0,21.35l2.17-4,2.37,3a4.52,4.52,0,0,0,2.08.45A3.67,3.67,0,0,0,10.34,17a3.77,3.77,0,0,0-1.95-3.17L4,11A5.83,5.83,0,0,1,1.07,6C1.07,2.07,4.3.21,7.23.21A14.41,14.41,0,0,1,9.91.55l3.3.61L11,4.82,9.09,2.44A2.32,2.32,0,0,0,7.41,1.8a3.12,3.12,0,0,0-3.26,3c0,1.19.58,2.29,2.23,3.38l3.81,2.54c1.68,1.12,3.17,2.56,3.17,4.88C13.36,19.06,11.26,22.3,6.38,22.3Z"/><path class="cls-1" d="M25.62,22.36c-5.58,0-9.18-5.46-9.18-11.1S20.13.15,25.62.15a10.89,10.89,0,0,1,5.46,1.28V5.86l-3-3a3.19,3.19,0,0,0-2.5-1c-4.12,0-5.22,5.19-5.22,9.4s1.26,9.39,5.22,9.39a3.16,3.16,0,0,0,2.5-1l3-3v4.46A9.55,9.55,0,0,1,25.62,22.36Z"/><path class="cls-1" d="M45.2,22.05l1.86-1.86V11.38H38.92v8.81l1.86,1.86h-7l1.86-1.86V2.32L33.76.46h7L38.92,2.32V9.61h8.14V2.32L45.2.46h7L50.36,2.32V20.19l1.86,1.86Z"/><path class="cls-1" d="M63.84,22.51c-5.71,0-9.28-5.61-9.28-11.25S58.13,0,63.84,0s9.27,5.61,9.27,11.26S69.54,22.51,63.84,22.51Zm0-20.74c-4.12,0-5.31,5.21-5.31,9.49s1.19,9.48,5.31,9.48,5.3-5.21,5.3-9.48S68,1.77,63.84,1.77Z"/><path class="cls-1" d="M85.61,22.51c-5.7,0-9.27-5.61-9.27-11.25S79.91,0,85.61,0s9.28,5.61,9.28,11.26S91.32,22.51,85.61,22.51Zm0-20.74c-4.11,0-5.3,5.21-5.3,9.49s1.19,9.48,5.3,9.48,5.31-5.21,5.31-9.48S89.73,1.77,85.61,1.77Z"/><path class="cls-1" d="M97.23,22.05l1.86-1.86V2.32L97.23.46h7l-1.86,1.86v18h5.15L110,17.81v4.24Z"/><path class="cls-1" d="M129.62,22.51c-5.7,0-9.27-5.61-9.27-11.25S123.92,0,129.62,0s9.28,5.61,9.28,11.26S135.33,22.51,129.62,22.51Zm0-20.74c-4.11,0-5.3,5.21-5.3,9.49s1.19,9.48,5.3,9.48,5.31-5.21,5.31-9.48S133.74,1.77,129.62,1.77Z"/><path class="cls-1" d="M152.32,2.23H146.4V9.61h4.24l1.86-1.86v5.49l-1.86-1.86H146.4v8.81l1.86,1.86h-7l1.87-1.86V2.32L141.24.46h13.55V4.7Z"/><path class="cls-1" d="M172.63,12.9H170v7.29l1.86,1.86h-7l1.86-1.86V2.32L164.85.46h7.78c4,0,8.2,1.89,8.2,6.22S176.6,12.9,172.63,12.9Zm0-10.67H170v8.9h2.62a4.25,4.25,0,0,0,4.45-4.45A4.25,4.25,0,0,0,172.63,2.23Z"/><path class="cls-1" d="M198.62,2.32V16c0,4.21-3.45,6.53-7.14,6.53s-7.14-2.35-7.14-6.53V2.32L182.48.46h7l-1.86,1.86V16a4.45,4.45,0,1,0,8.9,0V2.32L194.68.46h5.8Z"/><path class="cls-1" d="M211.09,22.05H203l1.86-1.86V2.32L203,.46h7.32c4.21,0,7.14,2.07,7.14,5.31a5.59,5.59,0,0,1-3.79,5.12c2.57.7,4.85,2.87,4.85,5.4C218.53,20.68,214.66,22.05,211.09,22.05Zm-.76-19.82h-2.17v8.14h2.17c2.1,0,3.69-1.4,3.69-4S212.46,2.23,210.33,2.23Zm.76,9.91h-2.93v8.14h2.93a3.75,3.75,0,0,0,4-4A3.88,3.88,0,0,0,211.09,12.14Z"/><path class="cls-1" d="M221,22.05l1.86-1.86V2.32L221,.46h7l-1.86,1.86v18h5.15l2.47-2.47v4.24Z"/><path class="cls-1" d="M236.16,22.05,238,20.19V2.32L236.16.46h7l-1.87,1.86V20.19l1.87,1.86Z"/><path class="cls-1" d="M255,22.36c-5.58,0-9.18-5.46-9.18-11.1S249.52.15,255,.15a10.89,10.89,0,0,1,5.46,1.28V5.86l-3-3a3.19,3.19,0,0,0-2.5-1c-4.12,0-5.22,5.19-5.22,9.4S251,20.65,255,20.65a3.16,3.16,0,0,0,2.5-1l3-3v4.46A9.55,9.55,0,0,1,255,22.36Z"/><path class="cls-1" d="M282.55,22.05l1.86-1.86V11.38h-8.14v8.81l1.86,1.86h-7L273,20.19V2.32L271.11.46h7l-1.86,1.86V9.61h8.14V2.32L282.55.46h7l-1.86,1.86V20.19l1.86,1.86Z"/><path class="cls-1" d="M292.25,22.05l1.86-1.86V2.32L292.25.46h13.54V4.7l-2.47-2.47H297.4V9.61h4.24l1.86-1.86v5.49l-1.86-1.86H297.4v8.9h5.92l2.47-2.47v4.24Z"/><path class="cls-1" d="M318.85,22.05l1.83-1.83L319.3,16h-7.1l-1.44,4.27,1.83,1.83H306.8l1.89-1.89L315.55.46h2l6.71,19.7,1.9,1.89Zm-3-16.65-3,8.78h5.88Z"/><path class="cls-1" d="M327.48,22.05l1.86-1.86V2.32L327.48.46h7l-1.86,1.86v18h5.16l2.47-2.47v4.24Z"/><path class="cls-1" d="M352.79,2.23h-3.63v18L351,22.05h-7l1.86-1.86v-18h-3.63L339.77,4.7V.46h15.49V4.7Z"/><path class="cls-1" d="M368.93,22.05l1.86-1.86V11.38h-8.15v8.81l1.86,1.86h-7l1.86-1.86V2.32L357.49.46h7l-1.86,1.86V9.61h8.15V2.32L368.93.46h7l-1.86,1.86V20.19l1.86,1.86Z"/></g></g></svg>