<svg xmlns="http://www.w3.org/2000/svg" viewBox="0 0 418.97 318.38"><title>Asset 4</title><g id="Layer_2" data-name="Layer 2"><g id="Layer_2-2" data-name="Layer 2"><path d="M16.07,97.88c-3.05,7.91,41.11,15.31,44.27,9.82S19.13,90,16.07,97.88Z"/><path d="M92.32,99.55c-.21,6.31-36.23,6.73-35.61-1.06S92.52,93.24,92.32,99.55Z"/><path d="M9.29,118.32c-1.06,4.74,33.81,4.55,36.55.53S12.13,105.58,9.29,118.32Z"/><path d="M.84,144.54c6.24,8.88,35.77-19.17,30-21.36S-5.4,135.66.84,144.54Z"/><path d="M79.28,82.31c-.9,6.53,46,3.92,45.21-1.86S80.75,71.58,79.28,82.31Z"/><path d="M120.29,64.42c-2.39,4,37,21.34,40.16,15.85S124.83,56.92,120.29,64.42Z"/><path d="M106.2,52.36c2.1,5.43-34.95,13.45-36.12,9.15S103.45,45.24,106.2,52.36Z"/><path d="M118.91,51.7c2.74-4-25.68-19-31.28-13.39S116.17,55.72,118.91,51.7Z"/><path d="M107.54,26.62c4.85-2.72,42.27,19.61,34.25,25.35S100.89,30.35,107.54,26.62Z"/><path d="M139.15,38c-5,3.66,27.16,19.43,29.91,15.41S146.22,32.78,139.15,38Z"/><path d="M166.75,34.94c-2.33,3.16,37.41,19.86,40.58,14.37S174.56,24.36,166.75,34.94Z"/><path d="M160,64.86c-5.49,2.07,26.65,29.63,32.77,25S173.42,59.81,160,64.86Z"/><path d="M185.85,63c5.7-3.21,29.91,26.55,24.21,29.75S180.14,66.17,185.85,63Z"/><path d="M208.74,32.71c4.43-3.17,37.09,23.76,32,30.32S200.71,38.46,208.74,32.71Z"/><path d="M187.76,6.06c-2.3,4,26.75,20.9,29.49,16.88S190.93.56,187.76,6.06Z"/><path d="M210.25.07c4.06-1.58,26.85,23.32,21.68,27.46S203.07,2.87,210.25.07Z"/><path d="M236.33,2.44c3.79-1,15.77,37,11.44,38.17S227.67,4.83,236.33,2.44Z"/><path d="M254.16,32.94c4.23-3.61,20.09,24.63,14.81,26.36S249.94,36.55,254.16,32.94Z"/><path d="M244.27,50.6c4.75-2.67,34.78,26.3,25.38,34.06S239.52,53.27,244.27,50.6Z"/><path d="M273.13,57.57c3.66-1.43,16.08,33.08,9.43,36.82S265.94,60.36,273.13,57.57Z"/><path d="M278,43.05c-4.52,3.24,19.79,39.67,24.54,37S286,37.3,278,43.05Z"/><path d="M317.31,110.41c5.92,1.63,8.31-43.07.07-42.16S311.4,108.78,317.31,110.41Z"/><path d="M331.76,106.07c6.86,1.09,9.64,41.65.87,41.62S324.89,105,331.76,106.07Z"/><path d="M350.27,123.7c6.42,2.41-11.27,42.25-16.34,37.67S342.35,120.72,350.27,123.7Z"/><path d="M362.9,318.38c2.23-.11-6.34-150.13-76.3-217.5C216.37,33.25,104.74,52.79,104.74,52.79s129-6.51,188.55,66.12C348,185.68,360.67,318.49,362.9,318.38Z"/><path d="M355.88,312c3.59.28-11-154.38-33.77-198.95A495.63,495.63,0,0,0,289,58.23s24.18,39.58,31.88,67C330.09,157.88,352.28,311.73,355.88,312Z"/><path d="M380.29,298.29c1.74-1-59.89-155.61-132.21-188.39-119.49-54.16-222.15,17-222.15,17s104.81-64.13,219.75-11C298.34,140.16,378.54,299.27,380.29,298.29Z"/><path d="M206.46,17.44s38.89,8,56.3,34.89S370.6,283.09,368,284.56s-95.53-217-109.68-232S206.46,17.44,206.46,17.44Z"/><path d="M176.16,39s75.05,15.19,97.92,43.64c13.41,16.69,100,180.09,100,180.09S280.64,89.82,263.57,78.26C230.24,55.69,176.16,39,176.16,39Z"/><path d="M213.9,153.19S289.35,148.65,319,179s84,116.84,77,120.76-56.86-99.28-83.88-114.61C258.29,154.63,213.9,153.19,213.9,153.19Z"/><path d="M107.39,80s73.81-1.32,101.53,7.19S405.15,256.8,407.32,264.75s-167-158.5-194-169.74C185.94,83.59,107.39,80,107.39,80Z"/><path d="M168.38,119.12s62.48,5,108.93,30.56C317.83,172,419,283.44,419,283.44s-85.58-85-130.61-118.17C243.91,132.5,168.38,119.12,168.38,119.12Z"/></g></g></svg>