<svg version="1.1" id="Layer_1" xmlns="http://www.w3.org/2000/svg" xmlns:xlink="http://www.w3.org/1999/xlink" x="0px" y="0px"
	 width="497.921px" height="43.952px" viewBox="0 0 497.921 43.952" enable-background="new 0 0 497.921 43.952" alt="Be Boundless"
	 xml:space="preserve" class="be-boundless-svg-whole">
<g>
	<path fill="#B6A47C" d="M18.457,43.836c-3.115,0-6.154-0.067-9.118-0.202C6.376,43.499,3.264,43.278,0,42.971L11.282,0.865
		c3.159-0.307,6.13-0.528,8.916-0.663C22.983,0.067,25.723,0,28.415,0c6.844,0,11.587,0.991,14.229,2.971
		c2.641,1.981,3.396,5.085,2.263,9.315c-1.236,4.615-4.492,7.576-9.764,8.882l-0.062,0.231c2.701,0.54,4.563,1.664,5.585,3.374
		c1.022,1.713,1.167,3.933,0.436,6.663c-1.133,4.23-3.538,7.354-7.212,9.372C30.215,42.826,25.07,43.836,18.457,43.836
		 M20.694,34.838c2.269,0,4.033-0.375,5.292-1.125c1.257-0.749,2.103-1.933,2.536-3.546c0.433-1.616,0.244-2.74-0.566-3.375
		c-0.811-0.635-2.448-0.951-4.909-0.951h-6.113l-2.349,8.767c0.22,0.039,0.449,0.077,0.69,0.115c0.24,0.039,0.568,0.068,0.987,0.087
		c0.416,0.02,0.972,0.028,1.664,0.028H20.694z M24.335,17.592c2.346,0,4.067-0.326,5.166-0.98c1.098-0.654,1.863-1.789,2.296-3.404
		c0.411-1.537,0.244-2.634-0.503-3.287c-0.748-0.654-2.257-0.981-4.525-0.981c-2.039,0-3.838,0.116-5.399,0.346l-2.226,8.306H24.335
		z" id="be-boundless-svg"/>
	<polygon fill="#B6A47C" points="55.888,0.577 89.342,0.577 86.684,10.497 66.207,10.497 64.476,16.957 82.762,16.957 
		80.103,26.878 61.818,26.878 60.102,33.281 81.156,33.281 78.482,43.26 44.451,43.26 	" id="be-boundless-svg"/>
	<path fill="#B6A47C" d="M116.8,43.836c-3.115,0-6.154-0.067-9.118-0.202c-2.963-0.135-6.075-0.355-9.339-0.663l11.282-42.106
		c3.159-0.307,6.13-0.528,8.916-0.663C121.326,0.067,124.066,0,126.758,0c6.844,0,11.587,0.991,14.229,2.971
		c2.641,1.981,3.396,5.085,2.263,9.315c-1.236,4.615-4.492,7.576-9.764,8.882l-0.062,0.231c2.701,0.54,4.564,1.664,5.586,3.374
		c1.022,1.713,1.167,3.933,0.435,6.663c-1.133,4.23-3.538,7.354-7.212,9.372C128.558,42.826,123.413,43.836,116.8,43.836
		 M119.037,34.838c2.269,0,4.033-0.375,5.292-1.125c1.257-0.749,2.103-1.933,2.536-3.546c0.433-1.616,0.244-2.74-0.566-3.375
		c-0.811-0.635-2.448-0.951-4.909-0.951h-6.113l-2.349,8.767c0.22,0.039,0.449,0.077,0.69,0.115c0.24,0.039,0.568,0.068,0.987,0.087
		c0.416,0.02,0.972,0.028,1.664,0.028H119.037z M122.678,17.592c2.346,0,4.067-0.326,5.166-0.98
		c1.098-0.654,1.863-1.789,2.296-3.404c0.412-1.537,0.244-2.634-0.503-3.287c-0.748-0.654-2.257-0.981-4.524-0.981
		c-2.039,0-3.839,0.116-5.4,0.346l-2.225,8.306H122.678z" id="be-boundless-svg"/>
	<path fill="#B6A47C" d="M162.827,43.836c-7.229,0-12.195-1.845-14.897-5.537c-2.703-3.691-3.09-9.132-1.164-16.322
		c1.948-7.268,5.262-12.748,9.942-16.439C161.389,1.845,167.344,0,174.573,0c7.191,0,12.144,1.855,14.861,5.565
		c2.715,3.712,3.106,9.181,1.169,16.411c-1.926,7.19-5.241,12.631-9.94,16.322C175.963,41.991,170.017,43.836,162.827,43.836
		 M165.578,33.569c1.73,0,3.197-0.163,4.4-0.491c1.203-0.325,2.244-0.912,3.124-1.758c0.88-0.847,1.646-2.02,2.299-3.519
		c0.652-1.5,1.297-3.441,1.936-5.825c0.618-2.307,0.986-4.221,1.105-5.74c0.118-1.518-0.031-2.72-0.447-3.604
		c-0.418-0.885-1.137-1.5-2.159-1.847c-1.024-0.346-2.361-0.518-4.014-0.518c-1.653,0-3.085,0.172-4.292,0.518
		c-1.209,0.347-2.257,0.962-3.147,1.847c-0.892,0.884-1.682,2.076-2.372,3.576c-0.691,1.499-1.35,3.422-1.978,5.768
		c-0.629,2.346-1.01,4.268-1.142,5.767c-0.133,1.5,0.012,2.683,0.434,3.548s1.146,1.462,2.174,1.787
		C162.526,33.406,163.886,33.569,165.578,33.569" id="be-boundless-svg"/>
	<path fill="#B6A47C" d="M211.855,43.836c-3.923,0-7.107-0.384-9.555-1.152c-2.447-0.77-4.275-1.913-5.483-3.433
		c-1.207-1.521-1.852-3.422-1.93-5.71c-0.079-2.288,0.293-4.971,1.117-8.047l6.707-25.033h12.979l-6.815,25.438
		c-0.65,2.421-0.546,4.296,0.309,5.622c0.857,1.327,2.668,1.99,5.438,1.99c2.805,0,4.983-0.663,6.531-1.99
		c1.547-1.326,2.645-3.201,3.295-5.622l6.815-25.438h12.979l-6.708,25.033c-0.824,3.076-1.889,5.759-3.195,8.047
		c-1.304,2.288-2.971,4.201-4.998,5.738c-2.027,1.539-4.468,2.683-7.322,3.433C219.167,43.461,215.777,43.836,211.855,43.836" id="be-boundless-svg"/>
	<polygon fill="#B6A47C" points="252.286,0.577 262.494,0.577 272.972,19.38 275.15,24.167 275.728,24.167 282.049,0.577 
		293.354,0.577 281.916,43.26 271.707,43.26 261.652,25.032 259.067,19.612 258.49,19.612 252.153,43.26 240.849,43.26 	" id="be-boundless-svg"/>
	<path fill="#B6A47C" d="M303.723,43.895c-2.346,0-4.711-0.068-7.099-0.202c-2.386-0.136-4.452-0.317-6.197-0.548l11.391-42.51
		c3.742-0.192,6.898-0.347,9.467-0.462C313.853,0.058,316.099,0,318.021,0c4.385,0,8.029,0.424,10.938,1.269
		c2.906,0.847,5.133,2.154,6.677,3.922c1.546,1.769,2.425,4.048,2.64,6.836c0.214,2.788-0.194,6.104-1.225,9.95
		c-1.062,3.96-2.463,7.324-4.203,10.093c-1.744,2.769-3.943,5.028-6.604,6.777c-2.661,1.751-5.839,3.028-9.536,3.837
		C313.011,43.49,308.683,43.895,303.723,43.895 M311.707,33.686c1.729,0,3.219-0.174,4.466-0.521
		c1.246-0.345,2.336-0.97,3.271-1.873c0.934-0.902,1.736-2.105,2.407-3.605s1.316-3.402,1.935-5.709
		c0.607-2.27,0.959-4.154,1.053-5.654c0.094-1.499-0.112-2.701-0.62-3.605c-0.508-0.903-1.325-1.547-2.453-1.932
		c-1.128-0.384-2.614-0.576-4.46-0.576c-0.654,0-1.37,0.019-2.148,0.057c-0.781,0.039-1.796,0.097-3.047,0.173l-6.12,22.842
		c0.844,0.154,1.767,0.26,2.771,0.317C309.763,33.656,310.745,33.686,311.707,33.686" id="be-boundless-svg"/>
	<polygon fill="#B6A47C" points="349.533,0.577 362.51,0.577 353.731,33.339 371.267,33.339 368.608,43.26 338.096,43.26 	" id="be-boundless-svg"/>
	<polygon fill="#B6A47C" points="385.756,0.577 419.209,0.577 416.551,10.497 396.074,10.497 394.344,16.957 412.629,16.957 
		409.971,26.878 391.686,26.878 389.97,33.281 411.022,33.281 408.35,43.26 374.318,43.26 	" id="be-boundless-svg"/>
	<path fill="#B6A47C" d="M430.37,43.952c-1.231,0-2.537-0.039-3.92-0.116c-1.384-0.077-2.792-0.202-4.227-0.375
		c-1.434-0.172-2.853-0.364-4.257-0.576c-1.405-0.211-2.721-0.471-3.944-0.779l2.781-10.382c2.931,0.691,5.614,1.221,8.055,1.586
		c2.439,0.366,4.756,0.548,6.947,0.548c2.308,0,3.988-0.211,5.043-0.636c1.057-0.422,1.719-1.133,1.987-2.133
		c0.299-1.113-0.012-1.933-0.931-2.451s-2.472-0.933-4.657-1.24c-2.329-0.346-4.337-0.855-6.021-1.528
		c-1.687-0.673-3.011-1.576-3.976-2.711c-0.965-1.135-1.545-2.517-1.742-4.152c-0.197-1.635,0.01-3.586,0.617-5.856
		c1.113-4.153,3.583-7.383,7.412-9.69C433.368,1.153,438.168,0,443.936,0c0.998,0,1.982,0.028,2.947,0.086
		c0.965,0.057,1.996,0.155,3.095,0.288c1.098,0.136,2.282,0.309,3.552,0.519c1.271,0.212,2.705,0.491,4.305,0.837l-2.751,10.267
		c-0.919-0.308-1.903-0.577-2.956-0.808c-1.054-0.231-2.125-0.433-3.212-0.605c-1.089-0.173-2.167-0.308-3.237-0.404
		c-1.07-0.095-2.066-0.145-2.989-0.145c-4.115,0-6.425,0.944-6.929,2.827c-0.33,1.231-0.007,2.173,0.973,2.827
		c0.979,0.654,2.68,1.192,5.104,1.615c2.309,0.423,4.257,0.971,5.847,1.643c1.587,0.674,2.833,1.51,3.74,2.509
		c0.904,1.001,1.457,2.202,1.658,3.605c0.2,1.404,0.048,3.048-0.457,4.932C450.132,39.3,442.714,43.952,430.37,43.952" id="be-boundless-svg"/>
	<path fill="#B6A47C" d="M470.457,43.952c-1.231,0-2.537-0.039-3.92-0.116c-1.384-0.077-2.791-0.202-4.227-0.375
		c-1.434-0.172-2.853-0.364-4.257-0.576c-1.405-0.211-2.721-0.471-3.944-0.779l2.781-10.382c2.93,0.691,5.614,1.221,8.055,1.586
		c2.439,0.366,4.756,0.548,6.948,0.548c2.307,0,3.987-0.211,5.042-0.636c1.057-0.422,1.719-1.133,1.986-2.133
		c0.299-1.113-0.011-1.933-0.93-2.451c-0.918-0.519-2.471-0.933-4.656-1.24c-2.33-0.346-4.338-0.855-6.021-1.528
		c-1.687-0.673-3.011-1.576-3.975-2.711c-0.966-1.135-1.547-2.517-1.743-4.152c-0.196-1.635,0.01-3.586,0.618-5.856
		c1.112-4.153,3.582-7.383,7.411-9.69C473.455,1.153,478.255,0,484.021,0c1,0,1.983,0.028,2.948,0.086
		c0.965,0.057,1.996,0.155,3.095,0.288c1.098,0.136,2.282,0.309,3.553,0.519c1.27,0.212,2.704,0.491,4.304,0.837l-2.751,10.267
		c-0.919-0.308-1.903-0.577-2.957-0.808c-1.053-0.231-2.124-0.433-3.211-0.605c-1.089-0.173-2.167-0.308-3.238-0.404
		c-1.07-0.095-2.065-0.145-2.988-0.145c-4.115,0-6.425,0.944-6.929,2.827c-0.33,1.231-0.007,2.173,0.973,2.827
		c0.978,0.654,2.68,1.192,5.104,1.615c2.309,0.423,4.257,0.971,5.846,1.643c1.588,0.674,2.836,1.51,3.74,2.509
		c0.905,1.001,1.459,2.202,1.659,3.605c0.2,1.404,0.048,3.048-0.457,4.932C490.219,39.3,482.801,43.952,470.457,43.952" id="be-boundless-svg"/>
</g>
</svg>
