<svg id="bfd2dc76-008d-4f3b-a607-e09b9df57e0c" data-name="Layer 1" xmlns="http://www.w3.org/2000/svg" xmlns:xlink="http://www.w3.org/1999/xlink" viewBox="0 0 612 130"><defs><clipPath id="b61722b0-1d14-4e6f-b43a-9279ef607525"><rect y="-0.67" width="661.91" height="131.33" style="fill:none"/></clipPath></defs><title>boundless_logo_left_transparent</title><g style="clip-path:url(#b61722b0-1d14-4e6f-b43a-9279ef607525)"><path d="M467.93,84.54V75l6.63,10.66h.66V74l1.1-1.11H473l1.1,1.11v8.1l-5.75-9.21h-2.63L466.78,74V84.54l-1.07,1.1H469Zm-9.86.41c-2.55,0-3.44-3-3.44-5.69s.89-5.68,3.44-5.68,3.51,3,3.51,5.68-.94,5.64-3.5,5.64M453,79.26c0,3.28,1.81,6.68,5.09,6.68s5.12-3.42,5.12-6.66-1.83-6.66-5.12-6.66S453,76,453,79.25m-5.79,5.43V73.89h2.42L451,75.25V72.94h-9v2.31l1.39-1.36h2.4V84.68l-1,1h3.42l-1-1.07v.06Zm-9.44-4.83V84a2.75,2.75,0,0,1-2.1.91c-2.83,0-4.26-2.85-4.26-5.6s1.79-5.6,4.26-5.6a1.88,1.88,0,0,1,1.58.61l1.41,1.39V73.45a5.72,5.72,0,0,0-3-.74c-3.48,0-5.92,3.12-5.92,6.56s2.48,6.57,5.88,6.56a5.56,5.56,0,0,0,3.51-.94v-5l1-1h-3.42Zm-18.92,4.69V75l6.71,10.66h.58V74l1.1-1.11H423.9L425,74v8.1l-5.76-9.21h-2.64L417.7,74V84.54l-1.09,1.1h3.33Zm-9.15-11.66,1,1V84.62l-1,1h3.44l-1-1V73.9l1-1Zm-11.33,6.37h5.37v5.38l-1,1h3.44l-1-1V73.91l1-1h-3.44l1,1V78.3h-5.37V73.9l1-1H396l1,1V84.62l-1,1h3.42l-1-1V79.24Zm-5.75,2.84a2.81,2.81,0,0,0-1.19-2.44l-2.59-1.88a3,3,0,0,1-1.41-2.18,1.8,1.8,0,0,1,1.84-1.82,2.63,2.63,0,0,1,.79.15l1.13,1.21,1.18-1.77-2.53-.47a1.77,1.77,0,0,0-.6-.07A3.2,3.2,0,0,0,386,76a3.49,3.49,0,0,0,1.7,2.92l2.61,1.93a2.24,2.24,0,0,1-2.1,3.93L387,83.3l-1.11,2,2.45.47a2.79,2.79,0,0,0,.79.09,3.75,3.75,0,0,0,3.46-3.82m-14.24-6.37L380.09,81h-3.56Zm-3.07,8.94.93-2.71h4.21l.89,2.71-1,1h3.61l-1-1-4-11.72h-.64l-4,11.72-1,1h3.06Zm-13.56,1,2.92-9.23,2.83,9.23h.65l3.7-11.74,1-1h-3.07l1,1-2.7,8.82-2.62-8.82,1-1h-3.61l1,1,.26.84-2.44,8-2.62-8.82,1-1h-3.61l1,1,3.59,11.74ZM342.8,78l-.48.47.05.18h1.49c-.23,1.62-.45,3-.79,5.32-.48,3.36-.9,4.54-1.23,4.83a.65.65,0,0,1-.45.16,2.32,2.32,0,0,1-.79-.27.43.43,0,0,0-.51.13,1.1,1.1,0,0,0-.3.61c0,.34.45.56.79.56a3,3,0,0,0,2-1.24c.61-.75,1.43-2.49,2.13-6.55.13-.76.27-1.51.58-3.49l1.83-.18.39-.46h-2.11c.54-3.32,1-4.33,1.76-4.33a1.79,1.79,0,0,1,1.35.59.39.39,0,0,0,.5,0,1,1,0,0,0,.36-.66c0-.36-.46-.76-1.07-.76a4.07,4.07,0,0,0-2.89,1.47A8.14,8.14,0,0,0,344,78H342.8v0Zm-8.08,4.71c0-2.66,1.34-4.1,1.9-4.33a1.7,1.7,0,0,1,.59-.14c.9,0,1.47.67,1.47,2.06,0,2.34-1.18,4.46-1.94,4.75a1.59,1.59,0,0,1-.55.13c-1.06,0-1.52-1.17-1.52-2.41m3.12-5.2a4.27,4.27,0,0,0-1.94.64,5.64,5.64,0,0,0-2.59,4.92c0,1.25.57,2.72,2.26,2.72a4.59,4.59,0,0,0,2.68-1.2,6.49,6.49,0,0,0,1.89-4.53c0-1.54-.79-2.55-2.26-2.55M317,73.9l3.22,5.81v4.91l-1,1h3.44l-1-1V79.71l3.28-5.79,1.06-1H322.8l1,1-2.68,4.78-2.55-4.78,1-1h-3.61Zm-6.73,10.72V73.83h2.42L314,75.19V72.88h-9v2.31l1.39-1.36h2.39V84.62l-1,1h3.42ZM298.68,72.88l1,1V84.62l-1,1h3.44l-1-1V73.9l1-1ZM295,82.09a2.83,2.83,0,0,0-1.19-2.44l-2.6-1.88a3,3,0,0,1-1.4-2.18,1.8,1.8,0,0,1,1.83-1.82,2.8,2.8,0,0,1,.8.15l1.12,1.21,1.19-1.77-2.53-.47a1.77,1.77,0,0,0-.6-.07A3.21,3.21,0,0,0,288.36,76a3.49,3.49,0,0,0,1.7,2.92l2.61,1.93a2.23,2.23,0,0,1-2.09,3.93l-1.22-1.43-1.1,2,2.44.47a2.89,2.89,0,0,0,.8.09A3.75,3.75,0,0,0,295,82.08M278.6,73.83h1.55a2.52,2.52,0,0,1,2.49,2.55,2.4,2.4,0,0,1-2.44,2.36h-1.55V73.83Zm0,10.79V79.69h1.92l3.09,6h2.12l-1-1-2.86-5.23a3.34,3.34,0,0,0,2.4-3c0-2.16-2-3.52-4.13-3.52h-4l1,1V84.62l-1,1h3.42Zm-5.73,1V83.31l-1.36,1.38h-3.87V79.33h2.87l1,1v-3l-1,1h-2.87V73.84h3.87l1.36,1.36V72.88h-7.63l1,1V84.62l-1,1ZM256.33,72.88h-3.61l1,1,3.59,11.74H258l3.7-11.74,1-1h-3.07l1,1L258,82.7l-2.61-8.82Zm-9.9,0,1,1V84.62l-1,1h3.43l-1-1V73.9l1-1ZM234.55,84.54V75l6.85,10.66h.45V74l1.1-1.11h-3.33l1.1,1.11v8.1L235,72.88h-2.64L233.41,74V84.54l-1.08,1.1h3.33ZM220.2,82.19a3.76,3.76,0,0,0,4,3.69,4,4,0,0,0,4.13-3.69V74l1.08-1.1H226l1.1,1.1v8.24a2.62,2.62,0,0,1-2.64,2.64,2.75,2.75,0,0,1-2.81-2.64V74l1.1-1.07h-3.7L220.2,74v8.2Z" style="fill:#fff"/></g><g style="clip-path:url(#b61722b0-1d14-4e6f-b43a-9279ef607525)"><path d="M224.7,59.27c-4.44,0-7.3-4.86-7.3-9.88s2.93-9.88,7.3-9.88A7.74,7.74,0,0,1,229,40.65v3.93L226.64,42a2.41,2.41,0,0,0-2-.92c-3.27,0-4.15,4.61-4.15,8.34s1,8.35,4.18,8.37a2.41,2.41,0,0,0,2-.93L229,54.18v4c-.84.61-1.88,1.12-4.37,1.13Z" style="fill:#fff"/></g><g style="clip-path:url(#b61722b0-1d14-4e6f-b43a-9279ef607525)"><path d="M239.54,59.41c-4.53,0-7.37-5-7.37-10s2.84-10,7.37-10,7.35,4.94,7.35,10-2.81,10-7.31,10Zm0-18.46c-3.27,0-4.22,4.64-4.22,8.44s1,8.48,4.18,8.44,4.22-4.64,4.22-8.44-.9-8.47-4.14-8.44Z" style="fill:#fff"/></g><g style="clip-path:url(#b61722b0-1d14-4e6f-b43a-9279ef607525)"><polygon points="250.04 59 251.52 57.34 251.52 41.44 250.04 39.78 255.62 39.78 254.14 41.44 254.14 57.42 258.24 57.42 260.2 55.23 260.2 59 250.04 59 250.04 59" style="fill:#fff"/></g><g style="clip-path:url(#b61722b0-1d14-4e6f-b43a-9279ef607525)"><polygon points="262.65 59 264.13 57.34 264.13 41.44 262.65 39.78 268.23 39.78 266.75 41.44 266.75 57.42 270.85 57.42 272.81 55.23 272.81 59 262.65 59 262.65 59" style="fill:#fff"/></g><g style="clip-path:url(#b61722b0-1d14-4e6f-b43a-9279ef607525)"><polygon points="275.26 59 276.74 57.34 276.74 41.44 275.26 39.78 286.03 39.78 286.03 43.55 284.06 41.36 279.36 41.36 279.36 47.92 282.73 47.92 284.21 46.27 284.21 51.15 282.73 49.5 279.36 49.5 279.36 57.42 284.06 57.42 286.03 55.23 286.03 59 275.26 59" style="fill:#fff"/></g><g style="clip-path:url(#b61722b0-1d14-4e6f-b43a-9279ef607525)"><path d="M302.62,50.26v7.6a7.94,7.94,0,0,1-5.17,1.41c-4.66,0-8.3-4.53-8.3-9.88s3.76-9.88,8.42-9.88a7.91,7.91,0,0,1,4.3,1.11v4L299.51,42a2.45,2.45,0,0,0-2-.92c-3.3,0-5.24,4.37-5.24,8.36s1.94,8.35,5.2,8.36a3.31,3.31,0,0,0,2.42-1V50.26l-1.48-1.66H304Z" style="fill:#fff"/></g><g style="clip-path:url(#b61722b0-1d14-4e6f-b43a-9279ef607525)"><polygon points="306.4 59 307.88 57.34 307.88 41.44 306.4 39.78 317.17 39.78 317.17 43.55 315.2 41.36 310.5 41.36 310.5 47.92 313.87 47.92 315.35 46.27 315.35 51.15 313.87 49.5 310.5 49.5 310.5 57.42 315.2 57.42 317.17 55.23 317.17 59 306.4 59" style="fill:#fff"/></g><g style="clip-path:url(#b61722b0-1d14-4e6f-b43a-9279ef607525)"><path d="M334.77,59.41c-4.54,0-7.37-5-7.37-10s2.84-10,7.37-10,7.38,4.94,7.35,10-2.81,10-7.38,10Zm0-18.46c-3.27,0-4.22,4.64-4.22,8.44s.95,8.48,4.18,8.48S339,53.23,339,49.42s-.9-8.5-4.21-8.47Z" style="fill:#fff"/></g><g style="clip-path:url(#b61722b0-1d14-4e6f-b43a-9279ef607525)"><polygon points="354.08 41.35 349.37 41.35 349.37 47.92 352.74 47.92 354.22 46.27 354.22 51.15 352.74 49.5 349.37 49.5 349.37 57.34 350.85 59 345.27 59 346.75 57.34 346.75 41.44 345.27 39.78 356.04 39.78 356.04 43.55 354.08 41.35" style="fill:#fff"/></g><g style="clip-path:url(#b61722b0-1d14-4e6f-b43a-9279ef607525)"><polygon points="375.59 41.35 372.7 41.35 372.7 57.34 374.18 59 368.6 59 370.08 57.34 370.08 41.35 367.19 41.35 365.23 43.55 365.23 39.78 377.55 39.78 377.55 43.55 375.59 41.35" style="fill:#fff"/></g><g style="clip-path:url(#b61722b0-1d14-4e6f-b43a-9279ef607525)"><polygon points="389.19 59 390.67 57.34 390.67 49.5 384.2 49.5 384.2 57.34 385.68 59 380.1 59 381.57 57.34 381.57 41.44 380.1 39.78 385.68 39.78 384.2 41.44 384.2 47.92 390.67 47.92 390.67 41.44 389.19 39.78 394.77 39.78 393.29 41.44 393.29 57.34 394.77 59 389.19 59" style="fill:#fff"/></g><g style="clip-path:url(#b61722b0-1d14-4e6f-b43a-9279ef607525)"><polygon points="397.68 59 399.15 57.34 399.15 41.44 397.68 39.78 408.44 39.78 408.44 43.55 406.48 41.36 401.77 41.36 401.77 47.92 405.15 47.92 406.62 46.27 406.62 51.15 405.15 49.5 401.77 49.5 401.77 57.42 406.48 57.42 408.44 55.23 408.44 59 397.68 59" style="fill:#fff"/></g><g style="clip-path:url(#b61722b0-1d14-4e6f-b43a-9279ef607525)"><polygon points="418.46 59 419.94 57.34 419.94 41.44 418.46 39.78 429.23 39.78 429.23 43.55 427.27 41.36 422.56 41.36 422.56 47.92 425.93 47.92 427.41 46.27 427.41 51.15 425.93 49.5 422.56 49.5 422.56 57.42 427.27 57.42 429.23 55.23 429.23 59 418.46 59" style="fill:#fff"/></g><g style="clip-path:url(#b61722b0-1d14-4e6f-b43a-9279ef607525)"><polygon points="445.21 41.44 445.21 60.57 435.27 43.28 435.27 57.34 436.75 59 432.14 59 433.62 57.34 433.62 41.44 432.14 39.78 436.43 39.78 443.56 52.3 443.56 41.44 442.08 39.78 446.69 39.78 445.21 41.44" style="fill:#fff"/></g><g style="clip-path:url(#b61722b0-1d14-4e6f-b43a-9279ef607525)"><polygon points="461.17 41.46 456.2 59 454.6 59 449.74 41.46 448.24 39.78 453.99 39.78 452.53 41.41 455.98 54.31 459.52 41.44 458.06 39.82 462.67 39.82 461.17 41.46" style="fill:#fff"/></g><g style="clip-path:url(#b61722b0-1d14-4e6f-b43a-9279ef607525)"><polygon points="464.63 59 466.11 57.34 466.11 41.44 464.63 39.78 470.21 39.78 468.73 41.44 468.73 57.34 470.21 59 464.63 59" style="fill:#fff"/></g><g style="clip-path:url(#b61722b0-1d14-4e6f-b43a-9279ef607525)"><path d="M483.84,59l-4.1-8.82h-2.28v7.16L478.94,59h-5.58l1.48-1.66V41.44l-1.48-1.66h6.19c2.91,0,5.88,1.65,5.88,5.27a4.9,4.9,0,0,1-3.21,4.56L486,57.34,487.51,59Zm-4.29-17.64h-2.09V48.6h2.09c1.65,0,2.94-1.41,2.94-3.55s-1.27-3.75-3-3.7Z" style="fill:#fff"/></g><g style="clip-path:url(#b61722b0-1d14-4e6f-b43a-9279ef607525)"><path d="M496.84,59.41c-4.54,0-7.37-5-7.37-10s2.83-10,7.37-10,7.37,4.94,7.35,10-2.81,10-7.37,10Zm0-18.46c-3.27,0-4.22,4.64-4.22,8.44s.95,8.48,4.18,8.48S501,53.23,501,49.42s-.9-8.5-4.2-8.47Z" style="fill:#fff"/></g><g style="clip-path:url(#b61722b0-1d14-4e6f-b43a-9279ef607525)"><polygon points="520.41 41.44 520.41 60.57 510.46 43.28 510.46 57.34 511.94 59 507.34 59 508.82 57.34 508.82 41.44 507.34 39.78 511.63 39.78 518.77 52.3 518.77 41.44 517.28 39.78 521.89 39.78 520.41 41.44" style="fill:#fff"/></g><g style="clip-path:url(#b61722b0-1d14-4e6f-b43a-9279ef607525)"><polygon points="537.05 59 538.53 57.34 538.53 42.98 533.17 53.65 527.81 42.98 527.81 57.34 529.29 59 524.68 59 526.16 57.34 526.16 41.44 524.68 39.78 529.24 39.78 533.92 49.12 538.58 39.78 542.63 39.78 541.15 41.44 541.15 57.34 542.63 59 537.05 59" style="fill:#fff"/></g><g style="clip-path:url(#b61722b0-1d14-4e6f-b43a-9279ef607525)"><polygon points="545.53 59 547.01 57.34 547.01 41.44 545.53 39.78 556.3 39.78 556.3 43.55 554.34 41.36 549.63 41.36 549.63 47.92 553 47.92 554.48 46.27 554.48 51.15 553 49.5 549.63 49.5 549.63 57.42 554.34 57.42 556.3 55.23 556.3 59 545.53 59" style="fill:#fff"/></g><g style="clip-path:url(#b61722b0-1d14-4e6f-b43a-9279ef607525)"><polygon points="572.28 41.44 572.28 60.57 562.34 43.28 562.34 57.34 563.82 59 559.21 59 560.69 57.34 560.69 41.44 559.21 39.78 563.5 39.78 570.63 52.3 570.63 41.44 569.16 39.78 573.76 39.78 572.28 41.44" style="fill:#fff"/></g><g style="clip-path:url(#b61722b0-1d14-4e6f-b43a-9279ef607525)"><polygon points="586.54 41.35 583.66 41.35 583.66 57.34 585.14 59 579.56 59 581.04 57.34 581.04 41.35 578.15 41.35 576.18 43.55 576.18 39.78 588.51 39.78 588.51 43.55 586.54 41.35" style="fill:#fff"/></g><g style="clip-path:url(#b61722b0-1d14-4e6f-b43a-9279ef607525)"><path d="M147.53,18.32V39.45h14.85L145.8,101.14s-20.28-81.67-20.57-82.82H103.78c-.31,1.13-22.26,82.83-22.26,82.83L66.26,39.45H81.72V18.32h-62V39.45H33.44S55.78,129.31,56,130.34H92c.42-1,14.62-55.33,14.62-55.29s13.57,54.05,13.8,55.29H156.3c.29-1.13,23.91-90.89,23.91-90.89h13.62V18.32Z" style="fill:#fff"/></g></svg>