<?xml version="1.0" encoding="utf-8"?>
<!-- Generator: Adobe Illustrator 16.0.0, SVG Export Plug-In . SVG Version: 6.00 Build 0)  -->
<!DOCTYPE svg PUBLIC "-//W3C//DTD SVG 1.1//EN" "http://www.w3.org/Graphics/SVG/1.1/DTD/svg11.dtd">
<svg version="1.1" id="Layer_1" xmlns="http://www.w3.org/2000/svg" xmlns:xlink="http://www.w3.org/1999/xlink" x="0px" y="0px"
	  viewBox="-52 -7.069 504 100" enable-background="new -52 -7.069 504 100" xml:space="preserve">
<polyline fill="#4B2E83" points="-52,-7.069 452,-7.069 425.938,92.931 -52,92.931 -52,-7.069 "/>
<path fill="#FFFFFF" d="M45.92,24.65v12.878h9.047L44.865,75.131c0,0-12.364-49.778-12.54-50.48H19.249
	C19.062,25.336,5.684,75.135,5.684,75.135l-9.307-37.606h9.425V24.65H-32v12.878h8.375c0,0,13.618,54.772,13.777,55.403h21.919
	c0.257-0.624,8.908-33.727,8.908-33.706c0,0.021,8.272,32.948,8.415,33.706h21.869c0.179-0.69,14.572-55.405,14.572-55.405h8.305
	V24.648L45.92,24.65L45.92,24.65z"/>
<g>
	<path fill="#FFFFFF" d="M298.112,63.56v-7.768l5.393,8.664h0.531v-9.472l0.896-0.896h-2.707l0.897,0.896v6.589l-4.672-7.485h-2.143
		l0.876,0.896v8.575l-0.876,0.896h2.703L298.112,63.56z M290.104,63.896c-2.075,0-2.795-2.478-2.795-4.623s0.72-4.621,2.795-4.621
		c2.092,0,2.85,2.481,2.85,4.621c0,2.139-0.758,4.586-2.843,4.586 M285.957,59.273c0,2.666,1.471,5.425,4.136,5.425
		c2.672,0,4.165-2.776,4.165-5.411c0-2.636-1.493-5.413-4.165-5.413c-2.645-0.034-4.121,2.724-4.121,5.392 M281.269,63.677v-8.766
		h1.966l1.109,1.104v-1.879h-7.294v1.879l1.126-1.104h1.951v8.766l-0.811,0.825h2.777l-0.825-0.872V63.677L281.269,63.677z
		 M273.593,59.747v3.34c-0.247,0.246-0.739,0.74-1.706,0.74c-2.3,0-3.461-2.321-3.461-4.552c0-2.25,1.459-4.551,3.461-4.551
		c0.53,0,0.919,0.092,1.287,0.49l1.143,1.128v-1.795c-0.614-0.316-1.23-0.597-2.407-0.597c-2.83,0-4.815,2.531-4.815,5.333
		c0,2.756,2.021,5.333,4.778,5.324c1.601,0,2.286-0.389,2.851-0.757v-4.093l0.807-0.825h-2.776L273.593,59.747z M258.22,63.56
		v-7.768l5.452,8.668l0.471-0.004v-9.472l0.896-0.896h-2.706l0.896,0.896v6.589l-4.674-7.485h-2.145l0.881,0.896v8.575l-0.881,0.896
		h2.705L258.22,63.56z M250.786,54.09l0.827,0.825v8.717l-0.827,0.825h2.794l-0.825-0.825v-8.717l0.825-0.825H250.786z
		 M241.577,59.264h4.36v4.374l-0.828,0.826h2.795l-0.826-0.826v-8.716l0.826-0.825h-2.795l0.828,0.825v3.569h-4.36v-3.578
		l0.828-0.825h-2.778l0.81,0.825v8.714l-0.81,0.828h2.778l-0.828-0.828v-4.372V59.264z M236.905,61.575
		c0-1.019-0.476-1.651-0.969-1.985l-2.105-1.527c-0.758-0.546-1.145-1.249-1.145-1.775c0-1.09,0.932-1.474,1.493-1.474
		c0.298,0,0.552,0.092,0.644,0.122l0.913,0.982l0.967-1.439l-2.056-0.387c-0.14-0.035-0.228-0.054-0.491-0.054
		c-1.811,0-2.636,1.548-2.636,2.547c0,0.828,0.367,1.655,1.38,2.372l2.125,1.562c0.58,0.367,0.736,1.011,0.736,1.511
		c0,0.879-0.544,1.829-1.724,1.829c-0.278,0-0.527-0.054-0.721-0.141l-0.982-1.162l-0.898,1.654l1.986,0.387
		c0,0,0.367,0.092,0.644,0.068c1.205-0.069,2.812-1.083,2.812-3.104 M225.305,56.391l1.424,4.287h-2.898L225.305,56.391z
		 M222.81,63.649l0.754-2.197h3.427l0.722,2.197l-0.81,0.808h2.936l-0.825-0.844l-3.235-9.523h-0.527l-3.284,9.523l-0.844,0.844
		h2.494L222.81,63.649z M211.787,64.457l2.371-7.502l2.303,7.502h0.527l3.005-9.542l0.845-0.825h-2.497l0.809,0.808l-2.194,7.171
		l-2.127-7.171l0.809-0.808h-2.935l0.828,0.825l0.209,0.685l-1.986,6.468l-2.125-7.171l0.812-0.808h-2.936l0.841,0.825l2.918,9.542
		L211.787,64.457L211.787,64.457z M196.421,58.243l-0.395,0.377l0.044,0.147h1.211c-0.191,1.313-0.365,2.452-0.642,4.321
		c-0.395,2.73-0.73,3.694-1.006,3.927c-0.088,0.088-0.234,0.132-0.365,0.132c-0.177,0-0.453-0.132-0.642-0.218
		c-0.176-0.09-0.323,0.015-0.408,0.102c-0.117,0.131-0.249,0.334-0.249,0.496c0,0.275,0.367,0.459,0.644,0.459
		c0.277,0,0.979-0.234,1.608-1.008c0.495-0.612,1.167-2.028,1.735-5.328c0.103-0.614,0.218-1.228,0.466-2.833l1.488-0.146
		l0.321-0.379h-1.723c0.439-2.7,0.803-3.52,1.43-3.52c0.439,0,0.83,0.184,1.105,0.484c0.103,0.092,0.276,0.092,0.405-0.015
		c0.118-0.104,0.294-0.337,0.294-0.541c0.014-0.293-0.381-0.613-0.877-0.613c-0.845,0-1.736,0.495-2.349,1.195
		c-0.571,0.688-0.95,1.796-1.154,2.979h-0.944L196.421,58.243L196.421,58.243z M189.851,62.067c0-2.162,1.094-3.329,1.548-3.52
		c0.131-0.057,0.334-0.116,0.481-0.116c0.729,0,1.194,0.55,1.194,1.681c0.031,1.896-0.962,3.622-1.576,3.861
		c-0.116,0.046-0.306,0.103-0.452,0.103c-0.858-0.031-1.237-0.951-1.237-1.962 M192.348,57.886c-0.379,0-0.978,0.175-1.577,0.525
		c-1.009,0.598-2.103,1.953-2.103,4c0,1.011,0.46,2.206,1.839,2.206c0.642,0,1.562-0.424,2.176-0.978
		c0.961-0.876,1.532-2.382,1.532-3.681c0.001-1.248-0.637-2.073-1.832-2.073 M175.432,54.915l2.619,4.728v3.989l-0.825,0.825h2.793
		l-0.826-0.825v-3.989l2.672-4.71l0.862-0.843h-2.565l0.809,0.828l-2.18,3.886l-2.071-3.886l0.807-0.806h-2.935L175.432,54.915z
		 M169.967,63.63v-8.766h1.969l1.106,1.105v-1.88h-7.294v1.88l1.125-1.105h1.949v8.766l-0.807,0.827h2.778L169.967,63.63z
		 M160.564,54.09l0.828,0.825v8.717l-0.828,0.825h2.796l-0.826-0.825v-8.717l0.826-0.825H160.564z M157.561,61.575
		c0-1.019-0.476-1.651-0.966-1.985l-2.109-1.527c-0.757-0.546-1.141-1.249-1.141-1.775c0-1.09,0.931-1.474,1.492-1.474
		c0.299,0,0.552,0.092,0.644,0.122l0.914,0.982l0.966-1.439l-2.055-0.387c-0.141-0.035-0.229-0.054-0.492-0.054
		c-1.81,0-2.636,1.548-2.636,2.547c0,0.828,0.368,1.655,1.379,2.372l2.126,1.562c0.58,0.367,0.736,1.011,0.736,1.511
		c0,0.879-0.545,1.829-1.722,1.829c-0.281,0-0.527-0.054-0.719-0.141l-0.985-1.162l-0.898,1.654l1.986,0.387
		c0,0,0.368,0.092,0.644,0.068c1.203-0.069,2.817-1.083,2.817-3.104 M144.24,54.863h1.266c1.107,0,2.022,0.919,2.022,2.07
		c0,1.073-0.895,1.918-1.983,1.918h-1.267v-3.988H144.24z M144.24,63.63v-4.003h1.564l2.511,4.831h1.723l-0.81-0.825l-2.318-4.252
		c1.159-0.354,1.951-1.442,1.951-2.425c0-1.76-1.634-2.864-3.356-2.864h-3.217l0.81,0.824v8.714l-0.81,0.83h2.777L144.24,63.63z
		 M139.584,64.457v-1.897l-1.108,1.124h-3.145v-4.359h2.336l0.826,0.827v-2.425l-0.826,0.825h-2.336v-3.689h3.145l1.108,1.107
		v-1.881h-6.204l0.809,0.826v8.715l-0.809,0.826L139.584,64.457L139.584,64.457z M126.142,54.09h-2.934l0.843,0.825l2.918,9.542
		h0.527l3.005-9.542l0.844-0.825h-2.494l0.808,0.808l-2.198,7.171l-2.126-7.171L126.142,54.09z M118.094,54.09l0.826,0.825v8.717
		l-0.826,0.825h2.792l-0.825-0.825v-8.717l0.825-0.825H118.094z M108.445,63.56v-7.768l5.563,8.664h0.362v-9.472l0.894-0.896h-2.706
		l0.899,0.896v6.589l-4.675-7.485h-2.144l0.877,0.896v8.575l-0.877,0.896h2.704L108.445,63.56z M96.779,61.653
		c0,1.747,1.471,3.035,3.218,3.004c1.685,0,3.354-1.245,3.354-3.004v-6.696l0.879-0.895h-2.705l0.895,0.895v6.696
		c0,1.195-0.947,2.144-2.145,2.144c-1.211,0-2.283-0.93-2.283-2.144v-6.696l0.896-0.868H95.88l0.897,0.896v6.695L96.779,61.653z"/>
</g>
<g>
	<path fill="#FFFFFF" d="M100.435,43.026c-3.606,0-5.933-3.948-5.933-8.03c0-4.146,2.385-8.031,5.933-8.031
		c1.813,0,2.756,0.516,3.491,0.925v3.198l-1.913-2.139c-0.454-0.531-0.945-0.75-1.617-0.75c-2.661,0-3.371,3.75-3.371,6.784
		c0,3.084,0.827,6.784,3.398,6.795c0.67,0,1.164-0.222,1.618-0.75l1.912-2.14v3.222c-0.679,0.494-1.529,0.905-3.549,0.914
		L100.435,43.026L100.435,43.026z"/>
	<path fill="#FFFFFF" d="M112.498,43.137c-3.686,0-5.993-4.06-5.993-8.142s2.307-8.14,5.993-8.14c3.687,0,5.97,4.008,5.97,8.12
		c0,4.11-2.284,8.146-5.941,8.161H112.498z M112.498,28.136c-2.661,0-3.429,3.772-3.429,6.859c0,3.09,0.768,6.888,3.397,6.862
		c2.631-0.025,3.43-3.772,3.43-6.862c0-3.087-0.738-6.883-3.368-6.859H112.498z"/>
	<path fill="#FFFFFF" d="M121.03,42.805l1.203-1.345V28.533l-1.203-1.345h4.535l-1.203,1.345v12.994h3.332l1.597-1.786v3.066
		L121.03,42.805L121.03,42.805z"/>
	<path fill="#FFFFFF" d="M131.28,42.805l1.203-1.345V28.533l-1.203-1.345h4.534l-1.203,1.345v12.994h3.332l1.597-1.786v3.066
		L131.28,42.805L131.28,42.805z"/>
	<path fill="#FFFFFF" d="M141.527,42.805l1.203-1.345V28.533l-1.203-1.345h8.753v3.065l-1.597-1.787h-3.825v5.338h2.741l1.203-1.347
		v3.971l-1.203-1.346h-2.741v6.443h3.825l1.597-1.786v3.066H141.527L141.527,42.805z"/>
	<path fill="#FFFFFF" d="M163.762,35.703v6.176c-0.965,0.642-1.893,1.147-4.199,1.147c-3.785,0-6.743-3.684-6.743-8.03
		s3.056-8.031,6.841-8.031c1.617,0,2.664,0.411,3.491,0.906v3.219l-1.913-2.139c-0.454-0.506-0.926-0.75-1.597-0.75
		c-2.681,0-4.26,3.551-4.26,6.794c0,3.243,1.579,6.786,4.226,6.796c0.888,0,1.617-0.376,1.972-0.772v-5.316l-1.203-1.346h4.535
		L163.762,35.703z"/>
	<path fill="#FFFFFF" d="M166.833,42.805l1.202-1.345V28.533l-1.202-1.345h8.752v3.065l-1.597-1.787h-3.824v5.338h2.739l1.204-1.347
		v3.971l-1.204-1.346h-2.739v6.443h3.824l1.597-1.786v3.066H166.833L166.833,42.805z"/>
	<path fill="#FFFFFF" d="M189.894,43.137c-3.687,0-5.993-4.06-5.993-8.142s2.307-8.14,5.993-8.14c3.687,0,5.994,4.008,5.972,8.12
		c-0.024,4.11-2.284,8.146-5.996,8.161H189.894z M189.894,28.136c-2.66,0-3.429,3.772-3.429,6.859c0,3.09,0.77,6.888,3.399,6.888
		c2.661,0,3.428-3.772,3.428-6.862c0-3.089-0.737-6.91-3.422-6.886L189.894,28.136L189.894,28.136z"/>
	<path fill="#FFFFFF" d="M205.584,28.466h-3.824v5.338h2.74l1.201-1.347v3.971l-1.201-1.346h-2.74v6.376l1.203,1.345h-4.536
		l1.204-1.345V28.533l-1.204-1.345h8.752v3.065L205.584,28.466z"/>
	<path fill="#FFFFFF" d="M223.066,28.466h-2.347v12.995l1.203,1.345h-4.536l1.204-1.345V28.466h-2.346l-1.598,1.787v-3.065h10.015
		v3.065L223.066,28.466z"/>
	<path fill="#FFFFFF" d="M234.121,42.805l1.204-1.345v-6.376h-5.262v6.376l1.203,1.345h-4.536l1.202-1.345V28.533l-1.202-1.345
		h4.536l-1.203,1.345v5.271h5.262v-5.271l-1.204-1.345h4.536l-1.202,1.345V41.46l1.202,1.345H234.121z"/>
	<path fill="#FFFFFF" d="M241.019,42.805l1.201-1.345V28.533l-1.201-1.345h8.752v3.065l-1.598-1.787h-3.825v5.338h2.742l1.201-1.347
		v3.971l-1.201-1.346h-2.742v6.443h3.825l1.598-1.786v3.066H241.019L241.019,42.805z"/>
	<path fill="#FFFFFF" d="M257.909,42.805l1.202-1.345V28.533l-1.202-1.345h8.752v3.065l-1.595-1.787h-3.826v5.338h2.74l1.203-1.347
		v3.971l-1.203-1.346h-2.74v6.443h3.826l1.595-1.786v3.066H257.909L257.909,42.805z"/>
	<path fill="#FFFFFF" d="M279.651,28.533v15.553l-8.083-14.054V41.46l1.203,1.345h-3.747l1.204-1.345V28.533l-1.204-1.345h3.491
		l5.794,10.17v-8.825l-1.2-1.345h3.744L279.651,28.533z"/>
	<path fill="#FFFFFF" d="M292.618,28.554l-4.038,14.251h-1.301l-3.944-14.251l-1.223-1.365h4.673l-1.182,1.321l2.801,10.486
		l2.877-10.457l-1.184-1.322h3.745L292.618,28.554z"/>
	<path fill="#FFFFFF" d="M295.436,42.805l1.203-1.345V28.533l-1.203-1.345h4.534l-1.204,1.345V41.46l1.204,1.345H295.436z"/>
	<path fill="#FFFFFF" d="M311.047,42.805l-3.332-7.169h-1.855v5.824l1.205,1.345h-4.535l1.203-1.345V28.533l-1.203-1.345h5.027
		c2.367,0,4.776,1.336,4.776,4.278c0,1.633-1.062,3.154-2.604,3.705l3.097,6.289l1.203,1.345L311.047,42.805L311.047,42.805z
		 M307.558,28.466h-1.696v5.89h1.696c1.342,0,2.387-1.147,2.387-2.891c-0.001-1.81-1.028-3.045-2.405-3h0.019V28.466z"/>
	<path fill="#FFFFFF" d="M321.61,43.137c-3.687,0-5.991-4.06-5.991-8.142s2.306-8.14,5.991-8.14s5.992,4.008,5.972,8.12
		c-0.021,4.11-2.284,8.146-5.989,8.161H321.61z M321.61,28.136c-2.66,0-3.43,3.772-3.43,6.859c0,3.09,0.771,6.888,3.398,6.888
		c2.661,0,3.43-3.772,3.43-6.862c0-3.089-0.735-6.91-3.417-6.886L321.61,28.136L321.61,28.136z"/>
	<path fill="#FFFFFF" d="M340.77,28.533v15.553l-8.086-14.054V41.46l1.204,1.345h-3.741l1.201-1.345V28.533l-1.201-1.345h3.486
		l5.798,10.17v-8.825l-1.205-1.345h3.746L340.77,28.533z"/>
	<path fill="#FFFFFF" d="M354.289,42.805l1.204-1.345V29.79l-4.357,8.669l-4.358-8.669v11.671l1.204,1.345h-3.744l1.202-1.345
		V28.533l-1.202-1.345h3.706l3.806,7.588l3.784-7.588h3.292l-1.202,1.345V41.46l1.202,1.345H354.289L354.289,42.805z"/>
	<path fill="#FFFFFF" d="M361.186,42.805l1.202-1.345V28.533l-1.202-1.345h8.752v3.065l-1.597-1.787h-3.823v5.338h2.74l1.201-1.347
		v3.971l-1.201-1.346h-2.74v6.443h3.823l1.597-1.786v3.066H361.186L361.186,42.805z"/>
	<path fill="#FFFFFF" d="M382.926,28.533v15.553l-8.082-14.054V41.46l1.201,1.345h-3.744l1.204-1.345V28.533l-1.204-1.345h3.49
		l5.795,10.17v-8.825l-1.201-1.345h3.745L382.926,28.533z"/>
	<path fill="#FFFFFF" d="M394.516,28.466h-2.346v12.995l1.203,1.345h-4.535l1.202-1.345V28.466h-2.347l-1.599,1.787v-3.065h10.017
		v3.065L394.516,28.466z"/>
</g>
</svg>
