<?xml version="1.0" encoding="utf-8"?>
<!-- Generator: Adobe Illustrator 16.0.4, SVG Export Plug-In . SVG Version: 6.00 Build 0)  -->
<!DOCTYPE svg PUBLIC "-//W3C//DTD SVG 1.1//EN" "http://www.w3.org/Graphics/SVG/1.1/DTD/svg11.dtd">
<svg version="1.1" id="Layer_1" xmlns="http://www.w3.org/2000/svg" xmlns:xlink="http://www.w3.org/1999/xlink" x="0px" y="0px"
	 viewBox="0 331 612 130" enable-background="new 0 331 612 130" xml:space="preserve">
<polygon fill="#4B2E83" points="0,330.335 0,461.344 627.678,461.344 661.821,330.335 "/>
<g>
	<g>
		<defs>
			<rect id="SVGID_1_" y="330.335" width="661.905" height="131.33"/>
		</defs>
		<clipPath id="SVGID_2_">
			<use xlink:href="#SVGID_1_"  overflow="visible"/>
		</clipPath>
		<path clip-path="url(#SVGID_2_)" fill="#FFFFFF" d="M467.927,415.537v-9.559l6.635,10.661h0.653v-11.654l1.103-1.103h-3.331
			l1.104,1.103v8.107l-5.748-9.21h-2.637l1.078,1.103v10.552l-1.078,1.103h3.326L467.927,415.537z M458.071,415.949
			c-2.552,0-3.438-3.048-3.438-5.689c0-2.64,0.887-5.684,3.438-5.684c2.574,0,3.507,3.052,3.507,5.684
			c0,2.633-0.933,5.645-3.497,5.645 M452.97,410.26c0,3.281,1.81,6.676,5.089,6.676c3.287,0,5.124-3.416,5.124-6.657
			c0-3.244-1.837-6.66-5.124-6.66c-3.255-0.042-5.069,3.351-5.069,6.634 M447.201,415.679v-10.786h2.419l1.366,1.359v-2.312h-8.976
			v2.312l1.386-1.359h2.4v10.786l-0.998,1.015h3.419l-1.016-1.072L447.201,415.679L447.201,415.679z M437.756,410.845v4.108
			c-0.304,0.304-0.908,0.912-2.099,0.912c-2.83,0-4.259-2.856-4.259-5.603c0-2.768,1.795-5.599,4.259-5.599
			c0.651,0,1.131,0.112,1.583,0.603l1.405,1.39v-2.21c-0.756-0.391-1.514-0.734-2.962-0.734c-3.481,0-5.926,3.113-5.926,6.562
			c0,3.391,2.487,6.562,5.881,6.551c1.968,0,2.813-0.479,3.508-0.933v-5.035l0.992-1.015h-3.418L437.756,410.845z M418.842,415.537
			v-9.559l6.707,10.665l0.579-0.004v-11.654l1.104-1.103h-3.329l1.102,1.103v8.107l-5.751-9.21h-2.639l1.084,1.103v10.552
			l-1.084,1.103h3.328L418.842,415.537z M409.694,403.884l1.018,1.014v10.726l-1.018,1.016h3.438l-1.015-1.016v-10.726l1.015-1.014
			H409.694z M398.363,410.251h5.365v5.383l-1.018,1.016h3.439l-1.017-1.016v-10.725l1.017-1.015h-3.439l1.018,1.015v4.392h-5.365
			v-4.403l1.02-1.014h-3.42l0.996,1.014v10.722l-0.996,1.02h3.42l-1.02-1.02v-5.379V410.251z M392.615,413.094
			c0-1.253-0.585-2.031-1.192-2.441l-2.59-1.881c-0.934-0.672-1.409-1.536-1.409-2.185c0-1.341,1.146-1.812,1.837-1.812
			c0.366,0,0.679,0.112,0.792,0.149l1.123,1.21l1.189-1.772l-2.53-0.475c-0.172-0.044-0.28-0.067-0.604-0.067
			c-2.226,0-3.242,1.903-3.242,3.134c0,1.019,0.451,2.037,1.698,2.919l2.613,1.923c0.715,0.453,0.906,1.244,0.906,1.858
			c0,1.082-0.67,2.253-2.121,2.253c-0.342,0-0.648-0.068-0.887-0.175l-1.209-1.431l-1.106,2.036l2.444,0.475
			c0,0,0.452,0.114,0.792,0.086c1.484-0.086,3.462-1.335,3.462-3.82 M378.341,406.715l1.752,5.276h-3.565L378.341,406.715z
			 M375.271,415.646l0.928-2.705h4.215l0.888,2.705l-0.995,0.994h3.611l-1.014-1.038l-3.98-11.718h-0.648l-4.041,11.718
			l-1.038,1.038h3.068L375.271,415.646z M361.709,416.64l2.918-9.231l2.833,9.231h0.648l3.697-11.74l1.039-1.015h-3.072l0.994,0.993
			l-2.7,8.824l-2.616-8.824l0.994-0.993h-3.609l1.019,1.015l0.256,0.843l-2.442,7.959l-2.614-8.824l0.998-0.993h-3.612l1.034,1.014
			l3.59,11.741L361.709,416.64z M342.803,408.994l-0.486,0.465l0.055,0.181h1.49c-0.235,1.617-0.449,3.019-0.791,5.318
			c-0.484,3.36-0.899,4.545-1.236,4.833c-0.108,0.105-0.288,0.16-0.449,0.16c-0.217,0-0.558-0.16-0.79-0.267
			c-0.217-0.11-0.398,0.018-0.504,0.126c-0.142,0.16-0.305,0.409-0.305,0.609c0,0.339,0.452,0.564,0.792,0.564
			c0.343,0,1.204-0.288,1.978-1.238c0.611-0.754,1.438-2.495,2.136-6.557c0.127-0.755,0.268-1.51,0.575-3.485l1.831-0.18
			l0.396-0.466h-2.12c0.541-3.321,0.989-4.332,1.76-4.332c0.541,0,1.021,0.227,1.359,0.597c0.126,0.113,0.34,0.113,0.499-0.019
			c0.146-0.129,0.361-0.414,0.361-0.664c0.017-0.361-0.468-0.756-1.078-0.756c-1.04,0-2.137,0.609-2.891,1.472
			c-0.703,0.847-1.169,2.208-1.42,3.664h-1.161L342.803,408.994L342.803,408.994z M334.717,413.699c0-2.659,1.346-4.096,1.905-4.331
			c0.162-0.069,0.411-0.142,0.593-0.142c0.896,0,1.47,0.678,1.47,2.066c0.036,2.333-1.184,4.459-1.941,4.752
			c-0.142,0.057-0.376,0.126-0.556,0.126c-1.056-0.036-1.522-1.17-1.522-2.414 M337.79,408.556c-0.467,0-1.203,0.215-1.941,0.646
			c-1.241,0.735-2.587,2.403-2.587,4.923c0,1.243,0.567,2.714,2.263,2.714c0.791,0,1.921-0.521,2.678-1.203
			c1.181-1.078,1.885-2.931,1.885-4.529c0.001-1.535-0.784-2.55-2.254-2.55 M316.976,404.897l3.223,5.818v4.907l-1.014,1.016h3.436
			l-1.016-1.016v-4.907l3.287-5.796l1.062-1.036h-3.157l0.995,1.018l-2.683,4.782l-2.548-4.782l0.993-0.991h-3.61L316.976,404.897z
			 M310.251,415.621v-10.786h2.423l1.362,1.36v-2.312h-8.975v2.312l1.384-1.36h2.399v10.786l-0.994,1.018h3.418L310.251,415.621z
			 M298.682,403.884l1.018,1.014v10.726l-1.018,1.016h3.439l-1.015-1.016v-10.726l1.015-1.014H298.682z M294.987,413.094
			c0-1.253-0.586-2.031-1.189-2.441l-2.595-1.881c-0.933-0.672-1.404-1.536-1.404-2.185c0-1.341,1.146-1.812,1.835-1.812
			c0.368,0,0.679,0.112,0.792,0.149l1.124,1.21l1.19-1.772l-2.528-0.475c-0.173-0.044-0.282-0.067-0.606-0.067
			c-2.226,0-3.243,1.903-3.243,3.134c0,1.019,0.452,2.037,1.695,2.919l2.616,1.923c0.714,0.453,0.906,1.244,0.906,1.858
			c0,1.082-0.671,2.253-2.118,2.253c-0.346,0-0.649-0.068-0.885-0.175l-1.212-1.431l-1.104,2.036l2.444,0.475
			c0,0,0.453,0.114,0.792,0.086c1.48-0.086,3.467-1.335,3.467-3.82 M278.597,404.835h1.558c1.362,0,2.489,1.131,2.489,2.548
			c0,1.32-1.102,2.359-2.44,2.359h-1.559v-4.907H278.597z M278.597,415.621v-4.927h1.925l3.09,5.945h2.12l-0.996-1.015l-2.853-5.231
			c1.425-0.435,2.399-1.775,2.399-2.983c0-2.164-2.009-3.523-4.129-3.523h-3.958l0.997,1.013v10.722l-0.997,1.021h3.417
			L278.597,415.621z M272.868,416.64v-2.335l-1.363,1.385h-3.869v-5.364h2.875l1.016,1.017v-2.983l-1.016,1.014h-2.875v-4.539h3.869
			l1.363,1.362v-2.314h-7.633l0.996,1.016v10.723l-0.996,1.017L272.868,416.64L272.868,416.64z M256.328,403.884h-3.61l1.038,1.014
			l3.591,11.741h0.648l3.698-11.741l1.039-1.014h-3.069l0.994,0.993l-2.704,8.824l-2.616-8.824L256.328,403.884z M246.426,403.884
			l1.015,1.014v10.726l-1.015,1.016h3.436l-1.015-1.016v-10.726l1.015-1.014H246.426z M234.555,415.537v-9.559l6.845,10.661h0.446
			v-11.654l1.1-1.103h-3.33l1.106,1.103v8.107l-5.752-9.21h-2.637l1.078,1.103v10.552l-1.078,1.103h3.326L234.555,415.537z
			 M220.199,413.189c0,2.15,1.81,3.735,3.959,3.694c2.074,0,4.128-1.531,4.128-3.694v-8.239l1.081-1.101h-3.328l1.102,1.101v8.239
			c0,1.472-1.166,2.638-2.64,2.638c-1.489,0-2.809-1.144-2.809-2.638v-8.239l1.102-1.066h-3.701l1.104,1.104v8.238L220.199,413.189z
			"/>
	</g>
	<g>
		<defs>
			<rect id="SVGID_3_" y="330.335" width="661.905" height="131.33"/>
		</defs>
		<clipPath id="SVGID_4_">
			<use xlink:href="#SVGID_3_"  overflow="visible"/>
		</clipPath>
		<path clip-path="url(#SVGID_4_)" fill="#FFFFFF" d="M224.699,390.27c-4.438,0-7.301-4.858-7.301-9.88
			c0-5.102,2.935-9.881,7.301-9.881c2.231,0,3.391,0.634,4.295,1.137v3.936l-2.353-2.632c-0.559-0.654-1.164-0.922-1.99-0.922
			c-3.274,0-4.147,4.614-4.147,8.346c0,3.795,1.017,8.349,4.18,8.362c0.825,0,1.433-0.273,1.991-0.923l2.353-2.633v3.965
			c-0.834,0.608-1.881,1.114-4.367,1.124L224.699,390.27L224.699,390.27z"/>
	</g>
	<g>
		<defs>
			<rect id="SVGID_5_" y="330.335" width="661.905" height="131.33"/>
		</defs>
		<clipPath id="SVGID_6_">
			<use xlink:href="#SVGID_5_"  overflow="visible"/>
		</clipPath>
		<path clip-path="url(#SVGID_6_)" fill="#FFFFFF" d="M239.542,390.407c-4.535,0-7.374-4.995-7.374-10.017
			c0-5.023,2.838-10.017,7.374-10.017s7.347,4.932,7.347,9.992c0,5.058-2.812,10.023-7.311,10.042H239.542z M239.542,371.951
			c-3.274,0-4.218,4.641-4.218,8.441c0,3.802,0.944,8.475,4.18,8.443c3.237-0.031,4.22-4.641,4.22-8.443
			c0-3.8-0.908-8.47-4.144-8.441H239.542z"/>
	</g>
	<g>
		<defs>
			<rect id="SVGID_7_" y="330.335" width="661.905" height="131.33"/>
		</defs>
		<clipPath id="SVGID_8_">
			<use xlink:href="#SVGID_7_"  overflow="visible"/>
		</clipPath>
		<polygon clip-path="url(#SVGID_8_)" fill="#FFFFFF" points="250.04,390 251.52,388.343 251.52,372.438 250.04,370.782 
			255.62,370.782 254.14,372.438 254.14,388.425 258.238,388.425 260.204,386.229 260.204,390.001 250.04,390.001 		"/>
	</g>
	<g>
		<defs>
			<rect id="SVGID_9_" y="330.335" width="661.905" height="131.33"/>
		</defs>
		<clipPath id="SVGID_10_">
			<use xlink:href="#SVGID_9_"  overflow="visible"/>
		</clipPath>
		<polygon clip-path="url(#SVGID_10_)" fill="#FFFFFF" points="262.65,390 264.13,388.343 264.13,372.438 262.65,370.782 
			268.229,370.782 266.749,372.438 266.749,388.425 270.85,388.425 272.814,386.229 272.814,390.001 262.65,390.001 		"/>
	</g>
	<g>
		<defs>
			<rect id="SVGID_11_" y="330.335" width="661.905" height="131.33"/>
		</defs>
		<clipPath id="SVGID_12_">
			<use xlink:href="#SVGID_11_"  overflow="visible"/>
		</clipPath>
		<polygon clip-path="url(#SVGID_12_)" fill="#FFFFFF" points="275.259,390 276.74,388.343 276.74,372.438 275.259,370.782 
			286.028,370.782 286.028,374.554 284.065,372.356 279.358,372.356 279.358,378.924 282.731,378.924 284.209,377.266 
			284.209,382.154 282.731,380.497 279.358,380.497 279.358,388.423 284.065,388.423 286.028,386.228 286.028,390 		"/>
	</g>
	<g>
		<defs>
			<rect id="SVGID_13_" y="330.335" width="661.905" height="131.33"/>
		</defs>
		<clipPath id="SVGID_14_">
			<use xlink:href="#SVGID_13_"  overflow="visible"/>
		</clipPath>
		<path clip-path="url(#SVGID_14_)" fill="#FFFFFF" d="M302.617,381.259v7.599c-1.187,0.789-2.328,1.412-5.167,1.412
			c-4.657,0-8.296-4.534-8.296-9.881s3.76-9.881,8.417-9.881c1.99,0,3.278,0.506,4.296,1.115v3.959l-2.354-2.632
			c-0.56-0.623-1.14-0.922-1.965-0.922c-3.299,0-5.241,4.369-5.241,8.359c0,3.991,1.942,8.35,5.199,8.361
			c1.093,0,1.99-0.462,2.427-0.949v-6.542l-1.48-1.658h5.581L302.617,381.259z"/>
	</g>
	<g>
		<defs>
			<rect id="SVGID_15_" y="330.335" width="661.905" height="131.33"/>
		</defs>
		<clipPath id="SVGID_16_">
			<use xlink:href="#SVGID_15_"  overflow="visible"/>
		</clipPath>
		<polygon clip-path="url(#SVGID_16_)" fill="#FFFFFF" points="306.396,390 307.875,388.343 307.875,372.438 306.396,370.782 
			317.166,370.782 317.166,374.554 315.201,372.356 310.495,372.356 310.495,378.924 313.867,378.924 315.347,377.266 
			315.347,382.154 313.867,380.497 310.495,380.497 310.495,388.423 315.201,388.423 317.166,386.228 317.166,390 		"/>
	</g>
	<g>
		<defs>
			<rect id="SVGID_17_" y="330.335" width="661.905" height="131.33"/>
		</defs>
		<clipPath id="SVGID_18_">
			<use xlink:href="#SVGID_17_"  overflow="visible"/>
		</clipPath>
		<path clip-path="url(#SVGID_18_)" fill="#FFFFFF" d="M334.771,390.407c-4.536,0-7.374-4.995-7.374-10.017
			c0-5.023,2.839-10.017,7.374-10.017c4.536,0,7.376,4.932,7.348,9.992c-0.027,5.058-2.809,10.023-7.377,10.042H334.771z
			 M334.771,371.951c-3.272,0-4.22,4.641-4.22,8.441c0,3.802,0.948,8.475,4.183,8.475c3.274,0,4.219-4.641,4.219-8.443
			c0-3.801-0.905-8.502-4.211-8.474L334.771,371.951L334.771,371.951z"/>
	</g>
	<g>
		<defs>
			<rect id="SVGID_19_" y="330.335" width="661.905" height="131.33"/>
		</defs>
		<clipPath id="SVGID_20_">
			<use xlink:href="#SVGID_19_"  overflow="visible"/>
		</clipPath>
		<polygon clip-path="url(#SVGID_20_)" fill="#FFFFFF" points="354.076,372.355 349.37,372.355 349.37,378.923 352.743,378.923 
			354.222,377.267 354.222,382.152 352.743,380.497 349.37,380.497 349.37,388.342 350.851,389.997 345.27,389.997 346.751,388.342 
			346.751,372.438 345.27,370.782 356.039,370.782 356.039,374.554 		"/>
	</g>
	<g>
		<defs>
			<rect id="SVGID_21_" y="330.335" width="661.905" height="131.33"/>
		</defs>
		<clipPath id="SVGID_22_">
			<use xlink:href="#SVGID_21_"  overflow="visible"/>
		</clipPath>
		<polygon clip-path="url(#SVGID_22_)" fill="#FFFFFF" points="375.587,372.355 372.699,372.355 372.699,388.345 374.181,390 
			368.599,390 370.081,388.345 370.081,372.355 367.194,372.355 365.229,374.554 365.229,370.782 377.55,370.782 377.55,374.554 		
			"/>
	</g>
	<g>
		<defs>
			<rect id="SVGID_23_" y="330.335" width="661.905" height="131.33"/>
		</defs>
		<clipPath id="SVGID_24_">
			<use xlink:href="#SVGID_23_"  overflow="visible"/>
		</clipPath>
		<polygon clip-path="url(#SVGID_24_)" fill="#FFFFFF" points="389.189,390 390.671,388.343 390.671,380.498 384.197,380.498 
			384.197,388.343 385.678,390 380.097,390 381.575,388.343 381.575,372.438 380.097,370.782 385.678,370.782 384.197,372.438 
			384.197,378.924 390.671,378.924 390.671,372.438 389.189,370.782 394.771,370.782 393.293,372.438 393.293,388.343 394.771,390 
					"/>
	</g>
	<g>
		<defs>
			<rect id="SVGID_25_" y="330.335" width="661.905" height="131.33"/>
		</defs>
		<clipPath id="SVGID_26_">
			<use xlink:href="#SVGID_25_"  overflow="visible"/>
		</clipPath>
		<polygon clip-path="url(#SVGID_26_)" fill="#FFFFFF" points="397.677,390 399.154,388.343 399.154,372.438 397.677,370.782 
			408.445,370.782 408.445,374.554 406.479,372.356 401.772,372.356 401.772,378.924 405.146,378.924 406.624,377.266 
			406.624,382.154 405.146,380.497 401.772,380.497 401.772,388.423 406.479,388.423 408.445,386.228 408.445,390 		"/>
	</g>
	<g>
		<defs>
			<rect id="SVGID_27_" y="330.335" width="661.905" height="131.33"/>
		</defs>
		<clipPath id="SVGID_28_">
			<use xlink:href="#SVGID_27_"  overflow="visible"/>
		</clipPath>
		<polygon clip-path="url(#SVGID_28_)" fill="#FFFFFF" points="418.46,390 419.938,388.343 419.938,372.438 418.46,370.782 
			429.229,370.782 429.229,374.554 427.267,372.356 422.559,372.356 422.559,378.924 425.929,378.924 427.408,377.266 
			427.408,382.154 425.929,380.497 422.559,380.497 422.559,388.423 427.267,388.423 429.229,386.228 429.229,390 		"/>
	</g>
	<g>
		<defs>
			<rect id="SVGID_29_" y="330.335" width="661.905" height="131.33"/>
		</defs>
		<clipPath id="SVGID_30_">
			<use xlink:href="#SVGID_29_"  overflow="visible"/>
		</clipPath>
		<polygon clip-path="url(#SVGID_30_)" fill="#FFFFFF" points="445.212,372.438 445.212,391.574 435.266,374.282 435.266,388.343 
			436.746,390 432.137,390 433.618,388.343 433.618,372.438 432.137,370.783 436.431,370.783 443.561,383.296 443.561,372.438 
			442.083,370.783 446.69,370.783 		"/>
	</g>
	<g>
		<defs>
			<rect id="SVGID_31_" y="330.335" width="661.905" height="131.33"/>
		</defs>
		<clipPath id="SVGID_32_">
			<use xlink:href="#SVGID_31_"  overflow="visible"/>
		</clipPath>
		<polygon clip-path="url(#SVGID_32_)" fill="#FFFFFF" points="461.166,372.464 456.197,389.998 454.597,389.998 449.744,372.464 
			448.24,370.783 453.989,370.783 452.534,372.411 455.98,385.311 459.521,372.444 458.064,370.817 462.672,370.817 		"/>
	</g>
	<g>
		<defs>
			<rect id="SVGID_33_" y="330.335" width="661.905" height="131.33"/>
		</defs>
		<clipPath id="SVGID_34_">
			<use xlink:href="#SVGID_33_"  overflow="visible"/>
		</clipPath>
		<polygon clip-path="url(#SVGID_34_)" fill="#FFFFFF" points="464.633,390 466.113,388.343 466.113,372.438 464.633,370.782 
			470.212,370.782 468.729,372.438 468.729,388.343 470.212,390 		"/>
	</g>
	<g>
		<defs>
			<rect id="SVGID_35_" y="330.335" width="661.905" height="131.33"/>
		</defs>
		<clipPath id="SVGID_36_">
			<use xlink:href="#SVGID_35_"  overflow="visible"/>
		</clipPath>
		<path clip-path="url(#SVGID_36_)" fill="#FFFFFF" d="M483.841,389.998l-4.1-8.82h-2.283v7.165l1.483,1.655h-5.58l1.479-1.655
			v-15.905l-1.479-1.656h6.186c2.914,0,5.878,1.645,5.878,5.265c0,2.009-1.307,3.879-3.203,4.559l3.81,7.737l1.48,1.655
			L483.841,389.998z M479.548,372.355h-2.087v7.247h2.087c1.651,0,2.937-1.412,2.937-3.556c-0.001-2.228-1.265-3.747-2.959-3.692
			L479.548,372.355L479.548,372.355z"/>
	</g>
	<g>
		<defs>
			<rect id="SVGID_37_" y="330.335" width="661.905" height="131.33"/>
		</defs>
		<clipPath id="SVGID_38_">
			<use xlink:href="#SVGID_37_"  overflow="visible"/>
		</clipPath>
		<path clip-path="url(#SVGID_38_)" fill="#FFFFFF" d="M496.839,390.407c-4.536,0-7.37-4.995-7.37-10.017
			c0-5.023,2.835-10.017,7.37-10.017s7.373,4.932,7.35,9.992c-0.028,5.058-2.812,10.023-7.369,10.042H496.839z M496.839,371.951
			c-3.272,0-4.22,4.641-4.22,8.441c0,3.802,0.948,8.475,4.183,8.475c3.273,0,4.22-4.641,4.22-8.443c0-3.801-0.904-8.502-4.203-8.474
			L496.839,371.951L496.839,371.951z"/>
	</g>
	<g>
		<defs>
			<rect id="SVGID_39_" y="330.335" width="661.905" height="131.33"/>
		</defs>
		<clipPath id="SVGID_40_">
			<use xlink:href="#SVGID_39_"  overflow="visible"/>
		</clipPath>
		<polygon clip-path="url(#SVGID_40_)" fill="#FFFFFF" points="520.413,372.438 520.413,391.574 510.463,374.282 510.463,388.343 
			511.943,390 507.342,390 508.82,388.343 508.82,372.438 507.342,370.783 511.632,370.783 518.766,383.296 518.766,372.438 
			517.283,370.783 521.892,370.783 		"/>
	</g>
	<g>
		<defs>
			<rect id="SVGID_41_" y="330.335" width="661.905" height="131.33"/>
		</defs>
		<clipPath id="SVGID_42_">
			<use xlink:href="#SVGID_41_"  overflow="visible"/>
		</clipPath>
		<polygon clip-path="url(#SVGID_42_)" fill="#FFFFFF" points="537.049,390 538.529,388.343 538.529,373.984 533.169,384.652 
			527.806,373.984 527.806,388.345 529.287,390.001 524.681,390.001 526.16,388.345 526.16,372.438 524.681,370.782 
			529.239,370.782 533.922,380.12 538.58,370.782 542.63,370.782 541.151,372.438 541.151,388.343 542.63,390 		"/>
	</g>
	<g>
		<defs>
			<rect id="SVGID_43_" y="330.335" width="661.905" height="131.33"/>
		</defs>
		<clipPath id="SVGID_44_">
			<use xlink:href="#SVGID_43_"  overflow="visible"/>
		</clipPath>
		<polygon clip-path="url(#SVGID_44_)" fill="#FFFFFF" points="545.533,390 547.013,388.343 547.013,372.438 545.533,370.782 
			556.303,370.782 556.303,374.554 554.338,372.356 549.634,372.356 549.634,378.924 553.004,378.924 554.482,377.266 
			554.482,382.154 553.004,380.497 549.634,380.497 549.634,388.423 554.338,388.423 556.303,386.228 556.303,390 		"/>
	</g>
	<g>
		<defs>
			<rect id="SVGID_45_" y="330.335" width="661.905" height="131.33"/>
		</defs>
		<clipPath id="SVGID_46_">
			<use xlink:href="#SVGID_45_"  overflow="visible"/>
		</clipPath>
		<polygon clip-path="url(#SVGID_46_)" fill="#FFFFFF" points="572.283,372.438 572.283,391.574 562.339,374.282 562.339,388.343 
			563.816,390 559.21,390 560.691,388.343 560.691,372.438 559.21,370.783 563.504,370.783 570.635,383.296 570.635,372.438 
			569.156,370.783 573.765,370.783 		"/>
	</g>
	<g>
		<defs>
			<rect id="SVGID_47_" y="330.335" width="661.905" height="131.33"/>
		</defs>
		<clipPath id="SVGID_48_">
			<use xlink:href="#SVGID_47_"  overflow="visible"/>
		</clipPath>
		<polygon clip-path="url(#SVGID_48_)" fill="#FFFFFF" points="586.543,372.355 583.656,372.355 583.656,388.345 585.138,390 
			579.558,390 581.036,388.345 581.036,372.355 578.149,372.355 576.184,374.554 576.184,370.782 588.506,370.782 588.506,374.554 
					"/>
	</g>
	<g>
		<defs>
			<rect id="SVGID_49_" y="330.335" width="661.905" height="131.33"/>
		</defs>
		<clipPath id="SVGID_50_">
			<use xlink:href="#SVGID_49_"  overflow="visible"/>
		</clipPath>
		<path clip-path="url(#SVGID_50_)" fill="#FFFFFF" d="M147.533,349.323v21.128h14.843l-16.574,61.688
			c0,0-20.283-81.664-20.572-82.817h-21.454c-0.306,1.124-22.252,82.824-22.252,82.824l-15.269-61.694h15.463v-21.129H19.7v21.128
			h13.741c0,0,22.34,89.856,22.602,90.891h35.96c0.421-1.022,14.614-55.33,14.614-55.296c0,0.035,13.572,54.054,13.806,55.296
			h35.876c0.294-1.132,23.908-90.895,23.908-90.895h13.624v-21.126L147.533,349.323z"/>
	</g>
</g>
</svg>
