<svg xmlns="http://www.w3.org/2000/svg" viewBox="0 0 445.12 100">
<style>
	.style0{
		fill:	#231F20;
	}
	.style1{
		stroke:	#231F20;
		stroke-width:	0.5;
		fill:	none;
	}
	.style2{
		fill:	#38275B;
	}
	.style3{
		fill:	#FFFFFF;
	}
</style><g>
	<path d="M334.706 73.073v-8.448l5.865 9.424h0.576V63.746l0.975-0.974h-2.945l0.977 0.974v7.169l-5.084-8.143h-2.33 l0.955 0.974v9.327l-0.955 0.976h2.941L334.706 73.073z M325.993 73.439c-2.256 0-3.039-2.696-3.039-5.029s0.783-5.026 3.039-5.026 c2.277 0 3.1 2.7 3.1 5.026S328.27 73.4 326 73.4 M321.483 68.41c0 2.9 1.6 5.9 4.5 5.9 c2.906 0 4.529-3.018 4.529-5.886c0-2.866-1.623-5.888-4.529-5.888C323.106 62.5 321.5 65.5 321.5 68.4 M316.383 73.2 v-9.536h2.139l1.205 1.203v-2.045h-7.932v2.045l1.223-1.203h2.123v9.536l-0.881 0.898h3.02L316.383 73.15z M308.034 68.927v3.631 c-0.268 0.267-0.803 0.804-1.855 0.804c-2.502 0-3.764-2.524-3.764-4.951c0-2.447 1.586-4.951 3.764-4.951 c0.576 0 1 0.1 1.4 0.536l1.242 1.225v-1.952c-0.668-0.344-1.338-0.649-2.619-0.649c-3.076 0-5.238 2.753-5.238 5.8 c0 3 2.2 5.8 5.2 5.792c1.74 0 2.486-0.421 3.098-0.823v-4.452l0.879-0.898h-3.02L308.034 68.927z M291.313 73.073v-8.448 l5.932 9.428l0.51-0.004V63.746l0.975-0.974h-2.943l0.975 0.974v7.169l-5.084-8.143h-2.334l0.959 0.974v9.327l-0.959 0.976h2.943 L291.313 73.073z M283.227 62.772l0.898 0.897v9.48l-0.898 0.898h3.039l-0.898-0.898v-9.48l0.898-0.897H283.227z M273.209 68.4 h4.742v4.759l-0.898 0.898h3.039l-0.898-0.898v-9.48l0.898-0.897h-3.039l0.898 0.897v3.882h-4.742V63.67l0.9-0.897h-3.021 l0.881 0.897v9.48l-0.881 0.898h3.021l-0.9-0.898V68.392z M268.127 70.915c0-1.109-0.516-1.797-1.053-2.161l-2.291-1.662 c-0.824-0.593-1.244-1.358-1.244-1.931c0-1.186 1.014-1.604 1.625-1.604c0.324 0 0.6 0.1 0.7 0.134l0.992 1.068l1.053-1.567 l-2.236-0.419c-0.152-0.039-0.248-0.058-0.535-0.058c-1.969 0-2.867 1.682-2.867 2.771c0 0.9 0.4 1.8 1.5 2.58l2.312 1.7 c0.631 0.4 0.8 1.1 0.8 1.643c0 0.956-0.592 1.989-1.875 1.989c-0.303 0-0.572-0.057-0.783-0.153l-1.068-1.263l-0.977 1.8 l2.16 0.419c0 0 0.4 0.1 0.7 0.077C266.35 74.2 268.1 73.1 268.1 70.9 M255.51 65.275l1.549 4.664h-3.154 L255.51 65.275z M252.795 73.17l0.822-2.389h3.727l0.783 2.389l-0.879 0.879h3.193l-0.898-0.917l-3.518-10.359h-0.574 l-3.574 10.359l-0.916 0.917h2.713L252.795 73.17z M240.805 74.049l2.58-8.16l2.504 8.16h0.574l3.268-10.379l0.918-0.897h-2.715 l0.879 0.877l-2.389 7.801l-2.312-7.801l0.879-0.877h-3.191l0.898 0.897l0.229 0.745l-2.16 7.035l-2.312-7.801l0.881-0.877h-3.193 l0.916 0.897l3.174 10.379H240.805z M224.093 67.289l-0.43 0.412l0.048 0.159h1.317c-0.207 1.43-0.398 2.668-0.698 4.7 c-0.429 2.969-0.794 4.019-1.095 4.271c-0.096 0.096-0.255 0.144-0.397 0.144c-0.192 0-0.493-0.144-0.699-0.237 c-0.192-0.098-0.351 0.016-0.444 0.11c-0.127 0.143-0.27 0.363-0.27 0.54c0 0.3 0.4 0.5 0.7 0.5 c0.301 0 1.063-0.256 1.747-1.097c0.539-0.666 1.27-2.207 1.889-5.796c0.111-0.668 0.238-1.335 0.507-3.081l1.619-0.159l0.35-0.412 h-1.873c0.477-2.937 0.873-3.828 1.557-3.828c0.477 0 0.9 0.2 1.2 0.526c0.111 0.1 0.3 0.1 0.443-0.017 c0.127-0.112 0.318-0.366 0.318-0.587c0.016-0.319-0.412-0.667-0.953-0.667c-0.92 0-1.889 0.539-2.555 1.3 c-0.622 0.748-1.033 1.953-1.255 3.24H224.093z M216.945 71.45c0-2.352 1.19-3.621 1.685-3.827 c0.142-0.063 0.363-0.129 0.523-0.129c0.793 0 1.3 0.6 1.3 1.829c0.033 2.061-1.048 3.938-1.715 4.2 c-0.127 0.049-0.333 0.11-0.492 0.11C217.312 73.6 216.9 72.6 216.9 71.5 M219.661 66.9 c-0.413 0-1.063 0.191-1.715 0.572c-1.097 0.65-2.287 2.126-2.287 4.351c0 1.1 0.5 2.4 2 2.4 c0.699 0 1.699-0.461 2.367-1.063c1.046-0.953 1.667-2.59 1.667-4.003C221.694 67.8 221 66.9 219.7 66.9 M201.261 63.67l2.848 5.142v4.339l-0.897 0.898h3.038l-0.898-0.898v-4.339l2.906-5.121l0.937-0.918h-2.79l0.879 0.9 l-2.371 4.227l-2.254-4.227l0.878-0.877h-3.192L201.261 63.67z M195.316 73.15v-9.536h2.142l1.203 1.203v-2.045h-7.934v2.045 l1.224-1.203h2.121v9.536l-0.878 0.898h3.021L195.316 73.15z M185.089 62.772l0.9 0.897v9.48l-0.9 0.898h3.041l-0.898-0.898v-9.48 l0.898-0.897H185.089z M181.821 70.915c0-1.109-0.517-1.797-1.051-2.161l-2.294-1.662c-0.823-0.593-1.241-1.358-1.241-1.931 c0-1.186 1.012-1.604 1.623-1.604c0.325 0 0.6 0.1 0.7 0.134l0.994 1.068l1.051-1.567l-2.236-0.419 c-0.152-0.039-0.248-0.058-0.535-0.058c-1.968 0-2.867 1.682-2.867 2.771c0 0.9 0.4 1.8 1.5 2.58l2.312 1.7 c0.631 0.4 0.8 1.1 0.8 1.643c0 0.956-0.593 1.989-1.872 1.989c-0.306 0-0.574-0.057-0.783-0.153l-1.071-1.263l-0.977 1.8 l2.161 0.419c0 0 0.4 0.1 0.7 0.077C180.044 74.2 181.8 73.1 181.8 70.9 M167.333 63.614h1.377 c1.204 0 2.2 1 2.2 2.253c0 1.167-0.973 2.085-2.158 2.085h-1.377V63.614z M167.333 73.15v-4.357h1.701l2.732 5.256h1.874 l-0.88-0.898l-2.521-4.625c1.26-0.383 2.121-1.568 2.121-2.637c0-1.913-1.777-3.116-3.65-3.116h-3.5l0.881 0.897v9.48l-0.881 0.9 h3.021L167.333 73.15z M162.269 74.049v-2.062l-1.205 1.221h-3.421v-4.74h2.542l0.898 0.898v-2.638l-0.898 0.898h-2.542v-4.013 h3.421l1.205 1.203v-2.045h-6.748l0.88 0.897v9.48l-0.88 0.898H162.269z M147.646 62.772h-3.192l0.917 0.897l3.174 10.379h0.573 l3.269-10.379l0.918-0.897h-2.713l0.879 0.877l-2.391 7.801l-2.312-7.801L147.646 62.772z M138.892 62.772l0.898 0.897v9.48 l-0.898 0.898h3.037l-0.897-0.898v-9.48l0.897-0.897H138.892z M128.397 73.073v-8.448l6.051 9.424h0.393V63.746l0.973-0.974h-2.943 l0.977 0.974v7.169l-5.085-8.143h-2.332l0.954 0.974v9.327l-0.954 0.976h2.941L128.397 73.073z M115.707 71 c0 1.9 1.6 3.3 3.5 3.267c1.833 0 3.649-1.354 3.649-3.267v-7.283l0.956-0.974h-2.942l0.973 0.974v7.283 c0 1.299-1.031 2.332-2.332 2.332c-1.318 0-2.484-1.013-2.484-2.332v-7.283L118 62.772h-3.27l0.976 0.974V71.029z" class="style0"/>
</g>
<line x1="114.3" y1="53.6" x2="445.1" y2="53.6" class="style1"/>
<g>
	<path d="M122.135 45.208c-3.927 0-6.46-3.841-6.46-7.812c0-4.034 2.597-7.812 6.46-7.812 c1.975 0 3 0.5 3.8 0.9v3.112l-2.082-2.082c-0.494-0.515-1.03-0.729-1.76-0.729c-2.897 0-3.67 3.649-3.67 6.6 c0 3 0.9 6.6 3.7 6.61c0.729 0 1.266-0.216 1.76-0.729l2.082-2.082v3.134C125.226 44.8 124.3 45.2 122.1 45.208z" class="style0"/>
	<path d="M135.267 45.316c-4.013 0-6.524-3.949-6.524-7.92s2.511-7.92 6.524-7.92c4.014 0 6.5 3.9 6.5 7.9 S139.28 45.3 135.3 45.316z M135.267 30.723c-2.896 0-3.734 3.669-3.734 6.674s0.837 6.7 3.7 6.675s3.734-3.67 3.734-6.675 S138.163 30.7 135.3 30.723z" class="style0"/>
	<path d="M144.556 44.994l1.31-1.309V31.108l-1.31-1.309h4.937l-1.31 1.309v12.641h3.627l1.738-1.738v2.983H144.556z " class="style0"/>
	<path d="M155.714 44.994l1.309-1.309V31.108l-1.309-1.309h4.936l-1.309 1.309v12.641h3.627l1.738-1.738v2.983 H155.714z" class="style0"/>
	<path d="M166.87 44.994l1.31-1.309V31.108l-1.31-1.309h9.529v2.982l-1.738-1.738h-4.164v5.193h2.983l1.31-1.31 v3.863l-1.31-1.309h-2.983v6.267h4.164l1.738-1.738v2.983H166.87z" class="style0"/>
	<path d="M191.076 38.084v6.008c-1.052 0.624-2.061 1.116-4.571 1.116c-4.121 0-7.34-3.584-7.34-7.812 s3.326-7.812 7.447-7.812c1.76 0 2.9 0.4 3.8 0.88v3.133l-2.082-2.082c-0.494-0.492-1.008-0.729-1.738-0.729 c-2.919 0-4.637 3.455-4.637 6.61s1.718 6.6 4.6 6.61c0.966 0 1.76-0.365 2.146-0.751v-5.172l-1.309-1.31h4.936L191.076 38.084z " class="style0"/>
	<path d="M194.421 44.994l1.309-1.309V31.108l-1.309-1.309h9.529v2.982l-1.738-1.738h-4.164v5.193h2.982l1.31-1.31 v3.863l-1.31-1.309h-2.982v6.267h4.164l1.738-1.738v2.983H194.421z" class="style0"/>
	<path d="M219.526 45.316c-4.014 0-6.524-3.949-6.524-7.92s2.511-7.92 6.524-7.92s6.525 3.9 6.5 7.9 S223.54 45.3 219.5 45.316z M219.526 30.723c-2.896 0-3.734 3.669-3.734 6.674s0.838 6.7 3.7 6.7 c2.897 0 3.734-3.67 3.734-6.675S222.424 30.7 219.5 30.723z" class="style0"/>
	<path d="M236.606 31.044h-4.164v5.193h2.984l1.309-1.31v3.863l-1.309-1.309h-2.984v6.203l1.311 1.309h-4.938 l1.311-1.309V31.108l-1.311-1.309h9.529v2.982L236.606 31.044z" class="style0"/>
	<path d="M255.639 31.044h-2.555v12.642l1.309 1.309h-4.936l1.309-1.309V31.044h-2.553l-1.738 1.738V29.8h10.902 v2.982L255.639 31.044z" class="style0"/>
	<path d="M267.674 44.994l1.311-1.309v-6.203h-5.73v6.203l1.311 1.309h-4.938l1.309-1.309V31.108l-1.309-1.309h4.938 l-1.311 1.309v5.129h5.73v-5.129l-1.311-1.309h4.938l-1.309 1.309v12.577l1.309 1.309H267.674z" class="style0"/>
	<path d="M275.182 44.994l1.309-1.309V31.108l-1.309-1.309h9.529v2.982l-1.738-1.738h-4.164v5.193h2.984l1.309-1.31 v3.863l-1.309-1.309h-2.984v6.267h4.164l1.738-1.738v2.983H275.182z" class="style0"/>
	<path d="M293.571 44.994l1.309-1.309V31.108l-1.309-1.309h9.529v2.982l-1.738-1.738h-4.164v5.193h2.982l1.311-1.31 v3.863l-1.311-1.309h-2.982v6.267h4.164l1.738-1.738v2.983H293.571z" class="style0"/>
	<path d="M317.241 31.108v15.131l-8.799-13.672v11.118l1.309 1.309h-4.078l1.309-1.309V31.108l-1.309-1.309h3.799 l6.309 9.894v-8.585l-1.309-1.309h4.078L317.241 31.108z" class="style0"/>
	<path d="M331.358 31.129l-4.398 13.865h-1.416l-4.295-13.865l-1.33-1.329h5.086l-1.287 1.287l3.049 10.2 l3.133-10.173l-1.287-1.287h4.078L331.358 31.129z" class="style0"/>
	<path d="M334.424 44.994l1.311-1.309V31.108l-1.311-1.309h4.936l-1.309 1.309v12.577l1.309 1.309H334.424z" class="style0"/>
	<path d="M351.42 44.994l-3.627-6.975h-2.02v5.666l1.311 1.309h-4.936l1.309-1.309V31.108l-1.309-1.309h5.473 c2.576 0 5.2 1.3 5.2 4.163c0 1.588-1.158 3.068-2.834 3.604l3.371 6.118l1.309 1.309H351.42z M347.622 31.044h-1.848v5.73 h1.848c1.459 0 2.598-1.116 2.598-2.812C350.219 32.2 349.1 31 347.6 31.044z" class="style0"/>
	<path d="M362.92 45.316c-4.014 0-6.523-3.949-6.523-7.92s2.51-7.92 6.523-7.92s6.523 3.9 6.5 7.9 S366.934 45.3 362.9 45.316z M362.92 30.723c-2.896 0-3.734 3.669-3.734 6.674s0.838 6.7 3.7 6.7 c2.898 0 3.734-3.67 3.734-6.675S365.819 30.7 362.9 30.723z" class="style0"/>
	<path d="M383.778 31.108v15.131l-8.801-13.672v11.118l1.309 1.309h-4.074l1.307-1.309V31.108l-1.307-1.309h3.797 l6.311 9.894v-8.585l-1.311-1.309h4.078L383.778 31.108z" class="style0"/>
	<path d="M398.497 44.994l1.309-1.309V32.332l-4.742 8.434l-4.744-8.434v11.354l1.309 1.309h-4.076l1.309-1.309 V31.108l-1.309-1.309h4.035l4.143 7.382l4.119-7.382h3.584l-1.309 1.309v12.577l1.309 1.309H398.497z" class="style0"/>
	<path d="M406.004 44.994l1.309-1.309V31.108l-1.309-1.309h9.529v2.982l-1.74-1.738h-4.162v5.193h2.982l1.309-1.31 v3.863l-1.309-1.309h-2.982v6.267h4.162l1.74-1.738v2.983H406.004z" class="style0"/>
	<path d="M429.672 31.108v15.131l-8.799-13.672v11.118l1.309 1.309h-4.076l1.309-1.309V31.108l-1.309-1.309h3.799 l6.309 9.894v-8.585l-1.309-1.309h4.078L429.672 31.108z" class="style0"/>
	<path d="M442.29 31.044h-2.555v12.642l1.311 1.309h-4.938l1.309-1.309V31.044h-2.555l-1.738 1.738V29.8h10.904 v2.982L442.29 31.044z" class="style0"/>
</g>
<rect width="100" height="100" class="style2"/>
<path d="M65.368 27.752v8.143h5.721L64.701 59.67c0 0-7.817-31.474-7.929-31.918h-8.268 c-0.118 0.433-8.576 31.92-8.576 31.92l-5.884-23.777h5.959v-8.143H16.101v8.143h5.296c0 0 9.1 36.6 9.2 36.998h12.828 C43.588 72.5 49.6 49.6 49.6 49.613s5.71 22.8 5.8 23.279h12.83c0.113-0.437 9.73-36.998 9.73-36.998h5.251v-8.143H65.368z" class="style3"/>
</svg>