<?xml version="1.0" encoding="utf-8"?>
<!-- Generator: Adobe Illustrator 16.0.4, SVG Export Plug-In . SVG Version: 6.00 Build 0)  -->
<!DOCTYPE svg PUBLIC "-//W3C//DTD SVG 1.1//EN" "http://www.w3.org/Graphics/SVG/1.1/DTD/svg11.dtd">
<svg version="1.1" id="rain_angle" xmlns="http://www.w3.org/2000/svg" xmlns:xlink="http://www.w3.org/1999/xlink" x="0px" y="0px"
	 width="14.344px" height="26.81px" viewBox="0 0 14.344 26.81" enable-background="new 0 0 14.344 26.81" xml:space="preserve">
<polygon fill="none" points="612.001,337.463 493.385,780.143 500.586,780.143 612.001,364.334 "/>
<polygon fill="none" points="612.001,391.206 507.785,780.143 514.986,780.143 612.001,418.077 "/>
<polygon fill="none" points="612.001,364.334 500.586,780.143 507.785,780.143 612.001,391.206 "/>
<polygon fill="none" points="612.001,418.077 514.986,780.143 522.186,780.143 612.001,444.947 "/>
<polygon fill="none" points="612.001,659.912 579.785,780.143 586.986,780.143 612.001,686.786 "/>
<polygon fill="none" points="612.001,713.654 594.186,780.143 601.387,780.143 612.001,740.529 "/>
<polygon fill="none" points="612.001,444.947 522.186,780.143 529.387,780.143 612.001,471.82 "/>
<polygon fill="none" points="612.001,633.043 572.586,780.143 579.785,780.143 612.001,659.912 "/>
<polygon fill="none" points="608.586,780.143 612.001,780.143 612.001,767.397 "/>
<polygon fill="none" points="612.001,740.529 601.387,780.143 608.586,780.143 612.001,767.397 "/>
<polygon fill="none" points="612.001,686.786 586.986,780.143 594.186,780.143 612.001,713.654 "/>
<polygon fill="none" points="612.001,525.559 543.785,780.143 550.986,780.143 612.001,552.432 "/>
<polygon fill="none" points="612.001,498.688 536.586,780.143 543.785,780.143 612.001,525.559 "/>
<polygon fill="none" points="612.001,606.175 565.387,780.143 572.586,780.143 612.001,633.043 "/>
<polygon fill="none" points="612.001,471.82 529.387,780.143 536.586,780.143 612.001,498.688 "/>
<polygon fill="none" points="612.001,579.301 558.186,780.143 565.387,780.143 612.001,606.175 "/>
<polygon fill="none" points="612.001,552.432 550.986,780.143 558.186,780.143 612.001,579.301 "/>
<g>
	<g>
		<path fill="none" stroke="#BFB6B6" stroke-miterlimit="10" d="M14.344,15.224"/>
		<g opacity="0.5">
			<line fill="none" stroke="#BFB6B6" stroke-width="0.25" stroke-miterlimit="10" x1="11.742" y1="-2.036" x2="3.72" y2="28.007"/>
			
				<line fill="none" stroke="#BFB6B6" stroke-width="0.25" stroke-miterlimit="10" x1="14.863" y1="13.188" x2="10.92" y2="28.007"/>
			
				<line fill="none" stroke="#BFB6B6" stroke-width="0.25" stroke-miterlimit="10" x1="-0.319" y1="16.212" x2="4.542" y2="-2.036"/>
		</g>
	</g>
</g>
<g>
</g>
<g>
</g>
<g>
</g>
<g>
</g>
<g>
</g>
<g>
</g>
</svg>
