<?xml version="1.0" encoding="utf-8"?>
<!-- Generator: Adobe Illustrator 14.0.0, SVG Export Plug-In . SVG Version: 6.00 Build 43363)  -->
<!DOCTYPE svg PUBLIC "-//W3C//DTD SVG 1.1//EN" "http://www.w3.org/Graphics/SVG/1.1/DTD/svg11.dtd">
<svg version="1.1" id="Layer_1" xmlns="http://www.w3.org/2000/svg" xmlns:xlink="http://www.w3.org/1999/xlink" x="0px" y="0px"
	 width="500px" height="500px" viewBox="0 0 500 500" enable-background="new 0 0 500 500" xml:space="preserve">
<path d="M438.625,386.7l-94.475-94.476c14.25-23.425,22.449-50.875,22.449-80.3c0-85.4-74.024-159.425-159.45-159.425
	c-85.4,0-154.65,69.25-154.65,154.65c0,85.425,74,159.45,159.425,159.45c28.4,0,55-7.699,77.875-21.074l94.976,95
	c9.324,9.3,24.375,9.3,33.649,0L442,416.975C451.275,407.675,447.9,395.975,438.625,386.7z M100.1,207.15
	c0-59.125,47.925-107.075,107.05-107.075c59.15,0,111.85,52.7,111.85,111.85C319,271.075,271.075,319,211.925,319
	C152.775,319,100.1,266.3,100.1,207.15z"/>
</svg>
