<svg version="1.1" id="Layer_1" xmlns="http://www.w3.org/2000/svg" xmlns:xlink="http://www.w3.org/1999/xlink" x="0px" y="0px"
	 width="252.993px" height="17.033px" viewBox="0 0 252.993 17.033" enable-background="new 0 0 252.993 17.033"
	 xml:space="preserve">
<g>
	<path fill="#FFFFFF" d="M244.742,11.738V2.339l6.524,10.484h0.642V1.361l1.085-1.085h-3.276l1.085,1.085v7.975l-5.655-9.06h-2.597
		l1.064,1.085v10.377l-1.064,1.085h3.277L244.742,11.738 M235.048,12.143c-2.509,0-3.381-2.999-3.381-5.592
		c0-2.595,0.872-5.594,3.381-5.594c2.531,0,3.403,2.999,3.403,5.594C238.451,9.144,237.579,12.143,235.048,12.143 M230.03,6.55
		c0,3.189,1.806,6.549,5.018,6.549c3.233,0,5.04-3.36,5.04-6.549c0-3.191-1.807-6.55-5.04-6.55C231.836,0,230.03,3.359,230.03,6.55
		 M224.356,11.824V1.212h2.381l1.34,1.34V0.276h-8.826v2.276l1.362-1.34h2.359v10.612l-0.978,0.999h3.358L224.356,11.824z
		 M215.066,7.124v4.04c-0.299,0.299-0.895,0.895-2.063,0.895c-2.786,0-4.188-2.808-4.188-5.508c0-2.722,1.766-5.508,4.188-5.508
		c0.638,0,1.106,0.148,1.532,0.595l1.382,1.361V0.829c-0.745-0.383-1.489-0.724-2.914-0.724c-3.423,0-5.827,3.063-5.827,6.445
		c0,3.317,2.404,6.443,5.827,6.443c1.937,0,2.765-0.468,3.446-0.914V7.124l0.977-0.999h-3.358L215.066,7.124z M196.462,11.738V2.339
		l6.603,10.489l0.564-0.005V1.361l1.085-1.085h-3.274l1.084,1.085v7.975l-5.657-9.06h-2.595l1.062,1.085v10.377l-1.062,1.085h3.275
		L196.462,11.738z M187.467,0.276l0.999,1v10.548l-0.999,0.999h3.38l-0.998-0.999V1.276l0.998-1H187.467z M176.324,6.528h5.272
		v5.296l-0.999,0.999h3.381l-0.998-0.999V1.276l0.998-1h-3.381l0.999,1v4.317h-5.272V1.276l0.999-1h-3.361l0.98,1v10.548
		l-0.98,0.999h3.361l-0.999-0.999V6.528z M170.667,9.336c0-1.235-0.575-1.999-1.169-2.405l-2.552-1.849
		c-0.915-0.658-1.384-1.509-1.384-2.149c0-1.317,1.128-1.785,1.809-1.785c0.361,0,0.616,0.149,0.807,0.149l1.107,1.191l1.17-1.744
		l-2.489-0.468c-0.17-0.043-0.275-0.064-0.595-0.064c-2.191,0-3.19,1.871-3.19,3.084c0,0.957,0.488,2.042,1.615,2.87l2.574,1.85
		c0.702,0.49,0.893,1.212,0.893,1.831c0,1.062-0.659,2.212-2.083,2.212c-0.341,0-0.639-0.064-0.874-0.172l-1.189-1.402l-1.084,1.956
		l2.401,0.469c0,0,0.405,0.084,0.746,0.084C168.689,12.993,170.667,11.718,170.667,9.336 M156.629,3.062l1.723,5.189h-3.51
		L156.629,3.062z M153.609,11.844l0.914-2.657h4.147l0.871,2.657l-0.977,0.979h3.551l-0.999-1.021l-3.913-11.525h-0.639
		l-3.979,11.525l-1.019,1.021h3.019L153.609,11.844z M140.268,12.823l2.871-9.081l2.786,9.081h0.638L150.2,1.276l1.02-1h-3.019
		l0.977,0.979l-2.658,8.675l-2.572-8.675l0.978-0.979h-3.551l1,1l0.254,0.829l-2.403,7.826l-2.572-8.675l0.978-0.979h-3.551l1.021,1
		l3.53,11.547H140.268z M121.672,5.303l-0.475,0.459l0.052,0.176h1.467c-0.23,1.59-0.442,2.968-0.778,5.194
		c-0.477,3.304-0.883,4.471-1.219,4.753c-0.106,0.105-0.282,0.158-0.441,0.158c-0.213,0-0.548-0.158-0.778-0.265
		c-0.212-0.105-0.388,0.018-0.495,0.125c-0.141,0.158-0.299,0.405-0.299,0.6c0,0.354,0.459,0.53,0.759,0.53
		c0.336,0,1.184-0.282,1.944-1.219c0.599-0.742,1.413-2.455,2.101-6.448c0.124-0.743,0.266-1.484,0.567-3.428l1.8-0.176l0.39-0.459
		h-2.084c0.53-3.27,0.972-4.258,1.731-4.258c0.531,0,0.972,0.211,1.361,0.582c0.123,0.124,0.317,0.124,0.493-0.018
		c0.143-0.123,0.354-0.406,0.354-0.653c0.017-0.354-0.459-0.741-1.061-0.741c-1.024,0-2.103,0.6-2.845,1.483
		c-0.689,0.83-1.148,2.173-1.395,3.605H121.672z M113.723,9.931c0-2.614,1.324-4.028,1.873-4.257
		c0.157-0.071,0.406-0.142,0.583-0.142c0.883,0,1.396,0.672,1.396,2.032c0.035,2.297-1.166,4.382-1.908,4.629
		c-0.143,0.053-0.372,0.123-0.547,0.123C114.129,12.315,113.723,11.256,113.723,9.931 M116.744,4.879
		c-0.46,0-1.183,0.211-1.908,0.635c-1.219,0.725-2.544,2.368-2.544,4.84c0,1.237,0.582,2.614,2.226,2.614
		c0.777,0,1.891-0.512,2.633-1.183c1.166-1.06,1.854-2.88,1.854-4.452C119.005,5.867,118.227,4.879,116.744,4.879 M96.271,1.276
		l3.169,5.72v4.828l-0.999,0.999h3.381l-0.999-0.999V6.996l3.232-5.699l1.042-1.021h-3.104l0.978,0.979l-2.638,4.699l-2.509-4.699
		l0.978-0.979h-3.551L96.271,1.276z M89.659,11.824V1.212h2.381l1.339,1.34V0.276h-8.825v2.276l1.361-1.34h2.36v10.612l-0.978,0.999
		h3.36L89.659,11.824z M78.28,0.276l1,1v10.548l-1,0.999h3.383l-1-0.999V1.276l1-1H78.28z M74.645,9.336
		c0-1.235-0.575-1.999-1.17-2.405l-2.553-1.849c-0.914-0.658-1.382-1.509-1.382-2.149c0-1.317,1.127-1.785,1.808-1.785
		c0.362,0,0.616,0.149,0.808,0.149l1.106,1.191l1.169-1.744l-2.487-0.468c-0.17-0.043-0.276-0.064-0.596-0.064
		c-2.191,0-3.19,1.871-3.19,3.084c0,0.957,0.489,2.042,1.616,2.87l2.574,1.85c0.701,0.49,0.893,1.212,0.893,1.831
		c0,1.062-0.66,2.212-2.084,2.212c-0.34,0-0.639-0.064-0.872-0.172l-1.192-1.402l-1.084,1.956l2.404,0.469
		c0,0,0.404,0.084,0.744,0.084C72.666,12.993,74.645,11.718,74.645,9.336 M58.524,1.212h1.531c1.34,0,2.404,1.148,2.404,2.508
		c0,1.298-1.086,2.319-2.404,2.319h-1.531V1.212z M58.524,11.824V6.975h1.893l3.041,5.848h2.084l-0.978-0.999l-2.808-5.147
		c1.405-0.425,2.362-1.744,2.362-2.935c0-2.126-1.978-3.466-4.063-3.466h-3.89l0.977,1v10.548l-0.977,0.999h3.359L58.524,11.824z
		 M52.889,12.823v-2.297l-1.34,1.36h-3.806V6.614h2.828l1,0.998V4.679l-1,0.999h-2.828V1.212h3.806l1.34,1.34V0.276h-7.507l0.979,1
		v10.548l-0.979,0.999H52.889z M36.62,0.276h-3.551l1.021,1l3.53,11.547h0.638l3.636-11.547l1.021-1h-3.019l0.977,0.979
		l-2.658,8.675l-2.573-8.675L36.62,0.276z M26.881,0.276l0.999,1v10.548l-0.999,0.999h3.381l-1-0.999V1.276l1-1H26.881z
		 M15.206,11.738V2.339l6.731,10.484h0.435V1.361l1.085-1.085h-3.275l1.084,1.085v7.975l-5.656-9.06h-2.595l1.064,1.085v10.377
		l-1.064,1.085h3.275L15.206,11.738z M1.085,9.463c0,2.062,1.743,3.637,3.892,3.637c2.042,0,4.062-1.51,4.062-3.637V1.361
		l1.063-1.085H6.827l1.084,1.085v8.102c0,1.446-1.148,2.596-2.594,2.596c-1.467,0-2.765-1.129-2.765-2.596V1.361l1.085-1.085H0
		l1.085,1.085V9.463z"/>
</g>
</svg>
