<?xml version="1.0" encoding="utf-8"?>
<!-- Generator: Adobe Illustrator 16.0.4, SVG Export Plug-In . SVG Version: 6.00 Build 0)  -->
<!DOCTYPE svg PUBLIC "-//W3C//DTD SVG 1.1//EN" "http://www.w3.org/Graphics/SVG/1.1/DTD/svg11.dtd">
<svg version="1.1" id="Layer_1" xmlns="http://www.w3.org/2000/svg" xmlns:xlink="http://www.w3.org/1999/xlink" x="0px" y="0px"
	 width="380px" height="42px" viewBox="-72.375 29.75 380 42" enable-background="new -72.375 29.75 380 42" xml:space="preserve">
<g>
	<path fill="#FFFFFF" d="M-26.735,29.839c0,0.496,0,7.051,0,7.546c0.493,0,5.302,0,5.302,0l-5.919,22.025
		c0,0-7.244-29.16-7.345-29.571c-0.395,0-7.272,0-7.66,0c-0.106,0.401-7.943,29.573-7.943,29.573l-5.451-22.027c0,0,5.025,0,5.519,0
		c0-0.494,0-7.049,0-7.546c-0.528,0-21.613,0-22.142,0c0,0.496,0,7.051,0,7.546c0.488,0,4.908,0,4.908,0s8.466,33.861,8.568,34.275
		c0.408,0,11.485,0,11.884,0c0.106-0.404,5.675-21.57,5.675-21.57s5.291,21.164,5.392,21.57c0.405,0,11.483,0,11.885,0
		c0.106-0.404,9.017-34.275,9.017-34.275s4.376,0,4.865,0c0-0.494,0-7.049,0-7.546C-10.705,29.839-26.213,29.839-26.735,29.839z"/>
</g>
<g>
	<path fill="#FFFFFF" d="M9.256,30.202c0.543,0.159,1.031,0.372,1.466,0.639v2.631l-1.604-1.603c-0.25-0.251-0.522-0.431-0.814-0.54
		c-0.292-0.108-0.631-0.162-1.015-0.162c-0.685,0-1.282,0.184-1.792,0.551c-0.51,0.367-0.923,0.86-1.24,1.479
		s-0.556,1.308-0.714,2.065c-0.158,0.762-0.238,1.525-0.238,2.293c0,0.77,0.083,1.539,0.25,2.306
		c0.167,0.769,0.414,1.471,0.739,2.104c0.326,0.635,0.742,1.142,1.253,1.518c0.51,0.375,1.09,0.562,1.741,0.562
		c0.384,0,0.723-0.055,1.015-0.161c0.292-0.109,0.563-0.289,0.814-0.54l1.604-1.604v2.531c-0.451,0.283-0.944,0.5-1.479,0.65
		c-0.534,0.151-1.186,0.226-1.955,0.226c-0.918,0-1.75-0.212-2.493-0.638c-0.744-0.426-1.366-1.002-1.867-1.729
		c-0.501-0.726-0.885-1.54-1.152-2.442c-0.267-0.901-0.401-1.829-0.401-2.782c0-0.952,0.134-1.883,0.401-2.793
		c0.267-0.911,0.664-1.726,1.19-2.443c0.526-0.718,1.186-1.291,1.979-1.717c0.793-0.426,1.691-0.639,2.693-0.639
		C8.175,29.964,8.712,30.044,9.256,30.202z"/>
	<path fill="#FFFFFF" d="M13.853,34.75c0.267-0.92,0.655-1.751,1.166-2.494c0.51-0.744,1.132-1.331,1.866-1.766
		c0.735-0.435,1.562-0.651,2.481-0.651c0.918,0,1.75,0.217,2.493,0.651s1.37,1.021,1.88,1.766c0.509,0.743,0.897,1.574,1.165,2.494
		c0.267,0.919,0.401,1.854,0.401,2.806c0,0.954-0.129,1.889-0.389,2.807c-0.259,0.918-0.647,1.75-1.165,2.493
		c-0.518,0.744-1.149,1.332-1.892,1.767s-1.574,0.65-2.493,0.65c-0.919,0-1.746-0.216-2.481-0.65s-1.357-1.022-1.867-1.767
		c-0.51-0.743-0.898-1.574-1.166-2.493c-0.267-0.918-0.4-1.854-0.4-2.807C13.453,36.604,13.586,35.669,13.853,34.75z M21.221,43.569
		c0.518-0.383,0.936-0.892,1.252-1.527c0.318-0.634,0.548-1.342,0.689-2.116c0.142-0.777,0.213-1.566,0.213-2.37
		c0-0.801-0.071-1.59-0.213-2.367c-0.142-0.776-0.372-1.486-0.689-2.13c-0.317-0.644-0.734-1.153-1.252-1.528
		c-0.519-0.376-1.136-0.564-1.854-0.564c-0.702,0-1.312,0.192-1.83,0.577c-0.518,0.384-0.936,0.893-1.253,1.528
		c-0.317,0.635-0.547,1.336-0.689,2.105c-0.142,0.768-0.213,1.562-0.213,2.379c0,0.819,0.072,1.612,0.213,2.381
		c0.142,0.769,0.372,1.47,0.689,2.105c0.317,0.635,0.735,1.145,1.253,1.527c0.518,0.386,1.127,0.577,1.83,0.577
		C20.084,44.146,20.702,43.954,21.221,43.569z"/>
	<path fill="#FFFFFF" d="M29.063,43.771V31.343l-1.153-1.179h3.959l-1.178,1.179v12.402h3.534l1.603-1.603v2.806H27.91
		L29.063,43.771z"/>
	<path fill="#FFFFFF" d="M39.086,43.771V31.343l-1.153-1.179h3.959l-1.177,1.179v12.402h3.533l1.604-1.603v2.806h-7.918
		L39.086,43.771z"/>
	<path fill="#FFFFFF" d="M47.956,44.948l1.153-1.178V31.343l-1.153-1.179h8.846v2.682l-1.579-1.578h-4.485v5.261h3.333l1.178-1.179
		v3.459l-1.178-1.177h-3.333v6.214h4.485l1.579-1.604v2.706H47.956z"/>
	<path fill="#FFFFFF" d="M67.651,37.055h3.959l-1.153,1.179v5.838c-0.518,0.334-1.069,0.598-1.654,0.789s-1.387,0.287-2.405,0.287
		c-0.986,0-1.9-0.203-2.744-0.613c-0.844-0.41-1.575-0.974-2.192-1.69c-0.619-0.719-1.094-1.538-1.429-2.457
		c-0.334-0.919-0.501-1.862-0.501-2.832c0-0.983,0.167-1.936,0.501-2.855c0.334-0.918,0.81-1.733,1.429-2.443
		c0.618-0.71,1.349-1.27,2.192-1.678c0.843-0.41,1.758-0.614,2.744-0.614c0.751,0,1.374,0.069,1.867,0.213
		c0.492,0.143,1.014,0.354,1.566,0.638v2.558l-1.629-1.604c-0.251-0.249-0.518-0.43-0.802-0.538
		c-0.284-0.109-0.618-0.163-1.002-0.163c-0.685,0-1.332,0.184-1.942,0.552c-0.61,0.367-1.136,0.86-1.579,1.479
		c-0.442,0.617-0.789,1.315-1.04,2.092c-0.25,0.777-0.375,1.566-0.375,2.367c0,0.804,0.104,1.592,0.313,2.37
		c0.209,0.774,0.522,1.475,0.939,2.092c0.417,0.618,0.94,1.109,1.566,1.479c0.626,0.367,1.332,0.551,2.118,0.551
		c0.601,0,1.086-0.105,1.454-0.314c0.368-0.208,0.693-0.454,0.977-0.739v-4.76L67.651,37.055z"/>
	<path fill="#FFFFFF" d="M74.091,44.948l1.152-1.178V31.343l-1.152-1.179h8.845v2.682l-1.578-1.578h-4.486v5.261h3.333l1.178-1.179
		v3.459l-1.178-1.178h-3.333v6.214h4.486l1.578-1.604v2.706L74.091,44.948L74.091,44.948z"/>
	<path fill="#FFFFFF" d="M91.906,34.75c0.268-0.92,0.655-1.751,1.165-2.494c0.511-0.744,1.132-1.331,1.867-1.766
		c0.735-0.435,1.562-0.651,2.48-0.651s1.75,0.217,2.493,0.651s1.37,1.021,1.879,1.766c0.509,0.743,0.897,1.574,1.166,2.494
		c0.267,0.919,0.4,1.854,0.4,2.806c0,0.954-0.129,1.889-0.388,2.807c-0.259,0.918-0.647,1.75-1.165,2.493
		c-0.518,0.744-1.148,1.332-1.892,1.767s-1.575,0.65-2.493,0.65s-1.746-0.216-2.48-0.65c-0.735-0.435-1.357-1.022-1.867-1.767
		c-0.509-0.743-0.897-1.574-1.165-2.493c-0.268-0.918-0.401-1.854-0.401-2.807C91.505,36.604,91.638,35.669,91.906,34.75z
		 M99.272,43.569c0.518-0.383,0.936-0.892,1.253-1.527c0.317-0.634,0.547-1.342,0.689-2.116c0.142-0.777,0.213-1.566,0.213-2.37
		c0-0.801-0.071-1.59-0.213-2.367c-0.142-0.776-0.372-1.486-0.689-2.13s-0.735-1.153-1.253-1.528
		c-0.519-0.376-1.136-0.564-1.854-0.564c-0.702,0-1.311,0.192-1.829,0.577c-0.518,0.384-0.936,0.893-1.253,1.528
		c-0.317,0.635-0.547,1.336-0.689,2.105c-0.142,0.768-0.213,1.562-0.213,2.379c0,0.819,0.071,1.612,0.213,2.381
		c0.142,0.769,0.372,1.47,0.689,2.105c0.317,0.635,0.735,1.145,1.253,1.527c0.518,0.386,1.127,0.577,1.829,0.577
		C98.137,44.146,98.754,43.954,99.272,43.569z"/>
	<path fill="#FFFFFF" d="M107.116,43.771V31.343l-1.153-1.179h8.845v2.682l-1.579-1.578h-4.485v5.16h3.333l1.177-1.178v3.458
		l-1.177-1.179h-3.333v6.24l1.177,1.178h-3.959L107.116,43.771z"/>
	<path fill="#FFFFFF" d="M129.342,44.948h-3.959l1.152-1.178V31.268h-2.781l-1.604,1.578v-2.682h10.398v2.682l-1.579-1.578h-2.806
		v12.503L129.342,44.948z"/>
	<path fill="#FFFFFF" d="M137.108,43.771l1.179,1.178h-3.96l1.153-1.178V31.343l-1.153-1.179h3.96l-1.179,1.179v5.086h6.215v-5.086
		l-1.179-1.179h3.984l-1.178,1.179v12.428l1.178,1.178h-3.984l1.179-1.178v-6.239h-6.215V43.771z"/>
	<path fill="#FFFFFF" d="M148.584,44.948l1.152-1.178V31.343l-1.152-1.179h8.846v2.682l-1.578-1.578h-4.486v5.261h3.332l1.179-1.179
		v3.459l-1.179-1.178h-3.332v6.214h4.486l1.578-1.604v2.706L148.584,44.948L148.584,44.948z"/>
	<path fill="#FFFFFF" d="M165.875,44.948l1.152-1.178V31.343l-1.152-1.179h8.844v2.682l-1.579-1.578h-4.486v5.261h3.333l1.178-1.179
		v3.459l-1.178-1.178h-3.333v6.214h4.486l1.579-1.604v2.706L165.875,44.948L165.875,44.948z"/>
	<path fill="#FFFFFF" d="M181.083,44.948h-3.858l1.254-1.277V31.442l-1.254-1.279h3.058l6.665,10.676v-9.396l-1.278-1.279h3.86
		l-1.278,1.279v14.634l-8.445-13.481v11.076L181.083,44.948z"/>
	<path fill="#FFFFFF" d="M194.113,31.317l3.032,10.224l3.132-10.224l-1.153-1.153h3.558l-1.201,1.179l-4.284,13.605h-0.752
		l-4.16-13.605l-1.203-1.179h4.185L194.113,31.317z"/>
	<path fill="#FFFFFF" d="M208.722,30.164l-1.179,1.179v12.428l1.179,1.178h-3.984l1.177-1.178V31.343l-1.177-1.179H208.722z"/>
	<path fill="#FFFFFF" d="M215.562,44.948h-3.958l1.152-1.178V31.343l-1.152-1.179h4.584c0.62,0,1.215,0.098,1.792,0.289
		c0.577,0.192,1.092,0.468,1.542,0.826c0.45,0.359,0.806,0.794,1.064,1.304c0.261,0.51,0.39,1.064,0.39,1.666
		c0,0.718-0.264,1.413-0.789,2.079c-0.526,0.667-1.191,1.128-1.992,1.379l3.31,6.063l1.151,1.178H220.2l-3.585-6.891h-2.23v5.713
		L215.562,44.948z M214.385,36.954h1.803c0.785,0,1.454-0.263,2.007-0.789c0.55-0.525,0.825-1.173,0.825-1.941
		c0-0.802-0.275-1.495-0.825-2.078c-0.553-0.587-1.222-0.878-2.007-0.878h-1.803V36.954z"/>
	<path fill="#FFFFFF" d="M224.858,34.75c0.267-0.92,0.656-1.751,1.164-2.494c0.51-0.744,1.134-1.331,1.868-1.766
		c0.733-0.435,1.562-0.651,2.479-0.651c0.919,0,1.751,0.217,2.493,0.651c0.745,0.435,1.371,1.021,1.881,1.766
		c0.51,0.743,0.896,1.574,1.164,2.494c0.268,0.919,0.401,1.854,0.401,2.806c0,0.954-0.13,1.889-0.389,2.807
		c-0.26,0.918-0.646,1.75-1.165,2.493c-0.518,0.744-1.147,1.332-1.89,1.767c-0.745,0.435-1.574,0.65-2.494,0.65
		s-1.746-0.216-2.481-0.65c-0.734-0.435-1.356-1.022-1.866-1.767c-0.51-0.743-0.897-1.574-1.164-2.493
		c-0.268-0.918-0.402-1.854-0.402-2.807C224.458,36.604,224.591,35.669,224.858,34.75z M232.226,43.569
		c0.518-0.383,0.936-0.892,1.252-1.527c0.318-0.634,0.547-1.342,0.689-2.116c0.143-0.777,0.214-1.566,0.214-2.37
		c0-0.801-0.071-1.59-0.214-2.367c-0.143-0.776-0.371-1.486-0.689-2.13s-0.734-1.153-1.252-1.528
		c-0.518-0.376-1.136-0.564-1.855-0.564c-0.702,0-1.312,0.192-1.829,0.577c-0.519,0.384-0.935,0.893-1.252,1.528
		c-0.318,0.635-0.547,1.336-0.689,2.105c-0.143,0.768-0.212,1.562-0.212,2.379c0,0.819,0.069,1.612,0.212,2.381
		s0.371,1.47,0.689,2.105c0.317,0.635,0.733,1.145,1.252,1.527c0.518,0.386,1.127,0.577,1.829,0.577
		C231.09,44.146,231.708,43.954,232.226,43.569z"/>
	<path fill="#FFFFFF" d="M242.674,44.948h-3.857l1.252-1.277V31.442l-1.252-1.279h3.057l6.664,10.676v-9.396l-1.276-1.279h3.857
		l-1.278,1.279v14.634l-8.444-13.481v11.076L242.674,44.948z"/>
	<path fill="#FFFFFF" d="M253.498,44.948l1.152-1.178V31.343l-1.152-1.179h3.156l4.46,7.567l4.436-7.567h2.755l-1.152,1.179v12.428
		l1.152,1.178h-3.958l1.179-1.178V32.619l-4.735,7.994l-4.811-8.094v11.251l1.177,1.178H253.498z"/>
	<path fill="#FFFFFF" d="M270.788,44.948l1.152-1.178V31.343l-1.152-1.179h8.844v2.682l-1.578-1.578h-4.486v5.261h3.334l1.177-1.179
		v3.459l-1.177-1.178h-3.334v6.214h4.486l1.578-1.604v2.706L270.788,44.948L270.788,44.948z"/>
	<path fill="#FFFFFF" d="M285.996,44.948h-3.857l1.252-1.277V31.442l-1.252-1.279h3.057l6.666,10.676v-9.396l-1.279-1.279h3.858
		l-1.276,1.279v14.634l-8.444-13.481v11.076L285.996,44.948z"/>
	<path fill="#FFFFFF" d="M303.286,44.948h-3.96l1.154-1.178V31.268h-2.781l-1.604,1.578v-2.682h10.399v2.682l-1.578-1.578h-2.809
		v12.503L303.286,44.948z"/>
</g>
<g>
	<path fill="#FFFFFF" d="M204.957,67.341v-7.669l5.332,8.553h0.523v-9.351l0.887-0.885h-2.676l0.887,0.885v6.506l-4.623-7.391
		h-2.121l0.869,0.885v8.467l-0.869,0.884h2.676L204.957,67.341z M196.439,67.671c-2.051,0-2.764-2.448-2.764-4.563
		c0-2.117,0.713-4.563,2.764-4.563c2.068,0,2.781,2.446,2.781,4.563C199.221,65.223,198.508,67.671,196.439,67.671 M192.34,63.107
		c0,2.602,1.475,5.344,4.1,5.344c2.641,0,4.119-2.742,4.119-5.344c0-2.604-1.479-5.344-4.119-5.344
		C193.814,57.764,192.34,60.504,192.34,63.107 M187.107,67.41v-8.658h1.945l1.096,1.093v-1.855h-7.213v1.855l1.113-1.093h1.928
		v8.658l-0.799,0.814h2.746L187.107,67.41z M178.922,63.576v3.297c-0.244,0.242-0.73,0.728-1.686,0.728
		c-2.277,0-3.424-2.29-3.424-4.493c0-2.221,1.441-4.493,3.424-4.493c0.52,0,0.902,0.121,1.25,0.485l1.131,1.11v-1.771
		c-0.607-0.312-1.217-0.589-2.381-0.589c-2.799,0-4.762,2.498-4.762,5.257c0,2.706,1.963,5.257,4.762,5.257
		c1.582,0,2.26-0.383,2.814-0.746v-4.042l0.799-0.815h-2.746L178.922,63.576z M163.717,67.341v-7.669l5.395,8.558l0.461-0.005
		v-9.351l0.888-0.885h-2.676l0.886,0.885v6.506l-4.624-7.391h-2.12l0.87,0.885v8.467l-0.87,0.884h2.677L163.717,67.341z
		 M156.366,57.989l0.816,0.816v8.604l-0.816,0.814h2.761l-0.816-0.814v-8.604l0.816-0.816H156.366z M147.258,63.09h4.31v4.32
		l-0.816,0.814h2.763l-0.816-0.814v-8.604l0.816-0.816h-2.763l0.816,0.816v3.521h-4.31v-3.521l0.817-0.816h-2.746l0.8,0.816v8.604
		l-0.8,0.814h2.746l-0.817-0.814V63.09z M142.636,65.38c0-1.006-0.47-1.631-0.957-1.96l-2.085-1.51
		c-0.748-0.537-1.13-1.232-1.13-1.753c0-1.075,0.921-1.458,1.478-1.458c0.295,0,0.503,0.122,0.66,0.122l0.902,0.973l0.957-1.423
		l-2.032-0.382c-0.139-0.036-0.226-0.053-0.486-0.053c-1.792,0-2.607,1.526-2.607,2.516c0,0.78,0.4,1.667,1.321,2.343l2.104,1.509
		c0.573,0.399,0.729,0.989,0.729,1.493c0,0.867-0.539,1.804-1.703,1.804c-0.278,0-0.522-0.052-0.714-0.139l-0.972-1.145
		l-0.886,1.596l1.964,0.383c0,0,0.33,0.068,0.608,0.068C141.019,68.364,142.636,67.323,142.636,65.38 M131.163,60.262l1.408,4.233
		h-2.867L131.163,60.262z M128.695,67.427l0.747-2.169h3.389l0.713,2.169l-0.799,0.798h2.902l-0.816-0.833l-3.198-9.402h-0.522
		l-3.251,9.402l-0.833,0.833h2.467L128.695,67.427z M117.792,68.225l2.346-7.408l2.278,7.408h0.521l2.972-9.419l0.834-0.816h-2.467
		l0.799,0.798l-2.172,7.078l-2.104-7.078l0.8-0.798h-2.904l0.817,0.816l0.21,0.676l-1.964,6.384l-2.102-7.078l0.798-0.798h-2.902
		l0.834,0.816l2.884,9.419H117.792z M101.407,62.09l-0.39,0.374l0.043,0.145h1.199c-0.189,1.297-0.362,2.422-0.636,4.237
		c-0.39,2.696-0.722,3.647-0.998,3.877c-0.085,0.087-0.229,0.131-0.359,0.131c-0.174,0-0.449-0.131-0.636-0.218
		c-0.172-0.086-0.316,0.016-0.404,0.103c-0.116,0.129-0.246,0.33-0.246,0.488c0,0.289,0.375,0.434,0.621,0.434
		c0.275,0,0.967-0.23,1.589-0.994c0.49-0.605,1.153-2.004,1.717-5.262c0.101-0.605,0.216-1.21,0.462-2.796l1.472-0.145l0.318-0.374
		h-1.705c0.434-2.667,0.794-3.474,1.416-3.474c0.433,0,0.793,0.173,1.112,0.476c0.102,0.1,0.261,0.1,0.405-0.015
		c0.115-0.101,0.289-0.333,0.289-0.534c0.015-0.287-0.376-0.604-0.867-0.604c-0.838,0-1.719,0.489-2.325,1.211
		c-0.562,0.677-0.938,1.771-1.141,2.94H101.407z M94.908,65.865c0-2.133,1.084-3.286,1.532-3.474
		c0.13-0.058,0.331-0.114,0.478-0.114c0.721,0,1.139,0.547,1.139,1.656c0.028,1.874-0.953,3.575-1.559,3.776
		c-0.115,0.044-0.303,0.102-0.448,0.102C95.242,67.812,94.908,66.947,94.908,65.865 M97.379,61.743c-0.375,0-0.967,0.173-1.561,0.52
		c-0.995,0.591-2.078,1.932-2.078,3.949c0,1.009,0.476,2.133,1.819,2.133c0.635,0,1.545-0.418,2.152-0.965
		c0.953-0.865,1.516-2.35,1.516-3.633C99.227,62.55,98.591,61.743,97.379,61.743 M80.055,58.806l2.588,4.666v3.938l-0.816,0.814
		h2.762l-0.815-0.814v-3.938l2.641-4.65l0.852-0.832h-2.538l0.799,0.798l-2.155,3.835l-2.05-3.835l0.799-0.798h-2.903L80.055,58.806
		z M74.649,67.41v-8.658h1.946l1.095,1.093v-1.855h-7.213v1.855l1.112-1.093h1.929v8.658l-0.8,0.814h2.747L74.649,67.41z
		 M65.351,57.989l0.817,0.816v8.604l-0.817,0.814h2.764l-0.818-0.814v-8.604l0.818-0.816H65.351z M62.379,65.38
		c0-1.006-0.47-1.631-0.957-1.96l-2.085-1.51c-0.747-0.537-1.13-1.232-1.13-1.753c0-1.075,0.921-1.458,1.477-1.458
		c0.296,0,0.504,0.122,0.661,0.122l0.902,0.973l0.957-1.423l-2.034-0.382c-0.139-0.036-0.226-0.053-0.487-0.053
		c-1.79,0-2.605,1.526-2.605,2.516c0,0.78,0.398,1.667,1.32,2.343l2.102,1.509c0.574,0.399,0.73,0.989,0.73,1.493
		c0,0.867-0.538,1.804-1.702,1.804c-0.279,0-0.522-0.052-0.714-0.139l-0.974-1.145l-0.885,1.596l1.962,0.383
		c0,0,0.331,0.068,0.61,0.068C60.762,68.364,62.379,67.323,62.379,65.38 M49.205,58.752h1.251c1.096,0,1.964,0.937,1.964,2.047
		c0,1.06-0.886,1.892-1.964,1.892h-1.251V58.752z M49.205,67.41v-3.956h1.546l2.485,4.771h1.704l-0.799-0.814l-2.295-4.199
		c1.148-0.347,1.93-1.423,1.93-2.395c0-1.734-1.616-2.827-3.32-2.827h-3.18l0.799,0.816v8.604l-0.799,0.814h2.746L49.205,67.41z
		 M44.6,68.225v-1.873l-1.095,1.11h-3.112v-4.303h2.312l0.817,0.814v-2.393l-0.817,0.815h-2.312v-3.645h3.112l1.095,1.093v-1.855
		h-6.135l0.799,0.816v8.604l-0.799,0.814H44.6z M31.304,57.989h-2.902l0.834,0.816l2.885,9.419h0.521l2.973-9.419l0.834-0.816H33.98
		l0.8,0.798l-2.173,7.078l-2.103-7.078L31.304,57.989z M23.344,57.989l0.817,0.816v8.604l-0.817,0.814h2.765l-0.818-0.814v-8.604
		l0.818-0.816H23.344z M13.802,67.341v-7.669l5.501,8.553h0.356v-9.351l0.886-0.885h-2.677l0.887,0.885v6.506l-4.623-7.391h-2.121
		l0.869,0.885v8.467l-0.869,0.884h2.677L13.802,67.341z M2.262,65.484c0,1.683,1.424,2.967,3.181,2.967
		c1.669,0,3.32-1.232,3.32-2.967v-6.61l0.869-0.885H6.955l0.886,0.885v6.61c0,1.18-0.938,2.116-2.12,2.116
		c-1.199,0-2.26-0.92-2.26-2.116v-6.61l0.887-0.885H1.376l0.886,0.885V65.484z"/>
</g>
</svg>
