<?xml version="1.0" encoding="utf-8"?>
<!-- Generator: Adobe Illustrator 16.0.0, SVG Export Plug-In . SVG Version: 6.00 Build 0)  -->
<!DOCTYPE svg PUBLIC "-//W3C//DTD SVG 1.1//EN" "http://www.w3.org/Graphics/SVG/1.1/DTD/svg11.dtd">
<svg version="1.1" id="Layer_1" xmlns="http://www.w3.org/2000/svg" xmlns:xlink="http://www.w3.org/1999/xlink" x="0px" y="0px"
	 viewBox="0 0 504 100" enable-background="new 0 0 504 100" xml:space="preserve">
<polygon fill="#4B2E83" points="0,0 0,99.755 477.938,99.755 503.936,0 "/>
<g>
	<defs>
		<rect id="SVGID_1_" width="504" height="100"/>
	</defs>
	<clipPath id="SVGID_2_">
		<use xlink:href="#SVGID_1_"  overflow="visible"/>
	</clipPath>
	<path clip-path="url(#SVGID_2_)" fill="#FFFFFF" d="M356.297,64.876v-7.278l5.052,8.118h0.498v-8.874l0.839-0.84h-2.536l0.841,0.84
		v6.173l-4.377-7.013h-2.008l0.821,0.84v8.034l-0.821,0.84h2.533L356.297,64.876z M348.793,65.19c-1.943,0-2.618-2.321-2.618-4.332
		c0-2.01,0.675-4.328,2.618-4.328c1.96,0,2.67,2.324,2.67,4.328c0,2.005-0.71,4.298-2.663,4.298 M344.908,60.858
		c0,2.498,1.378,5.083,3.875,5.083c2.503,0,3.902-2.601,3.902-5.069c0-2.47-1.399-5.071-3.902-5.071
		c-2.478-0.032-3.86,2.551-3.86,5.051 M340.516,64.984v-8.213h1.842l1.04,1.035v-1.76h-6.834v1.76l1.055-1.035h1.828v8.213
		l-0.76,0.773h2.603l-0.773-0.817V64.984z M333.324,61.303v3.129c-0.231,0.231-0.692,0.694-1.598,0.694
		c-2.155,0-3.243-2.175-3.243-4.266c0-2.107,1.367-4.263,3.243-4.263c0.496,0,0.861,0.086,1.205,0.459l1.07,1.058v-1.683
		c-0.575-0.297-1.152-0.559-2.255-0.559c-2.651,0-4.512,2.371-4.512,4.996c0,2.582,1.894,4.997,4.478,4.988
		c1.498,0,2.142-0.364,2.671-0.71v-3.834l0.755-0.772h-2.602L333.324,61.303z M318.922,64.876v-7.278l5.107,8.121l0.441-0.003
		v-8.874l0.84-0.84h-2.535l0.839,0.84v6.173l-4.379-7.013h-2.009l0.825,0.84v8.034l-0.825,0.84h2.534L318.922,64.876z
		 M311.957,56.003l0.775,0.772v8.167l-0.775,0.773h2.617l-0.772-0.773v-8.167l0.772-0.772H311.957z M303.329,60.851h4.085v4.099
		l-0.775,0.773h2.619l-0.774-0.773v-8.166l0.774-0.773h-2.619l0.775,0.773v3.344h-4.085v-3.353l0.776-0.772h-2.604l0.759,0.772
		v8.164l-0.759,0.776h2.604l-0.776-0.776v-4.096V60.851z M298.952,63.016c0-0.954-0.445-1.547-0.908-1.859l-1.972-1.432
		c-0.711-0.512-1.073-1.17-1.073-1.664c0-1.021,0.873-1.38,1.399-1.38c0.279,0,0.517,0.086,0.603,0.114l0.855,0.921l0.906-1.349
		l-1.927-0.362c-0.131-0.033-0.213-0.051-0.46-0.051c-1.695,0-2.469,1.449-2.469,2.386c0,0.776,0.344,1.551,1.293,2.223l1.99,1.464
		c0.544,0.345,0.69,0.947,0.69,1.415c0,0.824-0.51,1.715-1.615,1.715c-0.26,0-0.494-0.052-0.675-0.133l-0.921-1.089l-0.842,1.55
		l1.861,0.362c0,0,0.344,0.087,0.603,0.065c1.13-0.065,2.636-1.016,2.636-2.909 M288.083,58.159l1.334,4.017h-2.715L288.083,58.159z
		 M285.746,64.959l0.706-2.06h3.21l0.676,2.06l-0.758,0.757h2.75l-0.772-0.791l-3.031-8.922h-0.494l-3.077,8.922l-0.79,0.791h2.336
		L285.746,64.959z M275.419,65.716l2.222-7.029l2.157,7.029h0.494l2.815-8.94l0.791-0.772h-2.339l0.757,0.756l-2.056,6.719
		l-1.992-6.719l0.757-0.756h-2.749l0.776,0.772l0.195,0.642l-1.86,6.06l-1.991-6.719l0.76-0.756h-2.75l0.787,0.772l2.734,8.94
		L275.419,65.716z M261.023,59.894l-0.37,0.354l0.041,0.138h1.135c-0.179,1.231-0.342,2.298-0.602,4.049
		c-0.369,2.559-0.685,3.461-0.942,3.68c-0.082,0.081-0.219,0.122-0.342,0.122c-0.165,0-0.424-0.122-0.601-0.203
		c-0.165-0.084-0.304,0.014-0.384,0.096c-0.108,0.122-0.232,0.312-0.232,0.464c0,0.258,0.344,0.43,0.603,0.43
		c0.261,0,0.917-0.219,1.506-0.943c0.465-0.574,1.095-1.9,1.626-4.992c0.097-0.575,0.204-1.15,0.438-2.654l1.394-0.137l0.302-0.355
		h-1.614c0.412-2.529,0.753-3.298,1.34-3.298c0.412,0,0.777,0.172,1.035,0.454c0.096,0.086,0.259,0.086,0.38-0.014
		c0.111-0.098,0.275-0.315,0.275-0.506c0.013-0.275-0.356-0.575-0.821-0.575c-0.792,0-1.627,0.464-2.201,1.12
		c-0.535,0.645-0.89,1.682-1.081,2.79h-0.884L261.023,59.894L261.023,59.894z M254.866,63.477c0-2.025,1.025-3.119,1.451-3.298
		c0.123-0.053,0.313-0.108,0.451-0.108c0.683,0,1.119,0.516,1.119,1.574c0.028,1.776-0.901,3.395-1.478,3.618
		c-0.108,0.043-0.286,0.096-0.423,0.096c-0.804-0.028-1.159-0.891-1.159-1.838 M257.206,59.56c-0.355,0-0.916,0.164-1.478,0.492
		c-0.945,0.56-1.97,1.83-1.97,3.748c0,0.947,0.432,2.067,1.723,2.067c0.602,0,1.463-0.397,2.039-0.916
		c0.899-0.821,1.435-2.232,1.435-3.449c0.001-1.169-0.597-1.942-1.716-1.942 M241.357,56.775l2.454,4.43v3.737l-0.772,0.773h2.616
		l-0.773-0.773v-3.737l2.503-4.413l0.808-0.789h-2.404l0.758,0.775l-2.043,3.641l-1.94-3.641l0.756-0.755h-2.749L241.357,56.775z
		 M236.237,64.94v-8.213h1.845l1.037,1.036v-1.761h-6.834v1.761l1.054-1.036h1.827v8.213l-0.757,0.775h2.603L236.237,64.94z
		 M227.428,56.003l0.775,0.772v8.167l-0.775,0.773h2.619l-0.773-0.773v-8.167l0.773-0.772H227.428z M224.614,63.016
		c0-0.954-0.446-1.547-0.905-1.859l-1.976-1.432c-0.71-0.512-1.069-1.17-1.069-1.664c0-1.021,0.872-1.38,1.397-1.38
		c0.28,0,0.517,0.086,0.603,0.114l0.856,0.921l0.906-1.349l-1.925-0.362c-0.132-0.033-0.215-0.051-0.462-0.051
		c-1.695,0-2.469,1.449-2.469,2.386c0,0.776,0.344,1.551,1.291,2.223l1.992,1.464c0.544,0.345,0.69,0.947,0.69,1.415
		c0,0.824-0.511,1.715-1.613,1.715c-0.263,0-0.494-0.052-0.674-0.133l-0.923-1.089l-0.841,1.55l1.861,0.362
		c0,0,0.345,0.087,0.603,0.065c1.127-0.065,2.64-1.016,2.64-2.909 M212.134,56.727h1.186c1.037,0,1.895,0.861,1.895,1.94
		c0,1.006-0.839,1.797-1.858,1.797h-1.187v-3.737H212.134z M212.134,64.94v-3.751h1.466l2.353,4.527h1.614l-0.758-0.773
		l-2.172-3.983c1.085-0.331,1.827-1.352,1.827-2.272c0-1.648-1.53-2.683-3.144-2.683h-3.014l0.759,0.771v8.164l-0.759,0.777h2.602
		L212.134,64.94z M207.772,65.716v-1.778l-1.038,1.054h-2.946v-4.084h2.189l0.774,0.774V59.41l-0.774,0.772h-2.189v-3.456h2.946
		l1.038,1.037v-1.762h-5.812l0.758,0.773v8.165l-0.758,0.774L207.772,65.716L207.772,65.716z M195.178,56.003h-2.749l0.79,0.772
		l2.734,8.94h0.494l2.816-8.94l0.791-0.772h-2.337l0.757,0.756l-2.059,6.719l-1.992-6.719L195.178,56.003z M187.638,56.003
		l0.773,0.772v8.167l-0.773,0.773h2.616l-0.773-0.773v-8.167l0.773-0.772H187.638z M178.599,64.876v-7.278l5.212,8.118h0.34v-8.874
		l0.837-0.84h-2.535l0.842,0.84v6.173l-4.38-7.013h-2.008l0.821,0.84v8.034l-0.821,0.84h2.533L178.599,64.876z M167.668,63.089
		c0,1.637,1.378,2.844,3.015,2.813c1.579,0,3.143-1.166,3.143-2.813v-6.274l0.823-0.838h-2.534l0.839,0.838v6.274
		c0,1.12-0.888,2.008-2.01,2.008c-1.134,0-2.139-0.871-2.139-2.008v-6.274l0.839-0.812h-2.818l0.841,0.84v6.273L167.668,63.089z"/>
	<path clip-path="url(#SVGID_2_)" fill="#FFFFFF" d="M171.094,45.637c-3.379,0-5.559-3.699-5.559-7.523
		c0-3.885,2.235-7.524,5.559-7.524c1.699,0,2.582,0.483,3.271,0.866v2.997l-1.792-2.004c-0.425-0.498-0.886-0.702-1.515-0.702
		c-2.493,0-3.158,3.513-3.158,6.355c0,2.89,0.774,6.357,3.183,6.367c0.628,0,1.091-0.208,1.516-0.703l1.791-2.005v3.019
		c-0.635,0.463-1.432,0.848-3.325,0.856L171.094,45.637L171.094,45.637z"/>
	<path clip-path="url(#SVGID_2_)" fill="#FFFFFF" d="M182.396,45.741c-3.453,0-5.615-3.803-5.615-7.627
		c0-3.825,2.161-7.627,5.615-7.627c3.454,0,5.594,3.755,5.594,7.608c0,3.851-2.141,7.632-5.567,7.646H182.396z M182.396,31.688
		c-2.493,0-3.212,3.534-3.212,6.427c0,2.895,0.719,6.453,3.183,6.429c2.465-0.024,3.213-3.534,3.213-6.429
		c0-2.893-0.691-6.449-3.155-6.427H182.396z"/>
	<polygon clip-path="url(#SVGID_2_)" fill="#FFFFFF" points="190.39,45.431 191.517,44.17 191.517,32.059 190.39,30.798 
		194.639,30.798 193.512,32.059 193.512,44.232 196.632,44.232 198.129,42.56 198.129,45.432 190.39,45.432 	"/>
	<polygon clip-path="url(#SVGID_2_)" fill="#FFFFFF" points="199.992,45.431 201.119,44.17 201.119,32.059 199.992,30.798 
		204.24,30.798 203.113,32.059 203.113,44.232 206.235,44.232 207.731,42.56 207.731,45.432 199.992,45.432 	"/>
	<polygon clip-path="url(#SVGID_2_)" fill="#FFFFFF" points="209.593,45.431 210.72,44.17 210.72,32.059 209.593,30.798 
		217.793,30.798 217.793,33.67 216.298,31.997 212.714,31.997 212.714,36.998 215.282,36.998 216.408,35.735 216.408,39.457 
		215.282,38.195 212.714,38.195 212.714,44.231 216.298,44.231 217.793,42.559 217.793,45.431 	"/>
	<path clip-path="url(#SVGID_2_)" fill="#FFFFFF" d="M230.424,38.776v5.786c-0.904,0.601-1.773,1.075-3.934,1.075
		c-3.546,0-6.317-3.452-6.317-7.524c0-4.072,2.863-7.524,6.409-7.524c1.515,0,2.496,0.385,3.271,0.849v3.015l-1.792-2.004
		c-0.426-0.474-0.868-0.702-1.496-0.702c-2.512,0-3.991,3.327-3.991,6.365c0,3.039,1.479,6.358,3.959,6.367
		c0.832,0,1.515-0.352,1.848-0.723v-4.981l-1.127-1.262h4.249L230.424,38.776z"/>
	<polygon clip-path="url(#SVGID_2_)" fill="#FFFFFF" points="233.302,45.431 234.428,44.17 234.428,32.059 233.302,30.798 
		241.502,30.798 241.502,33.67 240.006,31.997 236.423,31.997 236.423,36.998 238.99,36.998 240.117,35.735 240.117,39.457 
		238.99,38.195 236.423,38.195 236.423,44.231 240.006,44.231 241.502,42.559 241.502,45.431 	"/>
	<path clip-path="url(#SVGID_2_)" fill="#FFFFFF" d="M254.907,45.741c-3.454,0-5.615-3.803-5.615-7.627
		c0-3.825,2.162-7.627,5.615-7.627c3.454,0,5.616,3.755,5.595,7.608c-0.021,3.851-2.139,7.632-5.617,7.646H254.907z M254.907,31.688
		c-2.492,0-3.213,3.534-3.213,6.427c0,2.895,0.722,6.453,3.185,6.453c2.493,0,3.212-3.534,3.212-6.429
		c0-2.894-0.689-6.474-3.206-6.452L254.907,31.688L254.907,31.688z"/>
	<polygon clip-path="url(#SVGID_2_)" fill="#FFFFFF" points="269.607,31.996 266.024,31.996 266.024,36.997 268.592,36.997 
		269.718,35.736 269.718,39.456 268.592,38.195 266.024,38.195 266.024,44.169 267.151,45.429 262.901,45.429 264.029,44.169 
		264.029,32.059 262.901,30.798 271.102,30.798 271.102,33.67 	"/>
	<polygon clip-path="url(#SVGID_2_)" fill="#FFFFFF" points="285.986,31.996 283.787,31.996 283.787,44.171 284.915,45.431 
		280.665,45.431 281.794,44.171 281.794,31.996 279.596,31.996 278.099,33.67 278.099,30.798 287.481,30.798 287.481,33.67 	"/>
	<polygon clip-path="url(#SVGID_2_)" fill="#FFFFFF" points="296.344,45.431 297.472,44.17 297.472,38.196 292.542,38.196 
		292.542,44.17 293.67,45.431 289.42,45.431 290.546,44.17 290.546,32.059 289.42,30.798 293.67,30.798 292.542,32.059 
		292.542,36.998 297.472,36.998 297.472,32.059 296.344,30.798 300.594,30.798 299.468,32.059 299.468,44.17 300.594,45.431 	"/>
	<polygon clip-path="url(#SVGID_2_)" fill="#FFFFFF" points="302.806,45.431 303.931,44.17 303.931,32.059 302.806,30.798 
		311.006,30.798 311.006,33.67 309.509,31.997 305.925,31.997 305.925,36.998 308.494,36.998 309.619,35.735 309.619,39.457 
		308.494,38.195 305.925,38.195 305.925,44.231 309.509,44.231 311.006,42.559 311.006,45.431 	"/>
	<polygon clip-path="url(#SVGID_2_)" fill="#FFFFFF" points="318.631,45.431 319.757,44.17 319.757,32.059 318.631,30.798 
		326.831,30.798 326.831,33.67 325.337,31.997 321.752,31.997 321.752,36.998 324.318,36.998 325.445,35.735 325.445,39.457 
		324.318,38.195 321.752,38.195 321.752,44.231 325.337,44.231 326.831,42.559 326.831,45.431 	"/>
	<polygon clip-path="url(#SVGID_2_)" fill="#FFFFFF" points="339.001,32.059 339.001,46.63 331.428,33.463 331.428,44.17 
		332.555,45.431 329.045,45.431 330.173,44.17 330.173,32.059 329.045,30.799 332.315,30.799 337.744,40.327 337.744,32.059 
		336.619,30.799 340.127,30.799 	"/>
	<polygon clip-path="url(#SVGID_2_)" fill="#FFFFFF" points="351.149,32.079 347.366,45.43 346.147,45.43 342.452,32.079 
		341.307,30.799 345.685,30.799 344.577,32.038 347.201,41.861 349.896,32.064 348.788,30.825 352.296,30.825 	"/>
	<polygon clip-path="url(#SVGID_2_)" fill="#FFFFFF" points="353.789,45.431 354.916,44.17 354.916,32.059 353.789,30.798 
		358.037,30.798 356.908,32.059 356.908,44.17 358.037,45.431 	"/>
	<path clip-path="url(#SVGID_2_)" fill="#FFFFFF" d="M368.415,45.43l-3.122-6.716h-1.738v5.456l1.129,1.26h-4.249l1.127-1.26V32.059
		l-1.127-1.261h4.71c2.219,0,4.476,1.252,4.476,4.009c0,1.53-0.995,2.954-2.439,3.471l2.901,5.891l1.127,1.26L368.415,45.43z
		 M365.146,31.996h-1.589v5.518h1.589c1.257,0,2.236-1.075,2.236-2.708c-0.001-1.696-0.963-2.853-2.253-2.811L365.146,31.996
		L365.146,31.996z"/>
	<path clip-path="url(#SVGID_2_)" fill="#FFFFFF" d="M378.312,45.741c-3.454,0-5.612-3.803-5.612-7.627
		c0-3.825,2.159-7.627,5.612-7.627s5.614,3.755,5.596,7.608c-0.021,3.851-2.141,7.632-5.611,7.646H378.312z M378.312,31.688
		c-2.492,0-3.213,3.534-3.213,6.427c0,2.895,0.722,6.453,3.185,6.453c2.492,0,3.213-3.534,3.213-6.429
		c0-2.894-0.689-6.474-3.201-6.452L378.312,31.688L378.312,31.688z"/>
	<polygon clip-path="url(#SVGID_2_)" fill="#FFFFFF" points="396.262,32.059 396.262,46.63 388.686,33.463 388.686,44.17 
		389.813,45.431 386.309,45.431 387.435,44.17 387.435,32.059 386.309,30.799 389.576,30.799 395.008,40.327 395.008,32.059 
		393.879,30.799 397.388,30.799 	"/>
	<polygon clip-path="url(#SVGID_2_)" fill="#FFFFFF" points="408.929,45.431 410.057,44.17 410.057,33.236 405.975,41.359 
		401.891,33.236 401.891,44.171 403.019,45.432 399.512,45.432 400.638,44.171 400.638,32.059 399.512,30.798 402.983,30.798 
		406.548,37.908 410.095,30.798 413.179,30.798 412.053,32.059 412.053,44.17 413.179,45.431 	"/>
	<polygon clip-path="url(#SVGID_2_)" fill="#FFFFFF" points="415.39,45.431 416.516,44.17 416.516,32.059 415.39,30.798 
		423.59,30.798 423.59,33.67 422.094,31.997 418.512,31.997 418.512,36.998 421.078,36.998 422.204,35.735 422.204,39.457 
		421.078,38.195 418.512,38.195 418.512,44.231 422.094,44.231 423.59,42.559 423.59,45.431 	"/>
	<polygon clip-path="url(#SVGID_2_)" fill="#FFFFFF" points="435.758,32.059 435.758,46.63 428.186,33.463 428.186,44.17 
		429.311,45.431 425.804,45.431 426.932,44.17 426.932,32.059 425.804,30.799 429.073,30.799 434.503,40.327 434.503,32.059 
		433.377,30.799 436.886,30.799 	"/>
	<polygon clip-path="url(#SVGID_2_)" fill="#FFFFFF" points="446.616,31.996 444.418,31.996 444.418,44.171 445.546,45.431 
		441.297,45.431 442.423,44.171 442.423,31.996 440.225,31.996 438.728,33.67 438.728,30.798 448.111,30.798 448.111,33.67 	"/>
	<path clip-path="url(#SVGID_2_)" fill="#FFFFFF" d="M112.337,14.458v16.088h11.302l-12.62,46.972c0,0-15.444-62.182-15.664-63.06
		H79.019c-0.233,0.856-16.944,63.065-16.944,63.065L50.449,30.547h11.774V14.458H15v16.088h10.463c0,0,17.011,68.42,17.21,69.208
		h27.381c0.321-0.779,11.128-42.131,11.128-42.105c0,0.027,10.334,41.159,10.512,42.105h27.318
		c0.224-0.862,18.204-69.211,18.204-69.211h10.374V14.457L112.337,14.458z"/>
</g>
</svg>
