<?xml version="1.0" encoding="utf-8"?>
<!-- Generator: Adobe Illustrator 16.0.0, SVG Export Plug-In . SVG Version: 6.00 Build 0)  -->
<!DOCTYPE svg PUBLIC "-//W3C//DTD SVG 1.1//EN" "http://www.w3.org/Graphics/SVG/1.1/DTD/svg11.dtd">
<svg version="1.1" id="Layer_1" xmlns="http://www.w3.org/2000/svg" xmlns:xlink="http://www.w3.org/1999/xlink" x="0px" y="0px"
	  viewBox="0 0 504 100" enable-background="new 0 0 504 100" xml:space="preserve">
<polygon fill="#4B2E83" points="0,0 0,99.788 477.938,99.788 503.945,0 "/>
<g>
	<defs>
		<rect id="SVGID_1_" width="504" height="100"/>
	</defs>
	<clipPath id="SVGID_2_">
		<use xlink:href="#SVGID_1_"  overflow="visible"/>
	</clipPath>
	<path clip-path="url(#SVGID_2_)" fill="#FFFFFF" d="M84.771,12.646v14.011h9.843l-10.99,40.908c0,0-13.451-54.155-13.643-54.919
		H55.755C55.552,13.392,40.998,67.57,40.998,67.57L30.873,26.657h10.254V12.646H0v14.011h9.112c0,0,14.815,59.588,14.989,60.274
		h23.847c0.279-0.679,9.691-36.692,9.691-36.67c0,0.023,8.999,35.846,9.154,36.67h23.793c0.195-0.752,15.853-60.276,15.853-60.276
		h9.035V12.644L84.771,12.646z"/>
	<path clip-path="url(#SVGID_2_)" fill="#FFFFFF" d="M347.08,66.426v-8.008l5.559,8.933h0.548v-9.765l0.924-0.925h-2.791
		l0.926,0.925v6.792l-4.817-7.717h-2.209l0.903,0.925v8.84l-0.903,0.925h2.787L347.08,66.426z M338.823,66.773
		c-2.14,0-2.882-2.556-2.882-4.768c0-2.211,0.742-4.764,2.882-4.764c2.156,0,2.938,2.559,2.938,4.764s-0.781,4.729-2.931,4.729
		 M334.548,62.006c0,2.749,1.517,5.594,4.264,5.594c2.755,0,4.294-2.862,4.294-5.578c0-2.719-1.539-5.581-4.294-5.581
		c-2.726-0.035-4.248,2.808-4.248,5.558 M329.715,66.546v-9.037h2.026l1.144,1.14v-1.938h-7.519v1.938l1.159-1.14h2.013v9.037
		l-0.836,0.852h2.863l-0.851-0.899V66.546z M321.802,62.495v3.443c-0.255,0.254-0.763,0.763-1.759,0.763
		c-2.371,0-3.568-2.393-3.568-4.693c0-2.318,1.504-4.69,3.568-4.69c0.546,0,0.947,0.095,1.327,0.505l1.178,1.163v-1.851
		c-0.634-0.326-1.269-0.615-2.482-0.615c-2.918,0-4.965,2.609-4.965,5.498c0,2.842,2.084,5.499,4.928,5.489
		c1.649,0,2.355-0.4,2.938-0.78v-4.22l0.832-0.851h-2.862L321.802,62.495z M305.953,66.426v-8.008l5.621,8.937l0.484-0.004v-9.765
		l0.924-0.925h-2.789l0.924,0.925v6.792l-4.819-7.717h-2.211l0.908,0.925v8.84l-0.908,0.925h2.789L305.953,66.426z M298.289,56.662
		l0.853,0.852V66.5l-0.853,0.851h2.881l-0.851-0.851v-8.986l0.851-0.852H298.289z M288.795,61.997h4.495v4.51l-0.854,0.852h2.882
		l-0.853-0.852v-8.985l0.853-0.852h-2.882l0.854,0.852v3.68h-4.495v-3.689l0.854-0.851h-2.863l0.834,0.851v8.984l-0.834,0.854h2.863
		l-0.854-0.854v-4.508V61.997z M283.979,64.379c0-1.05-0.49-1.702-0.999-2.046l-2.171-1.575c-0.78-0.562-1.18-1.288-1.18-1.83
		c0-1.123,0.961-1.52,1.54-1.52c0.307,0,0.569,0.095,0.663,0.126l0.941,1.013l0.996-1.483l-2.119-0.399
		c-0.144-0.036-0.234-0.055-0.506-0.055c-1.866,0-2.718,1.596-2.718,2.626c0,0.853,0.379,1.706,1.423,2.445l2.191,1.61
		c0.598,0.379,0.759,1.042,0.759,1.559c0,0.905-0.561,1.885-1.777,1.885c-0.286,0-0.544-0.055-0.742-0.146l-1.014-1.197
		l-0.926,1.706l2.048,0.397c0,0,0.378,0.095,0.663,0.071c1.242-0.072,2.9-1.117,2.9-3.201 M272.019,59.035l1.469,4.42h-2.988
		L272.019,59.035z M269.447,66.519l0.776-2.266h3.533l0.744,2.266l-0.835,0.832h3.027l-0.852-0.869l-3.336-9.819h-0.543
		l-3.386,9.819l-0.87,0.869h2.571L269.447,66.519z M258.083,67.351l2.445-7.734l2.374,7.734h0.543l3.098-9.837l0.871-0.852h-2.574
		l0.833,0.833l-2.262,7.394l-2.193-7.394l0.834-0.833h-3.024l0.853,0.852l0.216,0.705l-2.048,6.668l-2.191-7.393l0.838-0.833h-3.026
		l0.866,0.851l3.009,9.838L258.083,67.351z M242.242,60.944l-0.407,0.389l0.046,0.152h1.248c-0.197,1.354-0.376,2.528-0.661,4.455
		c-0.407,2.814-0.753,3.809-1.037,4.048c-0.091,0.091-0.242,0.136-0.377,0.136c-0.182,0-0.467-0.136-0.661-0.224
		c-0.182-0.093-0.333,0.015-0.421,0.104c-0.121,0.136-0.257,0.346-0.257,0.513c0,0.283,0.379,0.473,0.664,0.473
		s1.008-0.242,1.657-1.039c0.51-0.631,1.203-2.091,1.789-5.493c0.106-0.633,0.225-1.266,0.48-2.921l1.535-0.151l0.331-0.39h-1.776
		c0.453-2.784,0.828-3.629,1.474-3.629c0.454,0,0.856,0.189,1.14,0.5c0.105,0.094,0.285,0.094,0.417-0.016
		c0.122-0.107,0.303-0.348,0.303-0.558c0.015-0.302-0.392-0.633-0.904-0.633c-0.871,0-1.79,0.511-2.421,1.233
		c-0.589,0.709-0.979,1.851-1.189,3.069h-0.974L242.242,60.944L242.242,60.944z M235.468,64.887c0-2.229,1.127-3.432,1.596-3.629
		c0.136-0.058,0.344-0.118,0.497-0.118c0.751,0,1.231,0.565,1.231,1.731c0.032,1.954-0.992,3.734-1.625,3.981
		c-0.12,0.047-0.315,0.105-0.466,0.105c-0.885-0.032-1.275-0.98-1.275-2.022 M238.042,60.577c-0.391,0-1.008,0.18-1.626,0.541
		c-1.04,0.617-2.167,2.014-2.167,4.124c0,1.042,0.474,2.275,1.895,2.275c0.662,0,1.61-0.438,2.244-1.009
		c0.991-0.902,1.579-2.456,1.579-3.795c0.001-1.286-0.657-2.137-1.889-2.137 M220.603,57.514l2.7,4.873V66.5l-0.85,0.851h2.879
		l-0.851-0.851v-4.113l2.755-4.855l0.888-0.869h-2.644l0.833,0.854l-2.247,4.006l-2.136-4.006l0.832-0.83h-3.025L220.603,57.514z
		 M214.969,66.498v-9.037h2.03l1.14,1.141v-1.939h-7.52v1.939l1.161-1.141h2.009v9.037l-0.832,0.853h2.864L214.969,66.498z
		 M205.275,56.662l0.853,0.852V66.5l-0.853,0.851h2.882l-0.851-0.851v-8.986l0.851-0.852H205.275z M202.179,64.379
		c0-1.05-0.491-1.702-0.996-2.046l-2.175-1.575c-0.78-0.562-1.176-1.288-1.176-1.83c0-1.123,0.959-1.52,1.538-1.52
		c0.308,0,0.569,0.095,0.663,0.126l0.942,1.013l0.996-1.483l-2.118-0.399c-0.145-0.036-0.236-0.055-0.507-0.055
		c-1.866,0-2.718,1.596-2.718,2.626c0,0.853,0.379,1.706,1.421,2.445l2.192,1.61C200.839,63.67,201,64.333,201,64.85
		c0,0.905-0.563,1.885-1.775,1.885c-0.29,0-0.544-0.055-0.742-0.146l-1.015-1.197l-0.926,1.706l2.048,0.397
		c0,0,0.38,0.095,0.664,0.071c1.24-0.072,2.905-1.117,2.905-3.201 M188.446,57.46h1.305c1.141,0,2.085,0.947,2.085,2.134
		c0,1.107-0.923,1.978-2.045,1.978h-1.306V57.46H188.446z M188.446,66.498v-4.127h1.613l2.589,4.98h1.776l-0.834-0.851l-2.39-4.384
		c1.194-0.364,2.011-1.487,2.011-2.5c0-1.814-1.685-2.953-3.46-2.953h-3.317l0.835,0.851v8.983l-0.835,0.855h2.863L188.446,66.498z
		 M183.646,67.351v-1.956l-1.142,1.158h-3.242V62.06h2.409l0.851,0.853v-2.5l-0.851,0.85h-2.409v-3.803h3.242l1.142,1.143v-1.94
		h-6.395l0.834,0.853v8.984l-0.834,0.852L183.646,67.351L183.646,67.351z M169.788,56.662h-3.025l0.869,0.852l3.009,9.837h0.543
		l3.099-9.837l0.87-0.852h-2.571l0.833,0.833l-2.266,7.394l-2.193-7.394L169.788,56.662z M161.491,56.662l0.851,0.852V66.5
		l-0.851,0.851h2.878l-0.85-0.851v-8.986l0.85-0.852H161.491z M151.543,66.426v-8.008l5.736,8.933h0.373v-9.765l0.922-0.925h-2.79
		l0.927,0.925v6.792l-4.82-7.717h-2.21l0.904,0.925v8.84l-0.904,0.925h2.787L151.543,66.426z M139.516,64.46
		c0,1.801,1.516,3.129,3.318,3.098c1.737,0,3.458-1.284,3.458-3.098v-6.903l0.906-0.923h-2.789l0.923,0.923v6.903
		c0,1.232-0.976,2.21-2.211,2.21c-1.248,0-2.354-0.959-2.354-2.21v-6.903l0.924-0.896h-3.101l0.925,0.925v6.902L139.516,64.46z"/>
	<path clip-path="url(#SVGID_2_)" fill="#FFFFFF" d="M143.285,45.257c-3.718,0-6.117-4.07-6.117-8.279
		c0-4.274,2.459-8.279,6.117-8.279c1.87,0,2.842,0.532,3.599,0.954v3.297l-1.972-2.205c-0.468-0.547-0.974-0.773-1.667-0.773
		c-2.743,0-3.475,3.866-3.475,6.994c0,3.18,0.852,6.994,3.503,7.005c0.691,0,1.2-0.229,1.668-0.773l1.971-2.206v3.322
		c-0.699,0.509-1.576,0.933-3.659,0.942L143.285,45.257L143.285,45.257z"/>
	<path clip-path="url(#SVGID_2_)" fill="#FFFFFF" d="M155.722,45.372c-3.8,0-6.179-4.185-6.179-8.393
		c0-4.209,2.378-8.392,6.179-8.392c3.801,0,6.155,4.132,6.155,8.371c0,4.238-2.355,8.398-6.125,8.414H155.722z M155.722,29.906
		c-2.743,0-3.535,3.889-3.535,7.072c0,3.186,0.792,7.101,3.503,7.074c2.712-0.025,3.536-3.888,3.536-7.074
		c0-3.183-0.76-7.096-3.472-7.072H155.722z"/>
	<polygon clip-path="url(#SVGID_2_)" fill="#FFFFFF" points="164.518,45.029 165.758,43.642 165.758,30.315 164.518,28.928 
		169.193,28.928 167.954,30.315 167.954,43.711 171.388,43.711 173.035,41.869 173.035,45.03 164.518,45.03 	"/>
	<polygon clip-path="url(#SVGID_2_)" fill="#FFFFFF" points="175.084,45.029 176.325,43.642 176.325,30.315 175.084,28.928 
		179.759,28.928 178.52,30.315 178.52,43.711 181.954,43.711 183.6,41.869 183.6,45.03 175.084,45.03 	"/>
	<polygon clip-path="url(#SVGID_2_)" fill="#FFFFFF" points="185.649,45.029 186.889,43.642 186.889,30.315 185.649,28.928 
		194.673,28.928 194.673,32.088 193.027,30.246 189.083,30.246 189.083,35.75 191.909,35.75 193.148,34.361 193.148,38.455 
		191.909,37.067 189.083,37.067 189.083,43.71 193.027,43.71 194.673,41.868 194.673,45.029 	"/>
	<path clip-path="url(#SVGID_2_)" fill="#FFFFFF" d="M208.572,37.708v6.367c-0.995,0.661-1.951,1.182-4.329,1.182
		c-3.902,0-6.951-3.797-6.951-8.278c0-4.482,3.151-8.28,7.053-8.28c1.666,0,2.746,0.424,3.598,0.934v3.318l-1.971-2.205
		c-0.469-0.521-0.955-0.773-1.647-0.773c-2.763,0-4.391,3.662-4.391,7.005c0,3.343,1.628,6.995,4.357,7.006
		c0.915,0,1.667-0.388,2.033-0.797v-5.481l-1.24-1.387h4.675L208.572,37.708z"/>
	<polygon clip-path="url(#SVGID_2_)" fill="#FFFFFF" points="211.738,45.029 212.978,43.642 212.978,30.315 211.738,28.928 
		220.762,28.928 220.762,32.088 219.116,30.246 215.173,30.246 215.173,35.75 217.998,35.75 219.238,34.361 219.238,38.455 
		217.998,37.067 215.173,37.067 215.173,43.71 219.116,43.71 220.762,41.868 220.762,45.029 	"/>
	<path clip-path="url(#SVGID_2_)" fill="#FFFFFF" d="M235.512,45.372c-3.801,0-6.178-4.185-6.178-8.393
		c0-4.209,2.378-8.392,6.178-8.392c3.801,0,6.18,4.132,6.157,8.371c-0.025,4.238-2.354,8.398-6.181,8.414H235.512z M235.512,29.906
		c-2.743,0-3.535,3.889-3.535,7.072c0,3.186,0.794,7.101,3.504,7.101c2.743,0,3.535-3.889,3.535-7.075
		c0-3.184-0.76-7.123-3.529-7.099L235.512,29.906L235.512,29.906z"/>
	<polygon clip-path="url(#SVGID_2_)" fill="#FFFFFF" points="251.688,30.246 247.745,30.246 247.745,35.749 250.57,35.749 
		251.809,34.361 251.809,38.455 250.57,37.067 247.745,37.067 247.745,43.641 248.986,45.028 244.309,45.028 245.55,43.641 
		245.55,30.315 244.309,28.928 253.332,28.928 253.332,32.088 	"/>
	<polygon clip-path="url(#SVGID_2_)" fill="#FFFFFF" points="269.712,30.246 267.293,30.246 267.293,43.643 268.532,45.03 
		263.856,45.03 265.098,43.643 265.098,30.246 262.68,30.246 261.032,32.088 261.032,28.928 271.356,28.928 271.356,32.088 	"/>
	<polygon clip-path="url(#SVGID_2_)" fill="#FFFFFF" points="281.108,45.029 282.35,43.642 282.35,37.069 276.926,37.069 
		276.926,43.642 278.165,45.029 273.489,45.029 274.729,43.642 274.729,30.315 273.489,28.928 278.165,28.928 276.926,30.315 
		276.926,35.75 282.35,35.75 282.35,30.315 281.108,28.928 285.784,28.928 284.545,30.315 284.545,43.642 285.784,45.029 	"/>
	<polygon clip-path="url(#SVGID_2_)" fill="#FFFFFF" points="288.219,45.029 289.457,43.642 289.457,30.315 288.219,28.928 
		297.242,28.928 297.242,32.088 295.595,30.246 291.651,30.246 291.651,35.75 294.479,35.75 295.716,34.361 295.716,38.455 
		294.479,37.067 291.651,37.067 291.651,43.71 295.595,43.71 297.242,41.868 297.242,45.029 	"/>
	<polygon clip-path="url(#SVGID_2_)" fill="#FFFFFF" points="305.633,45.029 306.871,43.642 306.871,30.315 305.633,28.928 
		314.655,28.928 314.655,32.088 313.012,30.246 309.066,30.246 309.066,35.75 311.892,35.75 313.133,34.361 313.133,38.455 
		311.892,37.067 309.066,37.067 309.066,43.71 313.012,43.71 314.655,41.868 314.655,45.029 	"/>
	<polygon clip-path="url(#SVGID_2_)" fill="#FFFFFF" points="328.048,30.315 328.048,46.349 319.715,31.86 319.715,43.642 
		320.954,45.029 317.092,45.029 318.333,43.642 318.333,30.315 317.092,28.928 320.69,28.928 326.664,39.413 326.664,30.315 
		325.427,28.928 329.286,28.928 	"/>
	<polygon clip-path="url(#SVGID_2_)" fill="#FFFFFF" points="341.416,30.337 337.253,45.029 335.911,45.029 331.846,30.337 
		330.585,28.93 335.401,28.93 334.184,30.292 337.071,41.102 340.037,30.322 338.816,28.959 342.678,28.959 	"/>
	<polygon clip-path="url(#SVGID_2_)" fill="#FFFFFF" points="344.32,45.029 345.561,43.642 345.561,30.315 344.32,28.928 
		348.994,28.928 347.753,30.315 347.753,43.642 348.994,45.029 	"/>
	<path clip-path="url(#SVGID_2_)" fill="#FFFFFF" d="M360.414,45.029l-3.435-7.391h-1.913v6.004l1.243,1.387h-4.677l1.24-1.387
		V30.315l-1.24-1.387h5.184c2.439,0,4.924,1.377,4.924,4.411c0,1.684-1.095,3.251-2.684,3.819l3.192,6.483l1.24,1.387
		L360.414,45.029z M356.817,30.246h-1.749v6.072h1.749c1.383,0,2.461-1.183,2.461-2.98c-0.001-1.866-1.062-3.139-2.48-3.094h0.02
		V30.246z"/>
	<path clip-path="url(#SVGID_2_)" fill="#FFFFFF" d="M371.305,45.372c-3.801,0-6.177-4.185-6.177-8.393
		c0-4.209,2.377-8.392,6.177-8.392c3.801,0,6.179,4.132,6.156,8.371c-0.021,4.238-2.354,8.398-6.174,8.414H371.305z M371.305,29.906
		c-2.743,0-3.536,3.889-3.536,7.072c0,3.186,0.796,7.101,3.505,7.101c2.742,0,3.535-3.889,3.535-7.075
		c0-3.184-0.759-7.123-3.522-7.099L371.305,29.906L371.305,29.906z"/>
	<polygon clip-path="url(#SVGID_2_)" fill="#FFFFFF" points="391.057,30.315 391.057,46.349 382.721,31.86 382.721,43.642 
		383.962,45.029 380.104,45.029 381.344,43.642 381.344,30.315 380.104,28.928 383.699,28.928 389.677,39.413 389.677,30.315 
		388.434,28.928 392.296,28.928 	"/>
	<polygon clip-path="url(#SVGID_2_)" fill="#FFFFFF" points="404.995,45.029 406.236,43.642 406.236,31.611 401.744,40.549 
		397.251,31.611 397.251,43.643 398.492,45.03 394.632,45.03 395.872,43.643 395.872,30.315 394.632,28.928 398.453,28.928 
		402.376,36.751 406.278,28.928 409.671,28.928 408.432,30.315 408.432,43.642 409.671,45.029 	"/>
	<polygon clip-path="url(#SVGID_2_)" fill="#FFFFFF" points="412.104,45.029 413.344,43.642 413.344,30.315 412.104,28.928 
		421.128,28.928 421.128,32.088 419.481,30.246 415.54,30.246 415.54,35.75 418.364,35.75 419.604,34.361 419.604,38.455 
		418.364,37.067 415.54,37.067 415.54,43.71 419.481,43.71 421.128,41.868 421.128,45.029 	"/>
	<polygon clip-path="url(#SVGID_2_)" fill="#FFFFFF" points="434.518,30.315 434.518,46.349 426.186,31.86 426.186,43.642 
		427.424,45.029 423.563,45.029 424.806,43.642 424.806,30.315 423.563,28.928 427.162,28.928 433.137,39.413 433.137,30.315 
		431.897,28.928 435.759,28.928 	"/>
	<polygon clip-path="url(#SVGID_2_)" fill="#FFFFFF" points="446.466,30.246 444.048,30.246 444.048,43.643 445.288,45.03 
		440.613,45.03 441.853,43.643 441.853,30.246 439.434,30.246 437.785,32.088 437.785,28.928 448.111,28.928 448.111,32.088 	"/>
</g>
</svg>
